<svg width="273" height="75" viewBox="0 0 273 75" fill="none" xmlns="http://www.w3.org/2000/svg">
<path d="M33.874 24.1117C32.3242 22.4658 30.4936 21.0716 28.3662 20.4627C26.2047 19.8439 23.9606 20.167 21.9827 21.2711C19.8686 22.4515 18.1331 24.3166 16.3633 25.9971C15.9667 26.3739 15.57 26.7504 15.1736 27.1272C14.9513 27.2927 14.7538 27.5255 14.5698 27.6999C14.203 28.0479 13.6614 28.391 13.8066 29.0016C13.8613 29.231 14.0054 29.3935 14.1471 29.567C14.3847 29.8571 14.6223 30.1474 14.8598 30.4377C15.301 30.9771 15.7423 31.5161 16.1834 32.0551C17.9484 34.2117 19.7132 36.3681 21.4783 38.5245C23.2609 40.703 25.0436 42.8813 26.8264 45.0596C27.2645 45.5951 27.6791 46.195 28.1583 46.687C28.4676 47.0048 28.8907 46.9638 29.2115 46.687C29.4025 46.5223 29.5838 46.3415 29.7662 46.1641C29.8253 46.1097 29.8828 46.0542 29.9392 45.999C30.0907 45.8606 30.2706 45.7232 30.4039 45.5556C30.7768 45.2014 31.1497 44.8474 31.5225 44.4935C32.035 44.0069 32.5475 43.5201 33.06 43.0334C33.2879 42.8172 33.5155 42.6008 33.7436 42.3847C33.8943 42.2414 34.0913 42.0969 34.2339 41.9221C34.9985 41.295 35.6656 40.386 36.2309 39.5679C36.8437 38.6811 37.3513 37.7109 37.7049 36.6718C38.449 34.4854 38.3297 32.1286 37.5691 29.9668C36.7854 27.74 35.4404 25.7748 33.874 24.1117ZM28.9879 42.7812C28.0886 41.6821 27.189 40.5832 26.2898 39.4843C24.5249 37.3277 22.7599 35.1711 20.9951 33.0147C20.1127 31.9364 19.2302 30.8581 18.3477 29.7798C18.1091 29.4882 17.8704 29.1965 17.6316 28.905C18.2738 28.2948 18.9146 27.6831 19.557 27.0732C20.4133 26.2605 21.2726 25.45 22.2332 24.7807C23.1353 24.1523 24.1209 23.6476 25.1872 23.4535C26.327 23.2462 27.5037 23.4527 28.5547 23.957C30.5994 24.9375 32.3285 26.8793 33.577 28.8427C34.8456 30.8381 35.5849 33.2316 34.8532 35.6087C34.161 37.8576 32.4976 39.4603 30.8976 40.9788C30.2625 41.5815 29.6275 42.1839 28.9924 42.7866C28.991 42.7849 28.9896 42.7829 28.9879 42.7812Z" fill="#FFAFBE"/>
<path d="M45.9953 35.2845C46.1346 35.2518 46.2753 35.1984 46.41 35.1421C46.9171 34.9299 47.4009 34.6584 47.8461 34.3209C48.8846 33.5332 49.704 32.4348 50.1951 31.1877C50.3427 31.4834 50.5166 31.7603 50.7383 31.9986C51.5286 32.8478 52.628 32.8656 53.655 32.597C53.9576 32.5179 54.469 32.413 54.8571 32.2037C54.8675 32.2003 54.8765 32.1995 54.8873 32.1954C55.0684 32.1267 55.2061 31.9918 55.2884 31.8236C55.3595 31.7031 55.3915 31.5631 55.3691 31.4C55.3685 31.3917 55.3694 31.3835 55.3687 31.3754C55.3409 31.088 55.2284 30.7973 55.1552 30.5199C55.0785 30.2285 55.0348 29.8799 54.8945 29.6136C54.3462 28.5741 53.0395 30.1362 52.6481 29.0806C52.4057 28.4266 52.2826 27.6958 52.104 27.0187C51.9119 26.2909 51.7198 25.5632 51.5277 24.8355C51.1692 23.4778 50.86 22.0935 50.446 20.7542C50.0965 19.6241 49.5937 18.5341 48.7669 17.7201C47.2767 16.2527 45.1953 16.0593 43.3144 16.6239C41.4242 17.1909 39.7004 18.4499 38.6152 20.2237C38.3405 20.6727 38.115 21.1529 37.9331 21.6534C37.7843 22.0629 37.5362 22.6304 37.7279 23.0641C37.8424 23.3232 38.0605 23.4397 38.2833 23.5781C38.5894 23.7684 38.8932 23.9634 39.2018 24.149C39.5712 24.3712 40.0364 24.4295 40.316 24.0064C40.4474 23.8074 40.4679 23.5456 40.5304 23.3166C40.6127 23.0159 40.7157 22.7223 40.844 22.4409C41.0938 21.8935 41.4212 21.3932 41.8282 20.9686C42.63 20.1323 43.7903 19.562 44.9103 19.5089C46.0679 19.454 46.9031 20.0811 47.3809 21.1898C47.485 21.4316 47.5759 21.6822 47.6589 21.9371C47.237 22.3187 46.8284 22.7244 46.4116 23.1032C45.8081 23.652 45.2046 24.2009 44.6025 24.7513C43.5306 25.7314 42.3827 26.6705 41.5186 27.8774C40.7957 28.8867 40.2769 30.1035 40.3335 31.4029C40.385 32.5908 40.8652 33.8041 41.7299 34.5663C42.5257 35.2679 43.5572 35.5506 44.573 35.5202C44.929 35.5096 45.5466 35.4802 45.9953 35.2845ZM48.9394 28.625C48.6612 29.8145 47.9331 30.8966 47.0061 31.6016C46.2142 32.2043 44.9148 32.7834 43.9682 32.2475C43.1638 31.7925 43.2384 30.6039 43.5939 29.8521C43.8688 29.271 44.3441 28.8236 44.7901 28.3966C45.3881 27.8249 45.9926 27.2606 46.5935 26.6925C47.1895 26.1291 47.7852 25.5656 48.3813 25.002C48.3998 24.9846 48.4183 24.9669 48.4368 24.9495C48.6208 25.6765 48.8055 26.4028 48.9919 27.129C49.042 27.6356 49.0612 28.1044 48.9394 28.625Z" fill="#FFAFBE"/>
<path d="M55.6822 10.2596C55.7185 10.621 55.6881 11.0977 55.881 11.4129C56.081 11.7402 56.3902 11.7915 56.7253 11.7592C57.1945 11.7141 57.7192 11.7044 58.1769 11.5844C58.2524 11.5647 58.321 11.5331 58.385 11.4948C58.4046 11.4838 58.4202 11.4687 58.4384 11.4557C58.5036 11.4083 58.5609 11.3516 58.608 11.2834C58.6116 11.278 58.6165 11.2736 58.62 11.2678C58.6481 11.2248 58.6698 11.1758 58.69 11.1251C58.6912 11.1213 58.6928 11.1178 58.6943 11.1139C58.7031 11.0905 58.716 11.0706 58.7228 11.0454C58.7313 11.015 58.7324 10.9858 58.7374 10.9558C58.7392 10.9471 58.7401 10.9382 58.7417 10.9293C58.7476 10.889 58.7543 10.8486 58.7546 10.8093C58.7606 10.7307 58.7618 10.6504 58.7543 10.5677C58.6644 9.58786 58.6156 9.26214 58.5176 8.28322C58.4831 7.93523 58.4756 7.58899 58.2082 7.34803C57.9153 7.08443 57.5586 7.17558 57.2093 7.21603C56.596 7.28706 55.5327 7.18856 55.4713 8.10168C55.4413 8.54566 55.5523 9.04091 55.5963 9.48353C55.6439 9.95945 55.6348 9.78353 55.6822 10.2596Z" fill="#FFAFBE"/>
<path d="M58.9285 13.9852C58.6366 13.6527 58.2456 13.7452 57.8659 13.7893C57.4478 13.8377 56.9096 13.7955 56.5304 14.0032C56.1757 14.1975 56.1135 14.5615 56.1427 14.9521C56.225 16.0553 56.363 17.1573 56.4731 18.2577C56.6988 20.5165 56.9245 22.7759 57.1502 25.0347C57.2769 26.302 57.4034 27.5691 57.5301 28.8364C57.5962 29.4975 57.6622 30.1586 57.7283 30.82C57.7703 31.2417 57.8332 31.6698 58.2569 31.8291C58.4605 31.9055 58.669 31.8627 58.8778 31.8385C59.1833 31.8031 59.4884 31.7679 59.7937 31.7325C59.975 31.7116 60.1545 31.6928 60.3114 31.6276C60.315 31.6264 60.318 31.6245 60.3215 31.6231C60.3646 31.6046 60.4055 31.5815 60.4444 31.5546C60.4589 31.5451 60.4731 31.5362 60.4868 31.5258C60.4911 31.5221 60.495 31.5173 60.4994 31.5134C60.5385 31.4815 60.577 31.448 60.61 31.4066C60.8048 31.161 60.7757 30.8747 60.7459 30.5755C60.688 29.9968 60.6304 29.4185 60.5725 28.84C60.4568 27.6829 60.341 26.5257 60.2253 25.3687C59.9996 23.1099 59.7737 20.8509 59.5479 18.592C59.435 17.4623 59.3222 16.333 59.2091 15.2033C59.1693 14.8056 59.203 14.2979 58.9285 13.9852Z" fill="#FFAFBE"/>
<path d="M64.5287 31.6813C64.8601 31.7094 65.1915 31.7402 65.5232 31.7648C65.7135 31.7789 65.8937 31.7878 66.0646 31.6813C66.2567 31.5615 66.3652 31.3426 66.3913 31.1116C66.3986 31.0794 66.4112 31.0506 66.4157 31.0171C66.5119 30.297 66.5239 29.5516 66.5765 28.8259C66.6802 27.3931 66.7837 25.9599 66.8874 24.527C67.0989 21.6059 67.3102 19.0539 67.5217 16.1328C67.6274 14.6724 67.7332 13.2117 67.8389 11.7511C67.8908 11.0311 67.9429 10.3116 67.9951 9.59179C68.0213 9.23142 68.0538 8.87085 68.0734 8.51009C68.0869 8.26198 68.0788 8.05045 67.925 7.85091C67.5857 7.41177 66.8932 7.50427 66.4227 7.46498C65.9456 7.42511 65.4218 7.30629 65.1582 7.84917C65.0443 8.08393 65.0545 8.37191 65.036 8.62913C65.0082 9.01485 64.9801 9.40057 64.9523 9.78649C64.9004 10.503 64.8486 11.2194 64.7967 11.9359C64.5853 14.8572 64.3738 17.7781 64.1625 20.6992C63.953 23.5949 63.7435 26.1214 63.534 29.0171C63.5077 29.3777 63.4817 29.7382 63.4556 30.0986C63.4342 30.3943 63.3537 30.7522 63.4186 31.0442C63.5433 31.6059 64.0919 31.645 64.5287 31.6813Z" fill="#FFAFBE"/>
<path d="M68.6689 40.7916C70.5311 41.0722 72.1726 40.1692 73.385 38.687C74.1352 37.7702 76.2432 34.6732 76.8879 33.6709C77.6308 32.5164 78.3753 31.3629 79.1192 30.2093C80.6191 27.8843 82.1189 25.5591 83.6186 23.2341C84.3676 22.0731 85.1167 20.9121 85.8655 19.751C86.1318 19.3382 86.5223 18.9207 86.2869 18.3924C86.07 17.9045 85.5149 17.8822 85.0811 17.7721C84.6414 17.6606 84.0288 17.3571 83.6008 17.6523C83.417 17.7788 83.3048 18.0005 83.1852 18.1892C82.9983 18.4845 82.8112 18.7792 82.6243 19.0742C81.8906 20.2312 81.1566 21.3878 80.4229 22.5446C78.9613 24.8498 77.5021 27.1568 76.0531 29.4713C75.8234 27.5406 75.5837 25.6114 75.3307 23.6843C75.1507 22.3119 74.9666 20.9403 74.7821 19.5687C74.6055 18.2548 74.4707 16.9248 74.252 15.6184C74.1629 15.0861 73.8793 14.9363 73.4159 14.8192C73.1215 14.7449 72.8276 14.6704 72.5334 14.5959C72.2815 14.5322 71.9963 14.4132 71.7345 14.4765C71.424 14.5512 71.2076 14.8417 71.1692 15.1757C71.1392 15.4351 71.2092 15.7088 71.2448 15.9642C71.2982 16.348 71.3516 16.7316 71.4051 17.115C71.7794 19.8006 72.1535 22.4861 72.5278 25.1714C72.7111 26.4869 72.8944 27.802 73.0777 29.1173L73.3526 31.0916C73.3986 31.4214 73.4446 31.751 73.4905 32.0806C73.532 32.3788 73.5217 32.7549 73.6985 33.0038C73.726 33.0427 73.7571 33.0756 73.7891 33.1062C73.7591 33.1549 73.7298 33.2054 73.6994 33.2532C73.1717 34.0833 71.1242 37.1424 70.2624 37.621C69.3684 38.1173 68.3719 37.6992 67.8256 36.8492C67.602 36.5014 67.4407 36.1114 67.3212 35.7096C67.2024 35.3104 67.0195 34.9314 66.5772 34.8993C66.3138 34.8799 66.1422 35.0346 65.9431 35.1979C65.6816 35.4124 65.4202 35.6264 65.1591 35.8412C64.7848 36.149 64.6193 36.4437 64.7312 36.9566C64.9542 37.9768 65.5294 38.9251 66.2728 39.5934C66.6207 39.9061 67.0029 40.1719 67.415 40.3755C67.7061 40.5191 68.0955 40.7349 68.4488 40.7529C68.5215 40.7682 68.5956 40.7804 68.6689 40.7916Z" fill="#FFAFBE"/>
<path d="M63.7678 44.8921C61.3818 43.8203 58.6297 44.5195 56.9918 46.6837C56.9451 46.7452 56.9025 46.8105 56.8578 46.8737C56.7951 46.6469 56.7191 46.423 56.6263 46.2031C56.1226 45.01 55.1807 44.0864 54.063 43.5836C51.9135 42.6163 49.4829 43.0978 47.8226 44.7789C47.8425 44.6084 47.8621 44.4382 47.882 44.2679C47.9239 43.9068 48.0244 43.5004 47.8457 43.1617C47.6276 42.7477 47.169 42.7744 46.7821 42.7223C46.1553 42.6385 45.1102 42.3076 44.9593 43.2726C44.7845 44.3895 44.6966 45.5308 44.5661 46.6545C44.2977 48.964 44.029 51.2735 43.7606 53.583C43.6136 54.8476 43.4666 56.1123 43.3194 57.3771C43.2459 58.0096 43.1726 58.6419 43.0989 59.2742C43.0551 59.6527 43.0173 60.0648 43.3203 60.3406C43.4935 60.4981 43.7081 60.5024 43.923 60.5314C44.2278 60.5722 44.5323 60.6131 44.8369 60.6539C44.9834 60.6736 45.1246 60.6959 45.2612 60.6955C45.4457 60.7288 45.6376 60.694 45.7954 60.5622C46.0508 60.3485 46.0517 60.0119 46.0889 59.692C46.1561 59.1147 46.2231 58.5372 46.2903 57.9598C46.4243 56.8052 46.5589 55.6503 46.693 54.4957C46.847 53.1711 47.001 51.8467 47.155 50.522C47.1854 50.3776 47.1994 50.2264 47.2254 50.0848C47.2955 49.7039 47.3882 49.3265 47.5101 48.9609C47.7334 48.2897 48.0623 47.6464 48.5201 47.1277C49.4423 46.083 50.8265 45.7576 52.0987 46.1501C52.7226 46.3429 53.2955 46.7311 53.6384 47.3361C54.036 48.0375 54.095 48.8838 54.0599 49.6857C54.0233 50.5283 53.8784 51.3629 53.7812 52.1988C53.6632 53.2127 53.5453 54.2267 53.4274 55.2406C53.3128 56.2269 53.1979 57.2134 53.0835 58.1998C53.026 58.6932 52.9686 59.1865 52.9113 59.6796C52.8612 60.1097 52.7559 60.5726 52.7651 61.0063C52.785 61.9415 53.7636 61.8581 54.3918 61.9425C54.5595 61.9649 54.7316 61.9874 54.897 61.9889C54.9735 62.0098 55.0531 62.0228 55.1368 62.0174C55.8157 61.9723 55.7818 61.124 55.8441 60.5871C55.9593 59.5956 56.0747 58.6043 56.19 57.613C56.4145 55.6821 56.6344 53.7506 56.8641 51.8204C56.8928 51.6803 56.9063 51.5341 56.9316 51.3967C57.0017 51.0168 57.0939 50.6406 57.2145 50.2758C57.4368 49.605 57.7625 48.9595 58.2172 48.4381C59.1377 47.3826 60.5207 47.0613 61.7972 47.4557C62.4238 47.6489 63.0012 48.0371 63.3458 48.645C63.7431 49.3464 63.8021 50.1927 63.7672 50.9946C63.7306 51.8372 63.5857 52.6716 63.4885 53.5077C63.3706 54.5214 63.2526 55.5352 63.1347 56.549C63.02 57.5352 62.9052 58.5217 62.7906 59.5082C62.7333 60.0013 62.6759 60.4944 62.6186 60.9878C62.5687 61.4178 62.463 61.8806 62.4723 62.3145C62.4923 63.2491 63.4705 63.1664 64.0986 63.251C64.266 63.2738 64.4384 63.2961 64.6033 63.2978C64.6801 63.3187 64.7595 63.3317 64.8432 63.3263C65.5221 63.2812 65.4882 62.4329 65.5507 61.896C65.6659 60.9043 65.7812 59.913 65.8964 58.9215C66.1325 56.8898 66.3629 54.8572 66.606 52.8264C66.8166 51.0681 67.0375 49.1805 66.3329 47.5113C65.8289 46.3173 64.8864 45.3947 63.7678 44.8921Z" fill="#FFAFBE"/>
<path d="M84.8077 54.2322C84.4379 53.9109 84.0011 53.3429 83.4832 53.352C82.9531 53.3613 82.8356 53.8225 82.7229 54.2837C82.5864 54.8413 82.3934 55.3809 82.1222 55.8792C80.9301 58.0718 77.9303 58.9596 75.7957 57.9342C74.4205 57.2737 73.6176 55.838 73.151 54.3255C73.1783 54.3185 73.2056 54.3112 73.2329 54.3042C73.9306 54.1308 74.6286 53.9572 75.3263 53.7836C78.1644 53.0779 81.028 52.4443 83.8493 51.6639C84.4009 51.5114 84.574 51.1356 84.5251 50.5449C84.4775 49.9714 84.3808 49.4028 84.2356 48.8487C83.931 47.6852 83.4272 46.5756 82.7477 45.6129C81.3646 43.6537 79.2954 42.569 77.0045 42.6563C75.0286 42.7315 73.0016 43.5746 71.641 45.1498C69.2559 47.9108 69.1673 52.242 70.3952 55.6003C71.1003 57.5293 72.2597 59.307 73.9714 60.3294C74.8884 60.877 75.9102 61.1843 76.9522 61.2818C77.5121 61.3345 78.0769 61.3233 78.6352 61.2567C78.9508 61.2189 79.397 61.213 79.7299 61.0653C79.8897 61.0289 80.0491 60.9695 80.198 60.9197C80.6699 60.7622 81.1314 60.5632 81.5727 60.3244C83.3709 59.3511 84.7001 57.6516 85.3393 55.6026C85.413 55.3661 85.4714 55.1412 85.3973 54.8951C85.3066 54.5949 85.0234 54.4195 84.8077 54.2322ZM79.7438 49.732C78.3242 50.085 76.9046 50.4381 75.4848 50.7913C74.7626 50.9709 74.0404 51.1505 73.3183 51.3303C73.0864 51.3878 72.8546 51.4454 72.623 51.5029C72.5139 49.9112 72.7743 48.302 73.8685 47.1094C75.2178 45.6383 77.6158 45.1572 79.2584 46.3234C80.0304 46.8717 80.582 47.7146 80.9822 48.5987C81.0933 48.8437 81.1917 49.0947 81.2807 49.3498C80.7684 49.4769 80.2561 49.6047 79.7438 49.732Z" fill="#FFAFBE"/>
<path d="M103.149 47.8782C103.147 47.8388 103.143 47.7989 103.136 47.7588C103.134 47.7501 103.133 47.7414 103.131 47.7327C103.118 47.6687 103.1 47.605 103.074 47.5417C102.957 47.2686 102.803 47.0075 102.67 46.7433C102.542 46.489 102.431 46.1767 102.228 45.9796C101.837 45.6007 101.444 45.8283 101.055 46.0629C100.864 46.1784 100.621 46.3493 100.391 46.3253C100.075 46.2924 99.8834 45.8935 99.7475 45.6282C99.1204 44.4058 98.5297 43.158 97.9096 41.9304C97.3222 40.7678 96.7736 39.5716 96.14 38.437C95.5767 37.4279 94.8742 36.4953 93.9159 35.8972C92.0437 34.7288 89.8325 35.1376 88.0426 36.2816C86.3576 37.3586 84.9804 39.0451 84.3775 41.0715C84.2306 41.5654 84.1299 42.0785 84.0798 42.5944C84.0358 43.0466 83.9732 43.6001 84.3856 43.8865C84.6142 44.045 84.9382 44.1002 85.1941 44.1859C85.4787 44.2815 85.7718 44.4141 86.0656 44.4693C86.4514 44.542 86.8609 44.3258 86.9578 43.8943C87.0164 43.6334 86.9827 43.3357 87.009 43.0686C87.0413 42.7375 87.0992 42.4106 87.1856 42.0911C87.3425 41.5128 87.584 40.9668 87.9143 40.4802C88.5598 39.529 89.5969 38.7453 90.6715 38.4916C91.8235 38.2191 92.7315 38.8013 93.3829 39.7963C93.4846 39.9519 93.5765 40.1168 93.6706 40.2793C93.6543 40.3037 93.6381 40.3298 93.6216 40.3536C93.3757 40.7038 93.1296 41.0539 92.8837 41.4038C92.4221 42.0599 91.9607 42.7162 91.5003 43.3733C90.6385 44.6038 89.6828 45.812 89.0268 47.1896C88.4721 48.3538 88.1359 49.6809 88.3953 50.9873C88.6323 52.1793 89.3384 53.3244 90.3429 53.9149C91.2431 54.4439 92.2999 54.5149 93.2882 54.2722C93.6381 54.1861 94.2606 54.0202 94.6915 53.7251C95.044 53.5875 95.3959 53.2486 95.6502 53.0264C96.064 52.665 96.4363 52.246 96.7598 51.7901C97.4027 50.8831 97.8376 49.8084 98.0261 48.6882C98.2471 48.9596 98.4935 49.2011 98.786 49.3791C99.6999 49.9363 100.708 49.7507 101.616 49.2772C101.921 49.1181 102.445 48.8812 102.795 48.5601C102.811 48.5493 102.826 48.5433 102.842 48.5313C103.05 48.3764 103.15 48.1517 103.15 47.9121C103.15 47.9011 103.149 47.8895 103.149 47.8782ZM92.8023 51.2034C91.6584 51.3701 91.0043 50.1686 91.2518 49.0662C91.405 48.3842 91.8196 47.7774 92.1944 47.2179C92.6492 46.5401 93.1089 45.866 93.5659 45.1898C94.0203 44.5172 94.4746 43.8443 94.9287 43.1716C94.9644 43.1186 95.0004 43.0655 95.0361 43.0125C95.3907 43.7396 95.7447 44.4671 96.103 45.1919C96.244 45.6272 96.3003 46.0944 96.2823 46.5531C96.2036 48.5611 94.7696 50.9168 92.8023 51.2034Z" fill="#FFAFBE"/>
<path d="M108.484 42.1836C108.471 42.0374 108.412 41.8961 108.286 41.7653C108.249 41.7169 108.21 41.6697 108.167 41.6246C107.689 41.1233 107.201 40.6331 106.718 40.1374C105.752 39.1463 104.786 38.1548 103.819 37.1635C101.869 35.1618 99.9174 33.1598 97.9665 31.1582C97.0004 30.1667 96.0342 29.1754 95.068 28.1841C94.5826 27.6861 94.0973 27.188 93.6119 26.69C93.369 26.4407 93.1284 26.1883 92.8829 25.9418C92.7104 25.7689 92.5391 25.6164 92.2935 25.5984C91.7609 25.5595 91.4045 26.1802 91.082 26.5443C90.7675 26.8998 90.3179 27.2774 90.4755 27.8334C90.5418 28.0672 90.7233 28.2236 90.8816 28.386C91.1417 28.6529 91.4019 28.9198 91.6619 29.1866C92.1449 29.6825 92.6281 30.1781 93.1111 30.6738C95.062 32.6758 97.013 34.6777 98.9639 36.6795C100.897 38.6633 102.831 40.6474 104.764 42.6312C105.234 43.1131 105.687 43.6628 106.196 44.0947C106.592 44.4305 106.995 44.3076 107.326 43.9506C107.57 43.6873 108.044 43.2617 108.305 42.8149C108.345 42.7674 108.382 42.7167 108.41 42.6606C108.496 42.493 108.512 42.3339 108.484 42.1836Z" fill="#FFAFBE"/>
<path d="M61.1815 75C53.273 75 45.3003 73.6324 37.4845 70.9355C30.6811 68.5878 23.9946 65.1907 18.1479 61.1111C12.8135 57.3893 8.27422 53.1945 5.02085 48.9808C1.73621 44.7262 0 40.7564 0 37.5001C0 34.2436 1.73621 30.2737 5.02085 26.019C8.27422 21.8054 12.8135 17.6107 18.1479 13.8887C23.9946 9.80933 30.6811 6.41233 37.4845 4.06451C45.3003 1.36735 53.273 0 61.1815 0C69.0901 0 77.063 1.36735 84.8786 4.06451C91.682 6.41233 98.3685 9.80933 104.215 13.8887C109.55 17.6107 114.089 21.8054 117.342 26.019C120.627 30.2737 122.363 34.2436 122.363 37.5001C122.363 40.7564 120.627 44.7262 117.342 48.9808C114.089 53.1945 109.55 57.3893 104.215 61.1111C98.3685 65.1907 91.682 68.5878 84.8786 70.9355C77.063 73.6324 69.0901 75 61.1815 75ZM61.1815 3.00798C53.5627 3.00798 45.8764 4.32734 38.3366 6.92928C31.7648 9.19678 25.3089 12.4763 19.6663 16.4133C14.5655 19.9724 10.2437 23.9593 7.16838 27.9424C4.34681 31.5972 2.79281 34.9915 2.79281 37.5001C2.79281 40.0086 4.34681 43.4028 7.16838 47.0574C10.2437 51.0408 14.5655 55.0276 19.6663 58.5865C25.3089 62.5235 31.7648 65.8032 38.3366 68.0709C45.8764 70.6727 53.5627 71.9918 61.1815 71.9918C68.8004 71.9918 76.4868 70.6727 84.0267 68.0709C90.5983 65.8032 97.0542 62.5235 102.697 58.5865C107.798 55.0276 112.119 51.0408 115.195 47.0574C118.016 43.4028 119.57 40.0086 119.57 37.5001C119.57 34.9915 118.016 31.5972 115.195 27.9424C112.119 23.9593 107.798 19.9724 102.697 16.4133C97.0542 12.4763 90.5983 9.19678 84.0267 6.92928C76.4868 4.32734 68.8004 3.00798 61.1815 3.00798Z" fill="#FFAFBE"/>
<path d="M159.25 37.073C159.25 37.1235 159.237 37.1739 159.207 37.2106C159.177 37.2519 159.122 37.2886 159.046 37.3115C158.965 37.339 158.862 37.362 158.731 37.3757C158.603 37.3895 158.437 37.3939 158.237 37.3939C158.007 37.3939 157.815 37.3848 157.671 37.3664C157.526 37.3482 157.407 37.3252 157.313 37.2931C157.224 37.261 157.155 37.2197 157.117 37.1739C157.075 37.1235 157.045 37.0686 157.028 37.0043L155.836 33.8731C155.687 33.4695 155.529 33.1258 155.359 32.8324C155.189 32.5434 154.993 32.3052 154.768 32.1264C154.546 31.9475 154.295 31.8192 154.01 31.7366C153.729 31.6586 153.41 31.6174 153.044 31.6174H152.175V37.0593C152.175 37.1052 152.154 37.1464 152.111 37.1923C152.069 37.2381 152.009 37.2747 151.924 37.2977C151.839 37.3252 151.733 37.3482 151.596 37.3664C151.464 37.3848 151.311 37.3939 151.137 37.3939C150.958 37.3939 150.805 37.3848 150.673 37.3664C150.536 37.3482 150.43 37.3252 150.345 37.2977C150.26 37.2747 150.2 37.2381 150.162 37.1923C150.123 37.1464 150.107 37.1005 150.107 37.0593V24.7727C150.107 24.7314 150.123 24.6856 150.162 24.6488C150.2 24.6076 150.26 24.571 150.345 24.548C150.43 24.5205 150.536 24.4977 150.673 24.4839C150.805 24.47 150.958 24.4655 151.137 24.4655C151.311 24.4655 151.464 24.47 151.596 24.4839C151.733 24.4977 151.839 24.5205 151.924 24.548C152.009 24.571 152.069 24.6076 152.111 24.6488C152.154 24.6856 152.175 24.7314 152.175 24.7773V29.8569H153.044C153.354 29.8569 153.644 29.8203 153.904 29.7424C154.163 29.6644 154.401 29.5407 154.614 29.3663C154.832 29.1877 155.023 28.963 155.189 28.6833C155.359 28.4036 155.517 28.069 155.657 27.6746L156.696 24.8826C156.713 24.8092 156.743 24.7496 156.781 24.6947C156.824 24.6397 156.887 24.5938 156.968 24.5617C157.053 24.5251 157.164 24.4977 157.3 24.4839C157.437 24.47 157.619 24.4655 157.845 24.4655C158.041 24.4655 158.207 24.47 158.335 24.4839C158.462 24.4977 158.564 24.5205 158.637 24.548C158.705 24.571 158.752 24.6076 158.777 24.6488C158.803 24.6856 158.816 24.7314 158.816 24.7727C158.816 24.8551 158.807 24.9422 158.786 25.0293C158.764 25.121 158.735 25.2219 158.692 25.3411L157.619 28.0048C157.453 28.454 157.275 28.83 157.079 29.1372C156.883 29.4397 156.687 29.6965 156.487 29.8982C156.292 30.1 156.087 30.2558 155.879 30.3704C155.674 30.4805 155.474 30.5676 155.283 30.6317V30.6591C155.572 30.7646 155.84 30.8931 156.087 31.0443C156.334 31.2003 156.56 31.3882 156.772 31.6083C156.985 31.833 157.181 32.0989 157.364 32.4105C157.547 32.7176 157.717 33.0706 157.879 33.4742L159.114 36.5367C159.148 36.5963 159.169 36.656 159.186 36.7109C159.203 36.7612 159.216 36.8164 159.224 36.8623C159.233 36.9126 159.241 36.9538 159.246 36.9859C159.25 37.0181 159.25 37.0456 159.25 37.073ZM167.056 37.3115L165.562 41.7631C165.511 41.9053 165.384 42.0152 165.179 42.0932C164.979 42.171 164.669 42.2078 164.251 42.2078C164.034 42.2078 163.86 42.1987 163.728 42.1757C163.596 42.1528 163.494 42.1116 163.421 42.0611C163.353 42.0061 163.315 41.9328 163.306 41.8457C163.298 41.754 163.319 41.6485 163.366 41.5202L164.915 37.3115C164.839 37.2747 164.766 37.2153 164.702 37.1373C164.634 37.0547 164.588 36.9722 164.566 36.8805L160.561 25.3273C160.493 25.1394 160.463 24.9881 160.463 24.8826C160.463 24.7727 160.493 24.69 160.561 24.626C160.629 24.5617 160.735 24.5205 160.884 24.4977C161.033 24.4746 161.233 24.4655 161.485 24.4655C161.731 24.4655 161.927 24.47 162.072 24.4839C162.212 24.4977 162.323 24.5251 162.408 24.5617C162.489 24.5938 162.549 24.6488 162.587 24.7131C162.625 24.7818 162.664 24.8735 162.706 24.9881L165.911 34.689H165.95L169.04 24.9377C169.091 24.7634 169.151 24.6534 169.223 24.6076C169.291 24.5573 169.398 24.5205 169.538 24.4977C169.683 24.4746 169.887 24.4655 170.151 24.4655C170.385 24.4655 170.577 24.4746 170.726 24.4977C170.875 24.5205 170.985 24.5617 171.053 24.626C171.126 24.69 171.16 24.7727 171.16 24.8826C171.16 24.9881 171.134 25.1257 171.087 25.2861L167.056 37.3115ZM181.912 36.9768C181.912 37.0502 181.895 37.1098 181.861 37.1601C181.827 37.206 181.776 37.2519 181.699 37.2886C181.627 37.3206 181.52 37.3482 181.389 37.3664C181.257 37.3848 181.09 37.3939 180.89 37.3939C180.682 37.3939 180.512 37.3848 180.38 37.3664C180.248 37.3482 180.141 37.3206 180.06 37.2886C179.984 37.2519 179.929 37.206 179.894 37.1601C179.86 37.1098 179.843 37.0502 179.843 36.9768V26.4185H176.753C176.621 27.8397 176.459 29.105 176.272 30.2146C176.085 31.324 175.876 32.2913 175.642 33.1165C175.408 33.9373 175.144 34.6341 174.855 35.198C174.565 35.7618 174.246 36.2158 173.901 36.5596C173.552 36.9035 173.177 37.151 172.773 37.3024C172.373 37.4535 171.939 37.5315 171.483 37.5315C171.407 37.5315 171.343 37.5178 171.288 37.4903C171.236 37.4628 171.19 37.4169 171.155 37.3436C171.126 37.2747 171.1 37.1739 171.083 37.0409C171.066 36.9126 171.058 36.7475 171.058 36.5412C171.058 36.3258 171.062 36.1516 171.075 36.0186C171.087 35.8857 171.109 35.7755 171.138 35.6977C171.168 35.6151 171.207 35.5648 171.249 35.5373C171.296 35.5098 171.351 35.4959 171.419 35.4959C171.696 35.4959 171.956 35.4272 172.207 35.2898C172.454 35.1475 172.688 34.9184 172.905 34.6019C173.122 34.2857 173.326 33.8684 173.518 33.355C173.705 32.8368 173.88 32.2042 174.042 31.4525C174.199 30.7006 174.348 29.8203 174.488 28.8116C174.629 27.8075 174.765 26.6477 174.889 25.3411C174.906 25.0707 174.965 24.8735 175.072 24.7405C175.174 24.6122 175.323 24.548 175.514 24.548H181.278C181.474 24.548 181.631 24.6122 181.742 24.7452C181.857 24.8735 181.912 25.0707 181.912 25.3411V36.9768ZM195.712 36.9906C195.712 37.0547 195.695 37.1143 195.661 37.1648C195.627 37.2197 195.576 37.261 195.499 37.2931C195.427 37.3252 195.32 37.3482 195.188 37.3664C195.057 37.3848 194.89 37.3939 194.69 37.3939C194.49 37.3939 194.324 37.3848 194.192 37.3664C194.06 37.3482 193.95 37.3252 193.869 37.2931C193.784 37.261 193.728 37.2197 193.694 37.1648C193.66 37.1098 193.643 37.0547 193.643 36.9906V30.0311C193.643 29.6781 193.652 29.3251 193.669 28.9583C193.686 28.5962 193.707 28.2432 193.733 27.8902C193.541 28.2523 193.328 28.6007 193.103 28.9492C192.873 29.293 192.643 29.6369 192.413 29.9761L187.658 36.9906C187.599 37.0639 187.548 37.1236 187.501 37.1785C187.454 37.2335 187.395 37.2747 187.326 37.3068C187.254 37.339 187.165 37.362 187.054 37.3757C186.948 37.3895 186.811 37.3939 186.654 37.3939C186.471 37.3939 186.318 37.3848 186.203 37.3664C186.083 37.3482 185.99 37.3252 185.922 37.2931C185.849 37.261 185.798 37.2197 185.769 37.1648C185.739 37.1098 185.726 37.0547 185.726 36.9906V24.8689C185.726 24.8048 185.739 24.7496 185.769 24.6947C185.798 24.6397 185.854 24.5938 185.934 24.5617C186.011 24.5251 186.118 24.4977 186.254 24.4839C186.386 24.47 186.547 24.4655 186.743 24.4655C187.143 24.4655 187.42 24.4977 187.569 24.5664C187.718 24.6351 187.795 24.7359 187.795 24.8689V31.8695C187.795 32.2179 187.786 32.5665 187.769 32.9102C187.752 33.2588 187.731 33.598 187.705 33.9418C187.897 33.598 188.093 33.2679 188.288 32.9377C188.48 32.6124 188.693 32.2913 188.914 31.9797L193.733 24.8689C193.78 24.7955 193.831 24.7359 193.886 24.6856C193.941 24.6351 194.005 24.5938 194.086 24.5664C194.163 24.5342 194.256 24.5158 194.367 24.5021C194.473 24.4884 194.614 24.4793 194.788 24.4793C194.963 24.4793 195.112 24.4884 195.231 24.5021C195.354 24.5158 195.448 24.5389 195.52 24.5754C195.589 24.6122 195.64 24.6534 195.669 24.7084C195.699 24.7634 195.712 24.823 195.712 24.8963V36.9906ZM209.363 36.9768C209.363 37.0502 209.346 37.1098 209.312 37.1601C209.278 37.206 209.227 37.2519 209.15 37.2886C209.074 37.3206 208.972 37.3482 208.835 37.3664C208.703 37.3848 208.537 37.3939 208.337 37.3939C208.124 37.3939 207.954 37.3848 207.822 37.3664C207.686 37.3482 207.584 37.3206 207.507 37.2886C207.431 37.2519 207.38 37.206 207.345 37.1601C207.312 37.1098 207.294 37.0502 207.294 36.9768V31.6725H201.599V36.9768C201.599 37.0502 201.582 37.1098 201.548 37.1601C201.514 37.206 201.463 37.2519 201.386 37.2886C201.31 37.3206 201.207 37.3482 201.071 37.3664C200.939 37.3848 200.769 37.3939 200.56 37.3939C200.356 37.3939 200.19 37.3848 200.058 37.3664C199.922 37.3482 199.816 37.3206 199.739 37.2886C199.658 37.2519 199.603 37.206 199.573 37.1601C199.543 37.1098 199.53 37.0502 199.53 36.9768V24.8826C199.53 24.8092 199.543 24.7496 199.573 24.6993C199.603 24.6535 199.658 24.6076 199.739 24.5664C199.816 24.5251 199.922 24.4977 200.058 24.4839C200.19 24.47 200.356 24.4655 200.56 24.4655C200.769 24.4655 200.939 24.47 201.071 24.4839C201.207 24.4977 201.31 24.5251 201.386 24.5664C201.463 24.6076 201.514 24.6535 201.548 24.6993C201.582 24.7496 201.599 24.8092 201.599 24.8826V29.802H207.294V24.8826C207.294 24.8092 207.312 24.7496 207.345 24.6993C207.38 24.6535 207.431 24.6076 207.507 24.5664C207.584 24.5251 207.686 24.4977 207.822 24.4839C207.954 24.47 208.124 24.4655 208.337 24.4655C208.537 24.4655 208.703 24.47 208.835 24.4839C208.972 24.4977 209.074 24.5251 209.15 24.5664C209.227 24.6076 209.278 24.6535 209.312 24.6993C209.346 24.7496 209.363 24.8092 209.363 24.8826V36.9768ZM221.639 36.9906C221.639 37.0961 221.605 37.1785 221.542 37.2335C221.473 37.2886 221.384 37.3252 221.265 37.3527C221.15 37.3802 220.98 37.3939 220.754 37.3939C220.541 37.3939 220.367 37.3802 220.239 37.3527C220.111 37.3252 220.018 37.2886 219.958 37.2335C219.898 37.1785 219.869 37.1005 219.869 36.9906V35.7802C219.379 36.3442 218.834 36.7843 218.23 37.0961C217.625 37.4032 216.987 37.559 216.314 37.559C215.723 37.559 215.186 37.4766 214.71 37.3115C214.233 37.1464 213.824 36.9035 213.488 36.5917C213.152 36.2799 212.888 35.8903 212.7 35.4365C212.513 34.978 212.42 34.4599 212.42 33.8777C212.42 33.1945 212.547 32.6031 212.807 32.1033C213.062 31.5992 213.433 31.1819 213.918 30.8517C214.399 30.5217 214.99 30.2695 215.689 30.1045C216.387 29.9394 217.174 29.8569 218.047 29.8569H219.596V28.9125C219.596 28.4495 219.549 28.0369 219.46 27.6746C219.366 27.3171 219.221 27.0191 219.017 26.7806C218.813 26.5422 218.549 26.3636 218.225 26.2443C217.902 26.1205 217.502 26.0609 217.029 26.0609C216.523 26.0609 216.067 26.1251 215.667 26.2581C215.263 26.391 214.91 26.5331 214.607 26.6935C214.305 26.854 214.05 26.9962 213.845 27.1292C213.645 27.2622 213.492 27.3262 213.394 27.3262C213.326 27.3262 213.267 27.3078 213.22 27.2713C213.169 27.2391 213.126 27.1842 213.088 27.1108C213.05 27.0421 213.024 26.9504 213.007 26.8403C212.99 26.7257 212.981 26.6064 212.981 26.4688C212.981 26.2488 212.994 26.0701 213.024 25.9416C213.054 25.8133 213.126 25.6895 213.237 25.5749C213.347 25.4603 213.543 25.3227 213.816 25.1623C214.088 25.0065 214.407 24.8598 214.765 24.7268C215.118 24.5985 215.51 24.4884 215.935 24.4013C216.357 24.3142 216.787 24.2729 217.217 24.2729C218.021 24.2729 218.706 24.3691 219.273 24.5664C219.839 24.7634 220.294 25.057 220.643 25.4375C220.992 25.818 221.243 26.2902 221.401 26.854C221.558 27.418 221.639 28.0781 221.639 28.83V36.9906ZM219.596 31.4525H217.838C217.276 31.4525 216.787 31.5028 216.37 31.6083C215.957 31.7091 215.612 31.8649 215.335 32.0668C215.063 32.2684 214.863 32.5069 214.731 32.791C214.603 33.0753 214.539 33.4008 214.539 33.7676C214.539 34.3956 214.722 34.8953 215.093 35.2667C215.463 35.6381 215.978 35.8261 216.646 35.8261C217.183 35.8261 217.685 35.6794 218.145 35.3813C218.604 35.0879 219.09 34.634 219.596 34.0244V31.4525ZM235.737 30.7325C235.737 31.7915 235.631 32.7407 235.418 33.5843C235.209 34.4231 234.899 35.1384 234.486 35.7252C234.077 36.312 233.567 36.7659 232.962 37.0823C232.358 37.3986 231.664 37.559 230.885 37.559C230.553 37.559 230.246 37.5224 229.965 37.4535C229.68 37.3802 229.408 37.2702 229.135 37.1143C228.867 36.9631 228.599 36.7705 228.335 36.5367C228.067 36.3074 227.786 36.0324 227.488 35.7206V41.7768C227.488 41.8502 227.471 41.9098 227.437 41.9647C227.403 42.0199 227.352 42.0657 227.275 42.1023C227.198 42.1344 227.096 42.1619 226.96 42.1803C226.828 42.1987 226.658 42.2078 226.449 42.2078C226.245 42.2078 226.079 42.1987 225.947 42.1803C225.811 42.1619 225.705 42.1344 225.628 42.1023C225.547 42.0657 225.492 42.0199 225.462 41.9647C225.432 41.9098 225.419 41.8502 225.419 41.7768V24.8826C225.419 24.8001 225.432 24.7359 225.458 24.6856C225.483 24.6397 225.534 24.5938 225.607 24.5617C225.683 24.5251 225.777 24.4977 225.896 24.4839C226.011 24.47 226.156 24.4655 226.322 24.4655C226.496 24.4655 226.641 24.47 226.756 24.4839C226.867 24.4977 226.96 24.5251 227.037 24.5573C227.113 24.5938 227.165 24.6397 227.194 24.6856C227.224 24.7359 227.237 24.8001 227.237 24.8826V26.501C227.577 26.1251 227.905 25.7996 228.22 25.5199C228.535 25.2449 228.854 25.0156 229.174 24.8323C229.493 24.6488 229.821 24.5067 230.157 24.415C230.493 24.3188 230.846 24.2729 231.221 24.2729C232.034 24.2729 232.724 24.4425 233.298 24.7818C233.869 25.1257 234.337 25.5886 234.699 26.1801C235.06 26.7715 235.324 27.4592 235.49 28.2432C235.657 29.027 235.737 29.8569 235.737 30.7325ZM233.592 30.9893C233.592 30.3704 233.549 29.7698 233.46 29.1921C233.375 28.6146 233.222 28.101 233.013 27.6518C232.8 27.2025 232.515 26.8449 232.158 26.5743C231.8 26.3039 231.353 26.171 230.821 26.171C230.553 26.171 230.293 26.2122 230.034 26.2993C229.778 26.3864 229.514 26.5194 229.246 26.7028C228.982 26.8861 228.701 27.1292 228.412 27.4317C228.122 27.7342 227.811 28.1056 227.488 28.5457V33.355C228.054 34.1022 228.59 34.6708 229.097 35.0695C229.608 35.4639 230.14 35.661 230.698 35.661C231.213 35.661 231.655 35.528 232.026 35.2576C232.396 34.9871 232.694 34.6294 232.924 34.1802C233.154 33.731 233.32 33.2313 233.43 32.672C233.537 32.1171 233.592 31.5533 233.592 30.9893ZM248.669 36.9768C248.669 37.0502 248.652 37.1098 248.618 37.1601C248.584 37.206 248.533 37.2519 248.456 37.2886C248.38 37.3206 248.277 37.3482 248.141 37.3664C248.009 37.3848 247.843 37.3939 247.643 37.3939C247.43 37.3939 247.26 37.3848 247.128 37.3664C246.992 37.3482 246.89 37.3206 246.813 37.2886C246.736 37.2519 246.685 37.206 246.651 37.1601C246.617 37.1098 246.6 37.0502 246.6 36.9768V31.6725H240.905V36.9768C240.905 37.0502 240.888 37.1098 240.854 37.1601C240.82 37.206 240.769 37.2519 240.692 37.2886C240.615 37.3206 240.513 37.3482 240.377 37.3664C240.245 37.3848 240.075 37.3939 239.866 37.3939C239.662 37.3939 239.496 37.3848 239.364 37.3664C239.228 37.3482 239.121 37.3206 239.045 37.2886C238.964 37.2519 238.908 37.206 238.879 37.1601C238.849 37.1098 238.836 37.0502 238.836 36.9768V24.8826C238.836 24.8092 238.849 24.7496 238.879 24.6993C238.908 24.6535 238.964 24.6076 239.045 24.5664C239.121 24.5251 239.228 24.4977 239.364 24.4839C239.496 24.47 239.662 24.4655 239.866 24.4655C240.075 24.4655 240.245 24.47 240.377 24.4839C240.513 24.4977 240.615 24.5251 240.692 24.5664C240.769 24.6076 240.82 24.6535 240.854 24.6993C240.888 24.7496 240.905 24.8092 240.905 24.8826V29.802H246.6V24.8826C246.6 24.8092 246.617 24.7496 246.651 24.6993C246.685 24.6535 246.736 24.6076 246.813 24.5664C246.89 24.5251 246.992 24.4977 247.128 24.4839C247.26 24.47 247.43 24.4655 247.643 24.4655C247.843 24.4655 248.009 24.47 248.141 24.4839C248.277 24.4977 248.38 24.5251 248.456 24.5664C248.533 24.6076 248.584 24.6535 248.618 24.6993C248.652 24.7496 248.669 24.8092 248.669 24.8826V36.9768ZM260.945 36.9906C260.945 37.0961 260.911 37.1785 260.847 37.2335C260.779 37.2886 260.69 37.3252 260.571 37.3527C260.456 37.3802 260.285 37.3939 260.06 37.3939C259.847 37.3939 259.673 37.3802 259.545 37.3527C259.417 37.3252 259.323 37.2886 259.264 37.2335C259.204 37.1785 259.174 37.1005 259.174 36.9906V35.7802C258.685 36.3442 258.14 36.7843 257.536 37.0961C256.931 37.4032 256.293 37.559 255.62 37.559C255.029 37.559 254.492 37.4766 254.015 37.3115C253.539 37.1464 253.13 36.9035 252.794 36.5917C252.457 36.2799 252.194 35.8903 252.006 35.4365C251.819 34.978 251.725 34.4599 251.725 33.8777C251.725 33.1945 251.853 32.6031 252.113 32.1033C252.368 31.5992 252.738 31.1819 253.224 30.8517C253.705 30.5217 254.296 30.2695 254.994 30.1045C255.692 29.9394 256.48 29.8569 257.353 29.8569H258.902V28.9125C258.902 28.4495 258.855 28.0369 258.766 27.6746C258.672 27.3171 258.527 27.0191 258.323 26.7806C258.119 26.5422 257.855 26.3636 257.531 26.2443C257.208 26.1205 256.808 26.0609 256.335 26.0609C255.829 26.0609 255.373 26.1251 254.973 26.2581C254.569 26.391 254.215 26.5331 253.913 26.6935C253.611 26.854 253.356 26.9962 253.151 27.1292C252.951 27.2622 252.798 27.3262 252.7 27.3262C252.632 27.3262 252.572 27.3078 252.526 27.2713C252.475 27.2391 252.432 27.1842 252.394 27.1108C252.355 27.0421 252.33 26.9504 252.313 26.8403C252.296 26.7257 252.287 26.6064 252.287 26.4688C252.287 26.2488 252.3 26.0701 252.33 25.9416C252.36 25.8133 252.432 25.6895 252.543 25.5749C252.653 25.4603 252.849 25.3227 253.122 25.1623C253.394 25.0065 253.713 24.8598 254.071 24.7268C254.424 24.5985 254.816 24.4884 255.241 24.4013C255.663 24.3142 256.093 24.2729 256.522 24.2729C257.327 24.2729 258.012 24.3691 258.579 24.5664C259.145 24.7634 259.6 25.057 259.949 25.4375C260.298 25.818 260.549 26.2902 260.707 26.854C260.864 27.418 260.945 28.0781 260.945 28.83V36.9906ZM258.902 31.4525H257.144C256.582 31.4525 256.093 31.5028 255.675 31.6083C255.263 31.7091 254.918 31.8649 254.641 32.0668C254.369 32.2684 254.169 32.5069 254.037 32.791C253.909 33.0753 253.845 33.4008 253.845 33.7676C253.845 34.3956 254.028 34.8953 254.399 35.2667C254.769 35.6381 255.284 35.8261 255.952 35.8261C256.489 35.8261 256.991 35.6794 257.45 35.3813C257.91 35.0879 258.395 34.634 258.902 34.0244V31.4525ZM273 36.9768C273 37.0502 272.987 37.1098 272.958 37.1648C272.928 37.2197 272.877 37.261 272.8 37.2931C272.723 37.3252 272.621 37.3482 272.485 37.3664C272.353 37.3848 272.179 37.3939 271.961 37.3939C271.757 37.3939 271.591 37.3848 271.459 37.3664C271.323 37.3482 271.216 37.3252 271.14 37.2931C271.059 37.261 271.004 37.2197 270.974 37.1648C270.944 37.1143 270.931 37.0502 270.931 36.9768V31.8926H269.748C269.233 31.8926 268.833 31.9383 268.543 32.0255C268.258 32.1171 267.999 32.2638 267.773 32.4747C267.543 32.6857 267.339 32.9561 267.156 33.2816C266.973 33.6071 266.798 34.006 266.632 34.4827L265.721 36.8439C265.679 36.9585 265.636 37.0546 265.585 37.1235C265.534 37.1969 265.462 37.2519 265.368 37.2931C265.274 37.3343 265.151 37.362 265.006 37.3757C264.861 37.3895 264.683 37.3939 264.466 37.3939C264.312 37.3939 264.172 37.3895 264.053 37.3802C263.933 37.3711 263.831 37.3573 263.746 37.3343C263.665 37.3115 263.601 37.2747 263.563 37.2244C263.521 37.1785 263.499 37.1143 263.499 37.0456C263.499 36.9813 263.521 36.8805 263.567 36.7431C263.614 36.6054 263.708 36.3626 263.848 36.014L264.746 33.7448C264.981 33.1717 265.266 32.6764 265.606 32.2638C265.947 31.8467 266.338 31.5396 266.781 31.3423C265.972 31.1819 265.334 30.8335 264.853 30.3017C264.376 29.7652 264.138 29.0592 264.138 28.179C264.138 27.5968 264.248 27.0696 264.474 26.5973C264.7 26.1251 265.027 25.7262 265.466 25.4007C265.9 25.0707 266.436 24.8185 267.075 24.6444C267.709 24.47 268.437 24.3829 269.263 24.3829C269.459 24.3829 269.693 24.3875 269.952 24.3966C270.216 24.4059 270.484 24.4197 270.761 24.438C271.042 24.4562 271.31 24.4746 271.574 24.4977C271.834 24.5205 272.059 24.5389 272.251 24.5573C272.502 24.5847 272.689 24.6809 272.813 24.8551C272.936 25.0248 273 25.2356 273 25.4833V36.9768ZM270.931 26.171C270.633 26.1251 270.327 26.093 270.012 26.0792C269.701 26.0655 269.412 26.0609 269.144 26.0609C268.582 26.0609 268.113 26.1114 267.739 26.2169C267.36 26.3177 267.062 26.4688 266.832 26.6614C266.607 26.854 266.445 27.0833 266.351 27.3446C266.253 27.6012 266.206 27.8902 266.206 28.2064C266.206 28.5273 266.262 28.8209 266.372 29.0776C266.487 29.3344 266.653 29.5498 266.883 29.724C267.109 29.8982 267.403 30.0358 267.756 30.1275C268.113 30.2237 268.607 30.2696 269.246 30.2696H270.931V26.171ZM159.326 60.3412C159.326 60.4146 159.309 60.4742 159.275 60.5245C159.241 60.5704 159.19 60.6163 159.114 60.653C159.041 60.685 158.935 60.7126 158.803 60.7308C158.671 60.7492 158.505 60.7583 158.305 60.7583C158.096 60.7583 157.926 60.7492 157.794 60.7308C157.662 60.7126 157.556 60.685 157.475 60.653C157.398 60.6163 157.343 60.5704 157.309 60.5245C157.275 60.4742 157.258 60.4146 157.258 60.3412V49.7829H154.167C154.035 51.2041 153.874 52.4694 153.686 53.579C153.499 54.6884 153.29 55.6557 153.056 56.4809C152.822 57.3017 152.558 57.9985 152.269 58.5624C151.979 59.1262 151.66 59.5802 151.315 59.924C150.966 60.2679 150.592 60.5154 150.187 60.6668C149.787 60.8179 149.353 60.8959 148.898 60.8959C148.821 60.8959 148.757 60.8822 148.702 60.8547C148.651 60.8272 148.604 60.7814 148.57 60.708C148.54 60.6391 148.515 60.5383 148.498 60.4053C148.481 60.277 148.472 60.1119 148.472 59.9056C148.472 59.6902 148.476 59.516 148.489 59.383C148.502 59.2501 148.523 59.14 148.553 59.0622C148.583 58.9795 148.621 58.9292 148.663 58.9017C148.71 58.8742 148.766 58.8603 148.834 58.8603C149.111 58.8603 149.37 58.7916 149.621 58.6542C149.868 58.5119 150.102 58.2828 150.319 57.9663C150.536 57.6501 150.741 57.2328 150.932 56.7193C151.12 56.2012 151.294 55.5686 151.456 54.8169C151.613 54.065 151.762 53.1847 151.903 52.176C152.043 51.1719 152.18 50.0121 152.303 48.7055C152.32 48.4351 152.38 48.2379 152.486 48.1049C152.588 47.9766 152.737 47.9124 152.929 47.9124H158.692C158.888 47.9124 159.046 47.9766 159.156 48.1096C159.271 48.2379 159.326 48.4351 159.326 48.7055V60.3412ZM171.594 60.355C171.594 60.4605 171.56 60.5429 171.496 60.5979C171.428 60.653 171.339 60.6896 171.219 60.7171C171.104 60.7446 170.934 60.7583 170.709 60.7583C170.496 60.7583 170.321 60.7446 170.194 60.7171C170.066 60.6896 169.972 60.653 169.913 60.5979C169.853 60.5429 169.823 60.4649 169.823 60.355V59.1446C169.334 59.7086 168.789 60.1487 168.184 60.4605C167.58 60.7676 166.941 60.9234 166.269 60.9234C165.677 60.9234 165.141 60.841 164.664 60.6759C164.187 60.5108 163.779 60.2679 163.443 59.9561C163.106 59.6443 162.842 59.2547 162.655 58.8009C162.468 58.3424 162.374 57.8243 162.374 57.2421C162.374 56.5589 162.502 55.9675 162.761 55.4677C163.017 54.9636 163.387 54.5463 163.872 54.2161C164.354 53.8861 164.945 53.634 165.643 53.4689C166.341 53.3038 167.129 53.2213 168.002 53.2213H169.551V52.2769C169.551 51.8139 169.504 51.4013 169.415 51.039C169.321 50.6815 169.176 50.3835 168.972 50.145C168.768 49.9066 168.504 49.728 168.18 49.6087C167.857 49.4849 167.456 49.4253 166.984 49.4253C166.478 49.4253 166.022 49.4895 165.622 49.6225C165.217 49.7554 164.864 49.8975 164.562 50.0579C164.26 50.2184 164.004 50.3606 163.8 50.4936C163.6 50.6266 163.447 50.6906 163.349 50.6906C163.281 50.6906 163.221 50.6722 163.174 50.6356C163.123 50.6035 163.081 50.5486 163.042 50.4752C163.004 50.4065 162.979 50.3148 162.962 50.2046C162.945 50.0901 162.936 49.9708 162.936 49.8332C162.936 49.6132 162.949 49.4346 162.979 49.3061C163.008 49.1777 163.081 49.0539 163.191 48.9393C163.302 48.8247 163.498 48.6871 163.77 48.5267C164.043 48.3709 164.362 48.2242 164.72 48.0912C165.073 47.9629 165.464 47.8528 165.89 47.7657C166.311 47.6786 166.741 47.6373 167.171 47.6373C167.976 47.6373 168.661 47.7335 169.227 47.9308C169.793 48.1278 170.249 48.4214 170.598 48.8019C170.947 49.1824 171.198 49.6546 171.356 50.2184C171.513 50.7824 171.594 51.4425 171.594 52.1944V60.355ZM169.551 54.8169H167.793C167.231 54.8169 166.741 54.8672 166.324 54.9727C165.911 55.0735 165.567 55.2293 165.29 55.4312C165.017 55.6328 164.817 55.8713 164.685 56.1554C164.558 56.4397 164.494 56.7652 164.494 57.132C164.494 57.76 164.677 58.2597 165.047 58.6311C165.418 59.0025 165.933 59.1905 166.601 59.1905C167.137 59.1905 167.64 59.0438 168.099 58.7457C168.559 58.4523 169.044 57.9985 169.551 57.3888V54.8169Z" fill="#FFAFBE"/>
<path d="M184.594 56.8613C184.594 57.4986 184.483 58.067 184.258 58.5623C184.032 59.062 183.7 59.4746 183.257 59.8139C182.819 60.1485 182.27 60.4052 181.614 60.5796C180.955 60.7537 180.188 60.8408 179.316 60.8408C179.043 60.8408 178.775 60.8408 178.52 60.8362C178.26 60.8315 178.009 60.8224 177.771 60.8087C177.528 60.795 177.29 60.7766 177.051 60.7582C176.817 60.7444 176.579 60.7216 176.349 60.6941C176.013 60.6483 175.77 60.529 175.612 60.3365C175.455 60.1439 175.374 59.8598 175.374 59.4837V49.0767C175.374 48.71 175.451 48.4257 175.604 48.2287C175.757 48.0315 175.996 47.9169 176.311 47.8801C176.528 47.8526 176.757 47.8298 177.004 47.8114C177.247 47.7977 177.498 47.7793 177.758 47.7655C178.017 47.7518 178.281 47.7427 178.558 47.7334C178.83 47.7243 179.107 47.7197 179.392 47.7197C180.201 47.7197 180.899 47.793 181.487 47.9353C182.078 48.0773 182.568 48.2883 182.959 48.5633C183.351 48.843 183.64 49.1822 183.828 49.5856C184.015 49.9891 184.109 50.4476 184.109 50.9655C184.109 51.6441 183.938 52.2264 183.602 52.7124C183.266 53.1937 182.768 53.5376 182.112 53.7438C182.934 53.9319 183.555 54.294 183.973 54.8305C184.385 55.3714 184.594 56.0453 184.594 56.8613ZM182.117 51.2545C182.117 50.9611 182.065 50.6998 181.968 50.4658C181.865 50.2366 181.704 50.0394 181.474 49.879C181.244 49.7185 180.946 49.5993 180.584 49.5169C180.222 49.4389 179.784 49.3976 179.265 49.3976C178.873 49.3976 178.516 49.4067 178.192 49.4298C177.864 49.4526 177.592 49.4801 177.366 49.5031V53.2487H179.465C180.325 53.2487 180.98 53.0791 181.436 52.7352C181.891 52.3913 182.117 51.8962 182.117 51.2545ZM182.474 56.8934C182.474 56.5359 182.415 56.2195 182.3 55.9491C182.185 55.6739 181.997 55.4492 181.746 55.2706C181.491 55.0917 181.167 54.9588 180.771 54.8671C180.38 54.78 179.912 54.7341 179.371 54.7341H177.366V59.0161C177.524 59.0436 177.69 59.062 177.86 59.0758C178.03 59.0895 178.205 59.1032 178.383 59.117C178.562 59.1307 178.737 59.1398 178.916 59.1491C179.094 59.1582 179.26 59.1628 179.409 59.1628C179.95 59.1628 180.41 59.1123 180.793 59.007C181.176 58.906 181.491 58.7549 181.746 58.5576C181.997 58.3604 182.185 58.1222 182.3 57.8425C182.415 57.5582 182.474 57.242 182.474 56.8934ZM196.751 60.4373C196.751 60.4878 196.738 60.5381 196.708 60.5749C196.679 60.6161 196.623 60.6529 196.547 60.6757C196.466 60.7032 196.364 60.7262 196.232 60.74C196.104 60.7537 195.938 60.7582 195.738 60.7582C195.508 60.7582 195.316 60.7491 195.172 60.7307C195.027 60.7125 194.908 60.6895 194.814 60.6573C194.725 60.6252 194.657 60.584 194.618 60.5381C194.576 60.4878 194.546 60.4328 194.529 60.3686L193.337 57.2373C193.188 56.8338 193.031 56.4901 192.86 56.1967C192.69 55.9077 192.494 55.6695 192.269 55.4906C192.047 55.3118 191.796 55.1835 191.511 55.1009C191.23 55.0229 190.911 54.9816 190.545 54.9816H189.676V60.4236C189.676 60.4694 189.655 60.5106 189.613 60.5565C189.57 60.6024 189.51 60.639 189.425 60.662C189.34 60.6895 189.234 60.7125 189.098 60.7307C188.966 60.7491 188.812 60.7582 188.638 60.7582C188.459 60.7582 188.306 60.7491 188.174 60.7307C188.038 60.7125 187.931 60.6895 187.846 60.662C187.761 60.639 187.701 60.6024 187.663 60.5565C187.625 60.5106 187.608 60.4648 187.608 60.4236V48.1369C187.608 48.0957 187.625 48.0498 187.663 48.0131C187.701 47.9718 187.761 47.9353 187.846 47.9122C187.931 47.8847 188.038 47.8619 188.174 47.8482C188.306 47.8342 188.459 47.8298 188.638 47.8298C188.812 47.8298 188.966 47.8342 189.098 47.8482C189.234 47.8619 189.34 47.8847 189.425 47.9122C189.51 47.9353 189.57 47.9718 189.613 48.0131C189.655 48.0498 189.676 48.0957 189.676 48.1416V53.2212H190.545C190.856 53.2212 191.145 53.1846 191.405 53.1066C191.664 53.0286 191.903 52.9049 192.115 52.7306C192.333 52.5519 192.524 52.3272 192.69 52.0476C192.86 51.7679 193.018 51.4333 193.158 51.0388L194.197 48.2469C194.214 48.1735 194.244 48.1139 194.282 48.0589C194.325 48.004 194.389 47.9581 194.469 47.926C194.555 47.8894 194.665 47.8619 194.801 47.8482C194.938 47.8342 195.121 47.8298 195.346 47.8298C195.542 47.8298 195.708 47.8342 195.836 47.8482C195.964 47.8619 196.066 47.8847 196.138 47.9122C196.206 47.9353 196.253 47.9718 196.278 48.0131C196.304 48.0498 196.317 48.0957 196.317 48.1369C196.317 48.2194 196.308 48.3065 196.287 48.3936C196.266 48.4853 196.236 48.5861 196.193 48.7054L195.121 51.369C194.955 51.8182 194.776 52.1943 194.58 52.5014C194.384 52.8039 194.189 53.0608 193.988 53.2624C193.793 53.4643 193.588 53.6201 193.38 53.7346C193.175 53.8448 192.975 53.9319 192.784 53.9959V54.0234C193.073 54.1289 193.341 54.2574 193.588 54.4086C193.835 54.5645 194.061 54.7525 194.274 54.9725C194.486 55.1972 194.682 55.4631 194.865 55.7747C195.048 56.0819 195.219 56.4349 195.38 56.8384L196.615 59.901C196.649 59.9606 196.67 60.0202 196.687 60.0752C196.704 60.1255 196.717 60.1807 196.725 60.2265C196.734 60.2769 196.742 60.3181 196.747 60.3502C196.751 60.3823 196.751 60.4098 196.751 60.4373ZM207.533 60.3548C207.533 60.4603 207.499 60.5428 207.435 60.5977C207.367 60.6529 207.277 60.6895 207.158 60.717C207.043 60.7444 206.873 60.7582 206.647 60.7582C206.435 60.7582 206.26 60.7444 206.132 60.717C206.005 60.6895 205.911 60.6529 205.852 60.5977C205.792 60.5428 205.762 60.4648 205.762 60.3548V59.1445C205.273 59.7084 204.728 60.1485 204.123 60.4603C203.519 60.7675 202.88 60.9233 202.208 60.9233C201.616 60.9233 201.08 60.8408 200.603 60.6757C200.126 60.5106 199.718 60.2677 199.382 59.956C199.045 59.6442 198.781 59.2546 198.594 58.8007C198.407 58.3422 198.313 57.8241 198.313 57.242C198.313 56.5588 198.441 55.9673 198.7 55.4676C198.956 54.9634 199.326 54.5462 199.811 54.216C200.292 53.886 200.884 53.6338 201.582 53.4687C202.28 53.3036 203.068 53.2212 203.94 53.2212H205.49V52.2767C205.49 51.8138 205.443 51.4011 205.353 51.0388C205.26 50.6814 205.115 50.3833 204.911 50.1449C204.706 49.9065 204.443 49.7278 204.119 49.6086C203.796 49.4847 203.395 49.4251 202.923 49.4251C202.416 49.4251 201.961 49.4894 201.561 49.6223C201.156 49.7553 200.803 49.8974 200.501 50.0578C200.199 50.2182 199.943 50.3605 199.739 50.4935C199.539 50.6264 199.386 50.6905 199.288 50.6905C199.22 50.6905 199.16 50.6721 199.113 50.6355C199.062 50.6034 199.02 50.5484 198.981 50.4751C198.943 50.4064 198.918 50.3146 198.9 50.2045C198.883 50.0899 198.875 49.9707 198.875 49.8331C198.875 49.613 198.888 49.4344 198.918 49.3059C198.947 49.1776 199.02 49.0537 199.13 48.9392C199.241 48.8246 199.437 48.687 199.709 48.5265C199.982 48.3707 200.301 48.224 200.658 48.0911C201.012 47.9627 201.403 47.8526 201.829 47.7655C202.25 47.6784 202.68 47.6372 203.11 47.6372C203.915 47.6372 204.6 47.7334 205.166 47.9306C205.732 48.1276 206.188 48.4212 206.537 48.8017C206.886 49.1822 207.137 49.6545 207.295 50.2182C207.452 50.7822 207.533 51.4424 207.533 52.1943V60.3548ZM205.49 54.8167H203.732C203.17 54.8167 202.68 54.867 202.263 54.9725C201.85 55.0734 201.506 55.2292 201.229 55.431C200.956 55.6327 200.756 55.8711 200.624 56.1552C200.497 56.4396 200.433 56.7651 200.433 57.1318C200.433 57.7599 200.616 58.2596 200.986 58.631C201.357 59.0024 201.872 59.1903 202.54 59.1903C203.076 59.1903 203.578 59.0436 204.038 58.7456C204.498 58.4522 204.983 57.9983 205.49 57.3887V54.8167Z" fill="#FFAFBE"/>
</svg>
