<svg width="305" height="75" viewBox="0 0 305 75" fill="none" xmlns="http://www.w3.org/2000/svg">
<path d="M33.874 24.1117C32.3242 22.4658 30.4936 21.0716 28.3662 20.4627C26.2047 19.8439 23.9606 20.167 21.9827 21.2711C19.8686 22.4515 18.1331 24.3166 16.3633 25.9971C15.9667 26.3739 15.57 26.7504 15.1736 27.1272C14.9513 27.2927 14.7538 27.5255 14.5698 27.6999C14.203 28.0479 13.6614 28.391 13.8066 29.0016C13.8613 29.231 14.0054 29.3935 14.1471 29.567C14.3847 29.8571 14.6223 30.1474 14.8598 30.4377C15.301 30.9771 15.7423 31.5161 16.1834 32.0551C17.9484 34.2117 19.7132 36.3681 21.4783 38.5245C23.2609 40.703 25.0436 42.8813 26.8264 45.0596C27.2645 45.5951 27.6791 46.195 28.1583 46.687C28.4676 47.0048 28.8907 46.9638 29.2115 46.687C29.4025 46.5223 29.5838 46.3415 29.7662 46.1641C29.8253 46.1097 29.8828 46.0542 29.9392 45.999C30.0907 45.8606 30.2706 45.7232 30.4039 45.5556C30.7768 45.2014 31.1497 44.8474 31.5225 44.4935C32.035 44.0069 32.5475 43.5201 33.06 43.0334C33.2879 42.8172 33.5155 42.6008 33.7436 42.3847C33.8943 42.2414 34.0913 42.0969 34.2339 41.9221C34.9985 41.295 35.6656 40.386 36.2309 39.5679C36.8437 38.6811 37.3513 37.7109 37.7049 36.6718C38.449 34.4854 38.3297 32.1286 37.5691 29.9668C36.7854 27.74 35.4404 25.7748 33.874 24.1117ZM28.9879 42.7812C28.0886 41.6821 27.189 40.5832 26.2898 39.4843C24.5249 37.3277 22.7599 35.1711 20.9951 33.0147C20.1127 31.9364 19.2302 30.8581 18.3477 29.7798C18.1091 29.4882 17.8704 29.1965 17.6316 28.905C18.2738 28.2948 18.9146 27.6831 19.557 27.0732C20.4133 26.2605 21.2726 25.45 22.2332 24.7807C23.1353 24.1523 24.1209 23.6476 25.1872 23.4535C26.327 23.2462 27.5037 23.4527 28.5547 23.957C30.5994 24.9375 32.3285 26.8793 33.577 28.8427C34.8456 30.8381 35.5849 33.2316 34.8532 35.6087C34.161 37.8576 32.4976 39.4603 30.8976 40.9788C30.2625 41.5815 29.6275 42.1839 28.9924 42.7866C28.991 42.7849 28.9896 42.7829 28.9879 42.7812Z" fill="#FFB7A7"/>
<path d="M45.9953 35.2845C46.1346 35.2518 46.2753 35.1984 46.41 35.1421C46.9171 34.9299 47.4009 34.6584 47.8461 34.3209C48.8846 33.5332 49.704 32.4348 50.1951 31.1877C50.3427 31.4834 50.5166 31.7603 50.7383 31.9986C51.5286 32.8478 52.628 32.8656 53.655 32.597C53.9576 32.5179 54.469 32.413 54.8571 32.2037C54.8675 32.2003 54.8765 32.1995 54.8873 32.1954C55.0684 32.1267 55.2061 31.9918 55.2884 31.8236C55.3595 31.7031 55.3915 31.5631 55.3691 31.4C55.3685 31.3917 55.3694 31.3835 55.3687 31.3754C55.3409 31.088 55.2284 30.7973 55.1552 30.5199C55.0785 30.2285 55.0348 29.8799 54.8945 29.6136C54.3462 28.5741 53.0395 30.1362 52.6481 29.0806C52.4057 28.4266 52.2826 27.6958 52.104 27.0187C51.9119 26.2909 51.7198 25.5632 51.5277 24.8355C51.1692 23.4778 50.86 22.0935 50.446 20.7542C50.0965 19.6241 49.5937 18.5341 48.7669 17.7201C47.2767 16.2527 45.1953 16.0593 43.3144 16.6239C41.4242 17.1909 39.7004 18.4499 38.6152 20.2237C38.3405 20.6727 38.115 21.1529 37.9331 21.6534C37.7843 22.0629 37.5362 22.6304 37.7279 23.0641C37.8424 23.3232 38.0605 23.4397 38.2833 23.5781C38.5894 23.7684 38.8932 23.9634 39.2018 24.149C39.5712 24.3712 40.0364 24.4295 40.316 24.0064C40.4474 23.8074 40.4679 23.5456 40.5304 23.3166C40.6127 23.0159 40.7157 22.7223 40.844 22.4409C41.0938 21.8935 41.4212 21.3932 41.8282 20.9686C42.63 20.1323 43.7903 19.562 44.9103 19.5089C46.0679 19.454 46.9031 20.0811 47.3809 21.1898C47.485 21.4316 47.5759 21.6822 47.6589 21.9371C47.237 22.3187 46.8284 22.7244 46.4116 23.1032C45.8081 23.652 45.2046 24.2009 44.6025 24.7513C43.5306 25.7314 42.3827 26.6705 41.5186 27.8774C40.7957 28.8867 40.2769 30.1035 40.3335 31.4029C40.385 32.5908 40.8652 33.8041 41.7299 34.5663C42.5257 35.2679 43.5572 35.5506 44.573 35.5202C44.929 35.5096 45.5466 35.4802 45.9953 35.2845ZM48.9394 28.625C48.6612 29.8145 47.9331 30.8966 47.0061 31.6016C46.2142 32.2043 44.9148 32.7834 43.9682 32.2475C43.1638 31.7925 43.2384 30.6039 43.5939 29.8521C43.8688 29.271 44.3441 28.8236 44.7901 28.3966C45.3881 27.8249 45.9926 27.2606 46.5935 26.6925C47.1895 26.1291 47.7852 25.5656 48.3813 25.002C48.3998 24.9846 48.4183 24.9669 48.4368 24.9495C48.6208 25.6765 48.8055 26.4028 48.9919 27.129C49.042 27.6356 49.0612 28.1044 48.9394 28.625Z" fill="#FFB7A7"/>
<path d="M55.6822 10.2596C55.7185 10.621 55.6881 11.0977 55.881 11.4129C56.081 11.7402 56.3902 11.7915 56.7253 11.7592C57.1945 11.7141 57.7192 11.7044 58.1769 11.5844C58.2524 11.5647 58.321 11.5331 58.385 11.4948C58.4046 11.4838 58.4202 11.4687 58.4384 11.4557C58.5036 11.4083 58.5609 11.3516 58.608 11.2834C58.6116 11.278 58.6165 11.2736 58.62 11.2678C58.6481 11.2248 58.6698 11.1758 58.69 11.1251C58.6912 11.1213 58.6928 11.1178 58.6943 11.1139C58.7031 11.0905 58.716 11.0706 58.7228 11.0454C58.7313 11.015 58.7324 10.9858 58.7374 10.9558C58.7392 10.9471 58.7401 10.9382 58.7417 10.9293C58.7476 10.889 58.7543 10.8486 58.7546 10.8093C58.7606 10.7307 58.7618 10.6504 58.7543 10.5677C58.6644 9.58786 58.6156 9.26214 58.5176 8.28322C58.4831 7.93523 58.4756 7.58899 58.2082 7.34803C57.9153 7.08443 57.5586 7.17558 57.2093 7.21603C56.596 7.28706 55.5327 7.18856 55.4713 8.10168C55.4413 8.54566 55.5523 9.04091 55.5963 9.48353C55.6439 9.95945 55.6348 9.78353 55.6822 10.2596Z" fill="#FFB7A7"/>
<path d="M58.9285 13.9852C58.6366 13.6527 58.2456 13.7452 57.8659 13.7893C57.4478 13.8377 56.9096 13.7955 56.5304 14.0032C56.1757 14.1975 56.1135 14.5615 56.1427 14.9521C56.225 16.0553 56.363 17.1573 56.4731 18.2577C56.6988 20.5165 56.9245 22.7759 57.1502 25.0347C57.2769 26.302 57.4034 27.5691 57.5301 28.8364C57.5962 29.4975 57.6622 30.1586 57.7283 30.82C57.7703 31.2417 57.8332 31.6698 58.2569 31.8291C58.4605 31.9055 58.669 31.8627 58.8778 31.8385C59.1833 31.8031 59.4884 31.7679 59.7937 31.7325C59.975 31.7116 60.1545 31.6928 60.3114 31.6276C60.315 31.6264 60.318 31.6245 60.3215 31.6231C60.3646 31.6046 60.4055 31.5815 60.4444 31.5546C60.4589 31.5451 60.4731 31.5362 60.4868 31.5258C60.4911 31.5221 60.495 31.5173 60.4994 31.5134C60.5385 31.4815 60.577 31.448 60.61 31.4066C60.8048 31.161 60.7757 30.8747 60.7459 30.5755C60.688 29.9968 60.6304 29.4185 60.5725 28.84C60.4568 27.6829 60.341 26.5257 60.2253 25.3687C59.9996 23.1099 59.7737 20.8509 59.5479 18.592C59.435 17.4623 59.3222 16.333 59.2091 15.2033C59.1693 14.8056 59.203 14.2979 58.9285 13.9852Z" fill="#FFB7A7"/>
<path d="M64.5287 31.6813C64.8601 31.7094 65.1915 31.7402 65.5232 31.7648C65.7135 31.7789 65.8937 31.7878 66.0646 31.6813C66.2567 31.5615 66.3652 31.3426 66.3913 31.1116C66.3986 31.0794 66.4112 31.0506 66.4157 31.0171C66.5119 30.297 66.5239 29.5516 66.5765 28.8259C66.6802 27.3931 66.7837 25.9599 66.8874 24.527C67.0989 21.6059 67.3102 19.0539 67.5217 16.1328C67.6274 14.6724 67.7332 13.2117 67.8389 11.7511C67.8908 11.0311 67.9429 10.3116 67.9951 9.59179C68.0213 9.23142 68.0538 8.87085 68.0734 8.51009C68.0869 8.26198 68.0788 8.05045 67.925 7.85091C67.5857 7.41177 66.8932 7.50427 66.4227 7.46498C65.9456 7.42511 65.4218 7.30629 65.1582 7.84917C65.0443 8.08393 65.0545 8.37191 65.036 8.62913C65.0082 9.01485 64.9801 9.40057 64.9523 9.78649C64.9004 10.503 64.8486 11.2194 64.7967 11.9359C64.5853 14.8572 64.3738 17.7781 64.1625 20.6992C63.953 23.5949 63.7435 26.1214 63.534 29.0171C63.5077 29.3777 63.4817 29.7382 63.4556 30.0986C63.4342 30.3943 63.3537 30.7522 63.4186 31.0442C63.5433 31.6059 64.0919 31.645 64.5287 31.6813Z" fill="#FFB7A7"/>
<path d="M68.6689 40.7916C70.5311 41.0722 72.1726 40.1692 73.385 38.687C74.1352 37.7702 76.2432 34.6732 76.8879 33.6709C77.6308 32.5164 78.3753 31.3629 79.1192 30.2093C80.6191 27.8843 82.1189 25.5591 83.6186 23.2341C84.3676 22.0731 85.1167 20.9121 85.8655 19.751C86.1318 19.3382 86.5223 18.9207 86.2869 18.3924C86.07 17.9045 85.5149 17.8822 85.0811 17.7721C84.6414 17.6606 84.0288 17.3571 83.6008 17.6523C83.417 17.7788 83.3048 18.0005 83.1852 18.1892C82.9983 18.4845 82.8112 18.7792 82.6243 19.0742C81.8906 20.2312 81.1566 21.3878 80.4229 22.5446C78.9613 24.8498 77.5021 27.1568 76.0531 29.4713C75.8234 27.5406 75.5837 25.6114 75.3307 23.6843C75.1507 22.3119 74.9666 20.9403 74.7821 19.5687C74.6055 18.2548 74.4707 16.9248 74.252 15.6184C74.1629 15.0861 73.8793 14.9363 73.4159 14.8192C73.1215 14.7449 72.8276 14.6704 72.5334 14.5959C72.2815 14.5322 71.9963 14.4132 71.7345 14.4765C71.424 14.5512 71.2076 14.8417 71.1692 15.1757C71.1392 15.4351 71.2092 15.7088 71.2448 15.9642C71.2982 16.348 71.3516 16.7316 71.4051 17.115C71.7794 19.8006 72.1535 22.4861 72.5278 25.1714C72.7111 26.4869 72.8944 27.802 73.0777 29.1173L73.3526 31.0916C73.3986 31.4214 73.4446 31.751 73.4905 32.0806C73.532 32.3788 73.5217 32.7549 73.6985 33.0038C73.726 33.0427 73.7571 33.0756 73.7891 33.1062C73.7591 33.1549 73.7298 33.2054 73.6994 33.2532C73.1717 34.0833 71.1242 37.1424 70.2624 37.621C69.3684 38.1173 68.3719 37.6992 67.8256 36.8492C67.602 36.5014 67.4407 36.1114 67.3212 35.7096C67.2024 35.3104 67.0195 34.9314 66.5772 34.8993C66.3138 34.8799 66.1422 35.0346 65.9431 35.1979C65.6816 35.4124 65.4202 35.6264 65.1591 35.8412C64.7848 36.149 64.6193 36.4437 64.7312 36.9566C64.9542 37.9768 65.5294 38.9251 66.2728 39.5934C66.6207 39.9061 67.0029 40.1719 67.415 40.3755C67.7061 40.5191 68.0955 40.7349 68.4488 40.7529C68.5215 40.7682 68.5956 40.7804 68.6689 40.7916Z" fill="#FFB7A7"/>
<path d="M63.7678 44.8921C61.3818 43.8203 58.6297 44.5195 56.9918 46.6837C56.9451 46.7452 56.9025 46.8105 56.8578 46.8737C56.7951 46.6469 56.7191 46.423 56.6263 46.2031C56.1226 45.01 55.1807 44.0864 54.063 43.5836C51.9135 42.6163 49.4829 43.0978 47.8226 44.7789C47.8425 44.6084 47.8621 44.4382 47.882 44.2679C47.9239 43.9068 48.0244 43.5004 47.8457 43.1617C47.6276 42.7477 47.169 42.7744 46.7821 42.7223C46.1553 42.6385 45.1102 42.3076 44.9593 43.2726C44.7845 44.3895 44.6966 45.5308 44.5661 46.6545C44.2977 48.964 44.029 51.2735 43.7606 53.583C43.6136 54.8476 43.4666 56.1123 43.3194 57.3771C43.2459 58.0096 43.1726 58.6419 43.0989 59.2742C43.0551 59.6527 43.0173 60.0648 43.3203 60.3406C43.4935 60.4981 43.7081 60.5024 43.923 60.5314C44.2278 60.5722 44.5323 60.6131 44.8369 60.6539C44.9834 60.6736 45.1246 60.6959 45.2612 60.6955C45.4457 60.7288 45.6376 60.694 45.7954 60.5622C46.0508 60.3485 46.0517 60.0119 46.0889 59.692C46.1561 59.1147 46.2231 58.5372 46.2903 57.9598C46.4243 56.8052 46.5589 55.6503 46.693 54.4957C46.847 53.1711 47.001 51.8467 47.155 50.522C47.1854 50.3776 47.1994 50.2264 47.2254 50.0848C47.2955 49.7039 47.3882 49.3265 47.5101 48.9609C47.7334 48.2897 48.0623 47.6464 48.5201 47.1277C49.4423 46.083 50.8265 45.7576 52.0987 46.1501C52.7226 46.3429 53.2955 46.7311 53.6384 47.3361C54.036 48.0375 54.095 48.8838 54.0599 49.6857C54.0233 50.5283 53.8784 51.3629 53.7812 52.1988C53.6632 53.2127 53.5453 54.2267 53.4274 55.2406C53.3128 56.2269 53.1979 57.2134 53.0835 58.1998C53.026 58.6932 52.9686 59.1865 52.9113 59.6796C52.8612 60.1097 52.7559 60.5726 52.7651 61.0063C52.785 61.9415 53.7636 61.8581 54.3918 61.9425C54.5595 61.9649 54.7316 61.9874 54.897 61.9889C54.9735 62.0098 55.0531 62.0228 55.1368 62.0174C55.8157 61.9723 55.7818 61.124 55.8441 60.5871C55.9593 59.5956 56.0747 58.6043 56.19 57.613C56.4145 55.6821 56.6344 53.7506 56.8641 51.8204C56.8928 51.6803 56.9063 51.5341 56.9316 51.3967C57.0017 51.0168 57.0939 50.6406 57.2145 50.2758C57.4368 49.605 57.7625 48.9595 58.2172 48.4381C59.1377 47.3826 60.5207 47.0613 61.7972 47.4557C62.4238 47.6489 63.0012 48.0371 63.3458 48.645C63.7431 49.3464 63.8021 50.1927 63.7672 50.9946C63.7306 51.8372 63.5857 52.6716 63.4885 53.5077C63.3706 54.5214 63.2526 55.5352 63.1347 56.549C63.02 57.5352 62.9052 58.5217 62.7906 59.5082C62.7333 60.0013 62.6759 60.4944 62.6186 60.9878C62.5687 61.4178 62.463 61.8806 62.4723 62.3145C62.4923 63.2491 63.4705 63.1664 64.0986 63.251C64.266 63.2738 64.4384 63.2961 64.6033 63.2978C64.6801 63.3187 64.7595 63.3317 64.8432 63.3263C65.5221 63.2812 65.4882 62.4329 65.5507 61.896C65.6659 60.9043 65.7812 59.913 65.8964 58.9215C66.1325 56.8898 66.3629 54.8572 66.606 52.8264C66.8166 51.0681 67.0375 49.1805 66.3329 47.5113C65.8289 46.3173 64.8864 45.3947 63.7678 44.8921Z" fill="#FFB7A7"/>
<path d="M84.8077 54.2322C84.4379 53.9109 84.0011 53.3429 83.4832 53.352C82.9531 53.3613 82.8356 53.8225 82.7229 54.2837C82.5864 54.8413 82.3934 55.3809 82.1222 55.8792C80.9301 58.0718 77.9303 58.9596 75.7957 57.9342C74.4205 57.2737 73.6176 55.838 73.151 54.3255C73.1783 54.3185 73.2056 54.3112 73.2329 54.3042C73.9306 54.1308 74.6286 53.9572 75.3263 53.7836C78.1644 53.0779 81.028 52.4443 83.8493 51.6639C84.4009 51.5114 84.574 51.1356 84.5251 50.5449C84.4775 49.9714 84.3808 49.4028 84.2356 48.8487C83.931 47.6852 83.4272 46.5756 82.7477 45.6129C81.3646 43.6537 79.2954 42.569 77.0045 42.6563C75.0286 42.7315 73.0016 43.5746 71.641 45.1498C69.2559 47.9108 69.1673 52.242 70.3952 55.6003C71.1003 57.5293 72.2597 59.307 73.9714 60.3294C74.8884 60.877 75.9102 61.1843 76.9522 61.2818C77.5121 61.3345 78.0769 61.3233 78.6352 61.2567C78.9508 61.2189 79.397 61.213 79.7299 61.0653C79.8897 61.0289 80.0491 60.9695 80.198 60.9197C80.6699 60.7622 81.1314 60.5632 81.5727 60.3244C83.3709 59.3511 84.7001 57.6516 85.3393 55.6026C85.413 55.3661 85.4714 55.1412 85.3973 54.8951C85.3066 54.5949 85.0234 54.4195 84.8077 54.2322ZM79.7438 49.732C78.3242 50.085 76.9046 50.4381 75.4848 50.7913C74.7626 50.9709 74.0404 51.1505 73.3183 51.3303C73.0864 51.3878 72.8546 51.4454 72.623 51.5029C72.5139 49.9112 72.7743 48.302 73.8685 47.1094C75.2178 45.6383 77.6158 45.1572 79.2584 46.3234C80.0304 46.8717 80.582 47.7146 80.9822 48.5987C81.0933 48.8437 81.1917 49.0947 81.2807 49.3498C80.7684 49.4769 80.2561 49.6047 79.7438 49.732Z" fill="#FFB7A7"/>
<path d="M103.149 47.8782C103.147 47.8388 103.143 47.7989 103.136 47.7588C103.134 47.7501 103.133 47.7414 103.131 47.7327C103.118 47.6687 103.1 47.605 103.074 47.5417C102.957 47.2686 102.803 47.0075 102.67 46.7433C102.542 46.489 102.431 46.1767 102.228 45.9796C101.837 45.6007 101.444 45.8283 101.055 46.0629C100.864 46.1784 100.621 46.3493 100.391 46.3253C100.075 46.2924 99.8834 45.8935 99.7475 45.6282C99.1204 44.4058 98.5297 43.158 97.9096 41.9304C97.3222 40.7678 96.7736 39.5716 96.14 38.437C95.5767 37.4279 94.8742 36.4953 93.9159 35.8972C92.0437 34.7288 89.8325 35.1376 88.0426 36.2816C86.3576 37.3586 84.9804 39.0451 84.3775 41.0715C84.2306 41.5654 84.1299 42.0785 84.0798 42.5944C84.0358 43.0466 83.9732 43.6001 84.3856 43.8865C84.6142 44.045 84.9382 44.1002 85.1941 44.1859C85.4787 44.2815 85.7718 44.4141 86.0656 44.4693C86.4514 44.542 86.8609 44.3258 86.9578 43.8943C87.0164 43.6334 86.9827 43.3357 87.009 43.0686C87.0413 42.7375 87.0992 42.4106 87.1856 42.0911C87.3425 41.5128 87.584 40.9668 87.9143 40.4802C88.5598 39.529 89.5969 38.7453 90.6715 38.4916C91.8235 38.2191 92.7315 38.8013 93.3829 39.7963C93.4846 39.9519 93.5765 40.1168 93.6706 40.2793C93.6543 40.3037 93.6381 40.3298 93.6216 40.3536C93.3757 40.7038 93.1296 41.0539 92.8837 41.4038C92.4221 42.0599 91.9607 42.7162 91.5003 43.3733C90.6385 44.6038 89.6828 45.812 89.0268 47.1896C88.4721 48.3538 88.1359 49.6809 88.3953 50.9873C88.6323 52.1793 89.3384 53.3244 90.3429 53.9149C91.2431 54.4439 92.2999 54.5149 93.2882 54.2722C93.6381 54.1861 94.2606 54.0202 94.6915 53.7251C95.044 53.5875 95.3959 53.2486 95.6502 53.0264C96.064 52.665 96.4363 52.246 96.7598 51.7901C97.4027 50.8831 97.8376 49.8084 98.0261 48.6882C98.2471 48.9596 98.4935 49.2011 98.786 49.3791C99.6999 49.9363 100.708 49.7507 101.616 49.2772C101.921 49.1181 102.445 48.8812 102.795 48.5601C102.811 48.5493 102.826 48.5433 102.842 48.5313C103.05 48.3764 103.15 48.1517 103.15 47.9121C103.15 47.9011 103.149 47.8895 103.149 47.8782ZM92.8023 51.2034C91.6584 51.3701 91.0043 50.1686 91.2518 49.0662C91.405 48.3842 91.8196 47.7774 92.1944 47.2179C92.6492 46.5401 93.1089 45.866 93.5659 45.1898C94.0203 44.5172 94.4746 43.8443 94.9287 43.1716C94.9644 43.1186 95.0004 43.0655 95.0361 43.0125C95.3907 43.7396 95.7447 44.4671 96.103 45.1919C96.244 45.6272 96.3003 46.0944 96.2823 46.5531C96.2036 48.5611 94.7696 50.9168 92.8023 51.2034Z" fill="#FFB7A7"/>
<path d="M108.484 42.1836C108.471 42.0374 108.412 41.8961 108.286 41.7653C108.249 41.7169 108.21 41.6697 108.167 41.6246C107.689 41.1233 107.201 40.6331 106.718 40.1374C105.752 39.1463 104.786 38.1548 103.819 37.1635C101.869 35.1618 99.9174 33.1598 97.9665 31.1582C97.0004 30.1667 96.0342 29.1754 95.068 28.1841C94.5826 27.6861 94.0973 27.188 93.6119 26.69C93.369 26.4407 93.1284 26.1883 92.8829 25.9418C92.7104 25.7689 92.5391 25.6164 92.2935 25.5984C91.7609 25.5595 91.4045 26.1802 91.082 26.5443C90.7675 26.8998 90.3179 27.2774 90.4755 27.8334C90.5418 28.0672 90.7233 28.2236 90.8816 28.386C91.1417 28.6529 91.4019 28.9198 91.6619 29.1866C92.1449 29.6825 92.6281 30.1781 93.1111 30.6738C95.062 32.6758 97.013 34.6777 98.9639 36.6795C100.897 38.6633 102.831 40.6474 104.764 42.6312C105.234 43.1131 105.687 43.6628 106.196 44.0947C106.592 44.4305 106.995 44.3076 107.326 43.9506C107.57 43.6873 108.044 43.2617 108.305 42.8149C108.345 42.7674 108.382 42.7167 108.41 42.6606C108.496 42.493 108.512 42.3339 108.484 42.1836Z" fill="#FFB7A7"/>
<path d="M61.1815 75C53.273 75 45.3003 73.6324 37.4845 70.9355C30.6811 68.5878 23.9946 65.1907 18.1479 61.1111C12.8135 57.3893 8.27422 53.1945 5.02085 48.9808C1.73621 44.7262 0 40.7564 0 37.5001C0 34.2436 1.73621 30.2737 5.02085 26.019C8.27422 21.8054 12.8135 17.6107 18.1479 13.8887C23.9946 9.80933 30.6811 6.41233 37.4845 4.06451C45.3003 1.36735 53.273 0 61.1815 0C69.0901 0 77.063 1.36735 84.8786 4.06451C91.682 6.41233 98.3685 9.80933 104.215 13.8887C109.55 17.6107 114.089 21.8054 117.342 26.019C120.627 30.2737 122.363 34.2436 122.363 37.5001C122.363 40.7564 120.627 44.7262 117.342 48.9808C114.089 53.1945 109.55 57.3893 104.215 61.1111C98.3685 65.1907 91.682 68.5878 84.8786 70.9355C77.063 73.6324 69.0901 75 61.1815 75ZM61.1815 3.00798C53.5627 3.00798 45.8764 4.32734 38.3366 6.92928C31.7648 9.19678 25.3089 12.4763 19.6663 16.4133C14.5655 19.9724 10.2437 23.9593 7.16838 27.9424C4.34681 31.5972 2.79281 34.9915 2.79281 37.5001C2.79281 40.0086 4.34681 43.4028 7.16838 47.0574C10.2437 51.0408 14.5655 55.0276 19.6663 58.5865C25.3089 62.5235 31.7648 65.8032 38.3366 68.0709C45.8764 70.6727 53.5627 71.9918 61.1815 71.9918C68.8004 71.9918 76.4868 70.6727 84.0267 68.0709C90.5983 65.8032 97.0542 62.5235 102.697 58.5865C107.798 55.0276 112.119 51.0408 115.195 47.0574C118.016 43.4028 119.57 40.0086 119.57 37.5001C119.57 34.9915 118.016 31.5972 115.195 27.9424C112.119 23.9593 107.798 19.9724 102.697 16.4133C97.0542 12.4763 90.5983 9.19678 84.0267 6.92928C76.4868 4.32734 68.8004 3.00798 61.1815 3.00798Z" fill="#FFB7A7"/>
<path d="M161.588 36.9222C161.588 36.9732 161.572 37.0239 161.535 37.0611C161.497 37.1027 161.427 37.1398 161.331 37.1629C161.229 37.1906 161.1 37.2139 160.934 37.2277C160.773 37.2416 160.563 37.2461 160.311 37.2461C160.021 37.2461 159.78 37.2369 159.597 37.2184C159.415 37.2 159.265 37.1767 159.147 37.1443C159.034 37.1119 158.948 37.0703 158.9 37.024C158.846 36.9732 158.808 36.9177 158.787 36.8528L157.284 33.6917C157.097 33.2843 156.898 32.9373 156.683 32.6411C156.469 32.3494 156.222 32.1089 155.937 31.9283C155.658 31.7478 155.342 31.6182 154.982 31.5348C154.628 31.4561 154.225 31.4144 153.764 31.4144H152.669V36.9083C152.669 36.9546 152.642 36.9962 152.589 37.0425C152.535 37.0888 152.46 37.1257 152.353 37.149C152.245 37.1767 152.111 37.2 151.939 37.2184C151.773 37.2369 151.58 37.2461 151.36 37.2461C151.134 37.2461 150.941 37.2369 150.775 37.2184C150.603 37.2 150.469 37.1767 150.361 37.149C150.254 37.1257 150.179 37.0888 150.131 37.0425C150.082 36.9962 150.061 36.9499 150.061 36.9083V24.5045C150.061 24.4629 150.082 24.4166 150.131 24.3794C150.179 24.3378 150.254 24.3009 150.361 24.2776C150.469 24.2499 150.603 24.2268 150.775 24.213C150.941 24.1989 151.134 24.1944 151.36 24.1944C151.58 24.1944 151.773 24.1989 151.939 24.213C152.111 24.2268 152.245 24.2499 152.353 24.2776C152.46 24.3009 152.535 24.3378 152.589 24.3794C152.642 24.4166 152.669 24.4629 152.669 24.5092V29.6372H153.764C154.156 29.6372 154.521 29.6003 154.848 29.5216C155.175 29.4428 155.476 29.318 155.744 29.1419C156.018 28.9616 156.259 28.7348 156.469 28.4524C156.683 28.1701 156.882 27.8323 157.059 27.4341L158.368 24.6155C158.39 24.5414 158.428 24.4812 158.476 24.4257C158.529 24.3703 158.61 24.3239 158.712 24.2915C158.819 24.2546 158.959 24.2268 159.13 24.213C159.302 24.1989 159.533 24.1944 159.817 24.1944C160.064 24.1944 160.273 24.1989 160.435 24.213C160.596 24.2268 160.724 24.2499 160.816 24.2776C160.901 24.3009 160.96 24.3378 160.993 24.3794C161.025 24.4166 161.041 24.4629 161.041 24.5045C161.041 24.5877 161.03 24.6756 161.003 24.7636C160.976 24.8562 160.939 24.958 160.885 25.0783L159.533 27.7674C159.324 28.2209 159.098 28.6005 158.851 28.9106C158.604 29.216 158.358 29.4753 158.105 29.6789C157.859 29.8826 157.601 30.0399 157.338 30.1556C157.08 30.2668 156.828 30.3547 156.587 30.4194V30.4471C156.952 30.5536 157.29 30.6833 157.601 30.8359C157.912 30.9934 158.197 31.1831 158.465 31.4053C158.733 31.6321 158.98 31.9006 159.211 32.2151C159.442 32.5252 159.656 32.8816 159.86 33.289L161.417 36.3807C161.459 36.4409 161.486 36.5011 161.508 36.5566C161.529 36.6074 161.545 36.6631 161.556 36.7094C161.567 36.7602 161.577 36.8018 161.583 36.8342C161.588 36.8667 161.588 36.8944 161.588 36.9222ZM171.431 37.1629L169.547 41.6569C169.483 41.8005 169.321 41.9115 169.064 41.9902C168.812 42.0688 168.42 42.1059 167.894 42.1059C167.62 42.1059 167.4 42.0967 167.234 42.0735C167.068 42.0504 166.939 42.0088 166.848 41.9578C166.762 41.9023 166.713 41.8283 166.703 41.7403C166.692 41.6477 166.719 41.5413 166.778 41.4117L168.731 37.1629C168.635 37.1258 168.544 37.0658 168.463 36.987C168.377 36.9036 168.318 36.8204 168.291 36.7277L163.241 25.0644C163.155 24.8747 163.118 24.7219 163.118 24.6155C163.118 24.5045 163.155 24.4211 163.241 24.3564C163.327 24.2915 163.461 24.2499 163.649 24.2268C163.837 24.2036 164.089 24.1944 164.406 24.1944C164.717 24.1944 164.964 24.1989 165.146 24.213C165.324 24.2268 165.463 24.2546 165.57 24.2915C165.672 24.3239 165.747 24.3794 165.796 24.4443C165.844 24.5137 165.892 24.6063 165.946 24.722L169.987 34.5154H170.035L173.931 24.6711C173.996 24.4951 174.071 24.3841 174.162 24.3378C174.248 24.287 174.382 24.2499 174.559 24.2268C174.742 24.2036 174.999 24.1944 175.332 24.1944C175.627 24.1944 175.869 24.2036 176.057 24.2268C176.244 24.2499 176.384 24.2915 176.47 24.3564C176.561 24.4211 176.604 24.5045 176.604 24.6155C176.604 24.7219 176.572 24.8609 176.513 25.0228L171.431 37.1629ZM190.16 36.8251C190.16 36.8991 190.138 36.9593 190.096 37.0101C190.053 37.0564 189.988 37.1027 189.892 37.1398C189.8 37.172 189.666 37.2 189.5 37.2184C189.333 37.2369 189.124 37.2461 188.872 37.2461C188.609 37.2461 188.394 37.2369 188.228 37.2184C188.062 37.2 187.928 37.172 187.826 37.1398C187.729 37.1027 187.659 37.0564 187.616 37.0101C187.573 36.9593 187.552 36.8991 187.552 36.8251V26.166H183.656C183.489 27.6008 183.285 28.8782 183.049 29.9983C182.813 31.1183 182.55 32.0948 182.255 32.9279C181.96 33.7565 181.627 34.4599 181.262 35.0293C180.897 35.5984 180.495 36.0568 180.06 36.4038C179.62 36.751 179.148 37.0009 178.638 37.1537C178.133 37.3063 177.586 37.385 177.012 37.385C176.915 37.385 176.835 37.3711 176.765 37.3434C176.701 37.3157 176.642 37.2693 176.599 37.1953C176.561 37.1257 176.529 37.024 176.507 36.8897C176.486 36.7602 176.475 36.5935 176.475 36.3852C176.475 36.1678 176.481 35.9919 176.497 35.8577C176.513 35.7235 176.54 35.6123 176.577 35.5337C176.615 35.4503 176.663 35.3995 176.717 35.3718C176.776 35.344 176.845 35.33 176.931 35.33C177.28 35.33 177.608 35.2606 177.924 35.1219C178.235 34.9783 178.531 34.7469 178.804 34.4275C179.078 34.1082 179.336 33.687 179.577 33.1686C179.813 32.6456 180.033 32.0069 180.237 31.248C180.436 30.4889 180.623 29.6003 180.801 28.582C180.978 27.5683 181.15 26.3974 181.305 25.0783C181.327 24.8054 181.402 24.6063 181.536 24.4721C181.665 24.3425 181.853 24.2776 182.094 24.2776H189.36C189.607 24.2776 189.806 24.3425 189.945 24.4767C190.09 24.6063 190.16 24.8054 190.16 25.0783V36.8251ZM207.558 36.8389C207.558 36.9036 207.537 36.9638 207.494 37.0148C207.451 37.0703 207.387 37.1119 207.29 37.1443C207.199 37.1767 207.065 37.2 206.898 37.2184C206.732 37.2369 206.523 37.2461 206.271 37.2461C206.018 37.2461 205.809 37.2369 205.642 37.2184C205.476 37.2 205.337 37.1767 205.235 37.1443C205.127 37.1119 205.058 37.0703 205.015 37.0148C204.972 36.9593 204.95 36.9036 204.95 36.8389V29.8131C204.95 29.4567 204.961 29.1003 204.983 28.7301C205.004 28.3645 205.031 28.0081 205.063 27.6517C204.821 28.0173 204.553 28.369 204.269 28.7209C203.979 29.0679 203.689 29.4151 203.399 29.7576L197.405 36.8389C197.33 36.913 197.265 36.9732 197.206 37.0286C197.147 37.0841 197.072 37.1258 196.986 37.1582C196.895 37.1906 196.782 37.2139 196.643 37.2277C196.509 37.2416 196.337 37.2461 196.138 37.2461C195.908 37.2461 195.714 37.2369 195.57 37.2184C195.419 37.2 195.301 37.1767 195.215 37.1443C195.124 37.1119 195.06 37.0703 195.022 37.0148C194.985 36.9593 194.969 36.9036 194.969 36.8389V24.6016C194.969 24.5369 194.985 24.4812 195.022 24.4257C195.06 24.3703 195.129 24.3239 195.231 24.2915C195.328 24.2546 195.462 24.2268 195.634 24.213C195.8 24.1989 196.004 24.1944 196.251 24.1944C196.756 24.1944 197.104 24.2268 197.292 24.2962C197.48 24.3656 197.577 24.4674 197.577 24.6016V31.669C197.577 32.0207 197.566 32.3726 197.544 32.7196C197.523 33.0715 197.496 33.414 197.464 33.761C197.705 33.414 197.952 33.0807 198.199 32.7474C198.441 32.4189 198.709 32.0948 198.988 31.7802L205.063 24.6016C205.122 24.5275 205.186 24.4674 205.256 24.4166C205.326 24.3656 205.406 24.324 205.508 24.2962C205.605 24.2638 205.723 24.2452 205.863 24.2313C205.997 24.2175 206.174 24.2083 206.394 24.2083C206.614 24.2083 206.802 24.2175 206.952 24.2313C207.108 24.2452 207.226 24.2685 207.317 24.3054C207.403 24.3425 207.467 24.3841 207.505 24.4396C207.542 24.4951 207.558 24.5553 207.558 24.6293V36.8389ZM224.769 36.8251C224.769 36.8991 224.748 36.9593 224.705 37.0101C224.662 37.0564 224.597 37.1027 224.501 37.1398C224.404 37.172 224.276 37.2 224.104 37.2184C223.937 37.2369 223.728 37.2461 223.476 37.2461C223.208 37.2461 222.993 37.2369 222.826 37.2184C222.655 37.2 222.526 37.172 222.429 37.1398C222.333 37.1027 222.268 37.0564 222.225 37.0101C222.183 36.9593 222.161 36.8991 222.161 36.8251V31.4701H214.981V36.8251C214.981 36.8991 214.959 36.9593 214.916 37.0101C214.873 37.0564 214.809 37.1027 214.712 37.1398C214.616 37.172 214.487 37.2 214.315 37.2184C214.149 37.2369 213.934 37.2461 213.671 37.2461C213.413 37.2461 213.204 37.2369 213.038 37.2184C212.866 37.2 212.732 37.172 212.635 37.1398C212.533 37.1027 212.464 37.0564 212.426 37.0101C212.389 36.9593 212.372 36.8991 212.372 36.8251V24.6155C212.372 24.5414 212.389 24.4812 212.426 24.4304C212.464 24.3841 212.533 24.3378 212.635 24.2962C212.732 24.2546 212.866 24.2268 213.038 24.213C213.204 24.1989 213.413 24.1944 213.671 24.1944C213.934 24.1944 214.149 24.1989 214.315 24.213C214.487 24.2268 214.616 24.2546 214.712 24.2962C214.809 24.3378 214.873 24.3841 214.916 24.4304C214.959 24.4812 214.981 24.5414 214.981 24.6155V29.5817H222.161V24.6155C222.161 24.5414 222.183 24.4812 222.225 24.4304C222.268 24.3841 222.333 24.3378 222.429 24.2962C222.526 24.2546 222.655 24.2268 222.826 24.213C222.993 24.1989 223.208 24.1944 223.476 24.1944C223.728 24.1944 223.937 24.1989 224.104 24.213C224.276 24.2268 224.404 24.2546 224.501 24.2962C224.597 24.3378 224.662 24.3841 224.705 24.4304C224.748 24.4812 224.769 24.5414 224.769 24.6155V36.8251ZM240.246 36.8389C240.246 36.9454 240.204 37.0286 240.123 37.0841C240.037 37.1398 239.925 37.1767 239.774 37.2045C239.629 37.2322 239.415 37.2461 239.13 37.2461C238.862 37.2461 238.642 37.2322 238.481 37.2045C238.32 37.1767 238.202 37.1398 238.127 37.0841C238.052 37.0286 238.014 36.9499 238.014 36.8389V35.617C237.397 36.1863 236.71 36.6306 235.948 36.9454C235.186 37.2555 234.381 37.4128 233.533 37.4128C232.787 37.4128 232.111 37.3295 231.51 37.1629C230.909 36.9962 230.394 36.751 229.97 36.4362C229.546 36.1215 229.213 35.7282 228.977 35.27C228.741 34.8071 228.623 34.2841 228.623 33.6963C228.623 33.0066 228.783 32.4095 229.111 31.9051C229.433 31.3961 229.9 30.9748 230.512 30.6415C231.118 30.3084 231.864 30.0538 232.744 29.8871C233.624 29.7205 234.617 29.6372 235.717 29.6372H237.671V28.6838C237.671 28.2164 237.611 27.7998 237.499 27.4341C237.381 27.0732 237.198 26.7723 236.941 26.5316C236.683 26.2909 236.35 26.1106 235.942 25.9902C235.535 25.8651 235.03 25.805 234.435 25.805C233.796 25.805 233.222 25.8698 232.717 26.0041C232.207 26.1383 231.762 26.2817 231.381 26.4437C231 26.6057 230.678 26.7493 230.42 26.8835C230.168 27.0177 229.975 27.0824 229.851 27.0824C229.766 27.0824 229.691 27.0638 229.631 27.0269C229.567 26.9945 229.513 26.939 229.465 26.8649C229.417 26.7956 229.385 26.703 229.363 26.5918C229.342 26.4761 229.331 26.3558 229.331 26.2168C229.331 25.9947 229.347 25.8143 229.385 25.6846C229.422 25.5551 229.513 25.43 229.653 25.3143C229.792 25.1987 230.039 25.0598 230.383 24.8978C230.726 24.7405 231.129 24.5924 231.58 24.4582C232.025 24.3286 232.519 24.2175 233.055 24.1295C233.587 24.0416 234.129 24 234.671 24C235.685 24 236.549 24.0971 237.263 24.2962C237.976 24.4951 238.551 24.7915 238.991 25.1756C239.431 25.5598 239.747 26.0365 239.946 26.6057C240.145 27.175 240.246 27.8415 240.246 28.6005V36.8389ZM237.671 31.248H235.454C234.746 31.248 234.129 31.2988 233.603 31.4053C233.082 31.5071 232.647 31.6644 232.299 31.8681C231.955 32.0717 231.703 32.3124 231.536 32.5993C231.376 32.8863 231.295 33.2149 231.295 33.5852C231.295 34.2192 231.526 34.7237 231.993 35.0986C232.46 35.4736 233.109 35.6633 233.952 35.6633C234.628 35.6633 235.261 35.5152 235.841 35.2143C236.42 34.9181 237.032 34.4599 237.671 33.8444V31.248ZM258.021 30.5212C258.021 31.5903 257.887 32.5485 257.618 33.4002C257.355 34.247 256.964 34.9691 256.443 35.5615C255.928 36.1539 255.284 36.6121 254.522 36.9315C253.76 37.2508 252.885 37.4128 251.903 37.4128C251.484 37.4128 251.098 37.3758 250.744 37.3063C250.384 37.2322 250.041 37.1213 249.697 36.9638C249.359 36.8112 249.021 36.6168 248.688 36.3807C248.35 36.1492 247.996 35.8716 247.62 35.5568V41.6708C247.62 41.7448 247.599 41.805 247.556 41.8605C247.513 41.9162 247.449 41.9625 247.352 41.9994C247.255 42.0318 247.127 42.0596 246.955 42.0782C246.788 42.0967 246.574 42.1059 246.311 42.1059C246.053 42.1059 245.844 42.0967 245.678 42.0782C245.506 42.0596 245.372 42.0318 245.275 41.9994C245.173 41.9625 245.103 41.9162 245.066 41.8605C245.028 41.805 245.012 41.7448 245.012 41.6708V24.6155C245.012 24.5322 245.028 24.4674 245.06 24.4166C245.093 24.3703 245.157 24.3239 245.248 24.2915C245.345 24.2546 245.463 24.2268 245.613 24.213C245.758 24.1989 245.941 24.1944 246.15 24.1944C246.37 24.1944 246.552 24.1989 246.697 24.213C246.837 24.2268 246.955 24.2546 247.051 24.287C247.148 24.324 247.213 24.3703 247.25 24.4166C247.287 24.4674 247.304 24.5322 247.304 24.6155V26.2493C247.733 25.8698 248.146 25.5412 248.543 25.2589C248.94 24.9812 249.343 24.7497 249.746 24.5647C250.148 24.3794 250.561 24.236 250.985 24.1434C251.409 24.0463 251.855 24 252.327 24C253.352 24 254.221 24.1712 254.946 24.5137C255.665 24.8609 256.255 25.3282 256.711 25.9253C257.167 26.5224 257.5 27.2166 257.71 28.0081C257.919 28.7994 258.021 29.6372 258.021 30.5212ZM255.316 30.7804C255.316 30.1556 255.262 29.5493 255.15 28.9661C255.042 28.3831 254.849 27.8645 254.586 27.411C254.318 26.9575 253.958 26.5965 253.507 26.3233C253.057 26.0504 252.493 25.9161 251.822 25.9161C251.484 25.9161 251.157 25.9578 250.83 26.0457C250.507 26.1336 250.175 26.2678 249.837 26.4531C249.504 26.6381 249.15 26.8835 248.785 27.1889C248.42 27.4943 248.028 27.8692 247.62 28.3135V33.1686C248.334 33.923 249.01 34.497 249.649 34.8995C250.293 35.2977 250.964 35.4966 251.667 35.4966C252.316 35.4966 252.874 35.3624 253.341 35.0895C253.808 34.8163 254.184 34.4552 254.473 34.0017C254.763 33.5483 254.973 33.0438 255.112 32.4791C255.246 31.9189 255.316 31.3498 255.316 30.7804ZM274.324 36.8251C274.324 36.8991 274.303 36.9593 274.26 37.0101C274.217 37.0564 274.153 37.1027 274.056 37.1398C273.96 37.172 273.831 37.2 273.659 37.2184C273.493 37.2369 273.283 37.2461 273.031 37.2461C272.763 37.2461 272.548 37.2369 272.382 37.2184C272.21 37.2 272.081 37.172 271.985 37.1398C271.888 37.1027 271.824 37.0564 271.781 37.0101C271.738 36.9593 271.716 36.8991 271.716 36.8251V31.4701H264.536V36.8251C264.536 36.8991 264.514 36.9593 264.471 37.0101C264.428 37.0564 264.364 37.1027 264.268 37.1398C264.171 37.172 264.042 37.2 263.87 37.2184C263.704 37.2369 263.489 37.2461 263.226 37.2461C262.969 37.2461 262.759 37.2369 262.593 37.2184C262.421 37.2 262.287 37.172 262.191 37.1398C262.089 37.1027 262.019 37.0564 261.981 37.0101C261.944 36.9593 261.928 36.8991 261.928 36.8251V24.6155C261.928 24.5414 261.944 24.4812 261.981 24.4304C262.019 24.3841 262.089 24.3378 262.191 24.2962C262.287 24.2546 262.421 24.2268 262.593 24.213C262.759 24.1989 262.969 24.1944 263.226 24.1944C263.489 24.1944 263.704 24.1989 263.87 24.213C264.042 24.2268 264.171 24.2546 264.268 24.2962C264.364 24.3378 264.428 24.3841 264.471 24.4304C264.514 24.4812 264.536 24.5414 264.536 24.6155V29.5817H271.716V24.6155C271.716 24.5414 271.738 24.4812 271.781 24.4304C271.824 24.3841 271.888 24.3378 271.985 24.2962C272.081 24.2546 272.21 24.2268 272.382 24.213C272.548 24.1989 272.763 24.1944 273.031 24.1944C273.283 24.1944 273.493 24.1989 273.659 24.213C273.831 24.2268 273.96 24.2546 274.056 24.2962C274.153 24.3378 274.217 24.3841 274.26 24.4304C274.303 24.4812 274.324 24.5414 274.324 24.6155V36.8251ZM289.802 36.8389C289.802 36.9454 289.759 37.0286 289.679 37.0841C289.593 37.1398 289.48 37.1767 289.33 37.2045C289.185 37.2322 288.97 37.2461 288.686 37.2461C288.417 37.2461 288.197 37.2322 288.036 37.2045C287.875 37.1767 287.757 37.1398 287.682 37.0841C287.607 37.0286 287.569 36.9499 287.569 36.8389V35.617C286.952 36.1863 286.265 36.6306 285.503 36.9454C284.741 37.2555 283.936 37.4128 283.088 37.4128C282.342 37.4128 281.666 37.3295 281.065 37.1629C280.464 36.9962 279.949 36.751 279.525 36.4362C279.101 36.1215 278.768 35.7282 278.532 35.27C278.296 34.8071 278.178 34.2841 278.178 33.6963C278.178 33.0066 278.339 32.4095 278.666 31.9051C278.988 31.3961 279.455 30.9748 280.067 30.6415C280.673 30.3084 281.419 30.0538 282.299 29.8871C283.179 29.7205 284.172 29.6372 285.273 29.6372H287.226V28.6838C287.226 28.2164 287.167 27.7998 287.054 27.4341C286.936 27.0732 286.754 26.7723 286.496 26.5316C286.238 26.2909 285.906 26.1106 285.498 25.9902C285.09 25.8651 284.585 25.805 283.99 25.805C283.351 25.805 282.777 25.8698 282.273 26.0041C281.763 26.1383 281.317 26.2817 280.936 26.4437C280.555 26.6057 280.233 26.7493 279.976 26.8835C279.723 27.0177 279.53 27.0824 279.407 27.0824C279.321 27.0824 279.246 27.0638 279.187 27.0269C279.122 26.9945 279.069 26.939 279.02 26.8649C278.972 26.7956 278.94 26.703 278.918 26.5918C278.897 26.4761 278.886 26.3558 278.886 26.2168C278.886 25.9947 278.902 25.8143 278.94 25.6846C278.977 25.5551 279.069 25.43 279.208 25.3143C279.348 25.1987 279.594 25.0598 279.938 24.8978C280.282 24.7405 280.684 24.5924 281.135 24.4582C281.58 24.3286 282.074 24.2175 282.611 24.1295C283.142 24.0416 283.684 24 284.226 24C285.24 24 286.104 24.0971 286.818 24.2962C287.532 24.4951 288.106 24.7915 288.546 25.1756C288.986 25.5598 289.303 26.0365 289.501 26.6057C289.7 27.175 289.802 27.8415 289.802 28.6005V36.8389ZM287.226 31.248H285.01C284.301 31.248 283.684 31.2988 283.158 31.4053C282.638 31.5071 282.203 31.6644 281.854 31.8681C281.51 32.0717 281.258 32.3124 281.092 32.5993C280.931 32.8863 280.85 33.2149 280.85 33.5852C280.85 34.2192 281.081 34.7237 281.548 35.0986C282.015 35.4736 282.664 35.6633 283.507 35.6633C284.183 35.6633 284.816 35.5152 285.396 35.2143C285.976 34.9181 286.587 34.4599 287.226 33.8444V31.248ZM305 36.8251C305 36.8991 304.984 36.9593 304.947 37.0148C304.909 37.0703 304.845 37.1119 304.748 37.1443C304.651 37.1767 304.522 37.2 304.351 37.2184C304.184 37.2369 303.964 37.2461 303.691 37.2461C303.433 37.2461 303.224 37.2369 303.057 37.2184C302.886 37.2 302.751 37.1767 302.655 37.1443C302.553 37.1119 302.483 37.0703 302.446 37.0148C302.408 36.9638 302.392 36.8991 302.392 36.8251V31.6923H300.9C300.251 31.6923 299.746 31.7384 299.381 31.8265C299.022 31.9189 298.694 32.067 298.41 32.28C298.12 32.493 297.862 32.7659 297.632 33.0946C297.401 33.4232 297.181 33.8259 296.972 34.3071L295.823 36.6908C295.77 36.8065 295.716 36.9036 295.652 36.9731C295.587 37.0472 295.496 37.1027 295.378 37.1443C295.26 37.1859 295.104 37.2139 294.922 37.2277C294.739 37.2416 294.514 37.2461 294.24 37.2461C294.047 37.2461 293.87 37.2416 293.72 37.2322C293.569 37.2231 293.44 37.2092 293.333 37.1859C293.231 37.1629 293.151 37.1258 293.102 37.075C293.049 37.0286 293.022 36.9638 293.022 36.8944C293.022 36.8295 293.049 36.7278 293.108 36.589C293.167 36.4501 293.285 36.2049 293.462 35.853L294.594 33.5621C294.889 32.9836 295.249 32.4836 295.678 32.067C296.108 31.646 296.601 31.3359 297.159 31.1368C296.14 30.9748 295.335 30.6231 294.728 30.0862C294.127 29.5446 293.827 28.8319 293.827 27.9433C293.827 27.3555 293.966 26.8233 294.251 26.3466C294.535 25.8698 294.949 25.4671 295.501 25.1385C296.049 24.8054 296.725 24.5508 297.53 24.375C298.329 24.1989 299.247 24.111 300.288 24.111C300.535 24.111 300.83 24.1157 301.158 24.1248C301.49 24.1342 301.829 24.1481 302.177 24.1667C302.532 24.185 302.87 24.2036 303.202 24.2268C303.53 24.2499 303.814 24.2685 304.056 24.287C304.372 24.3148 304.608 24.4119 304.764 24.5877C304.92 24.7591 305 24.9718 305 25.2219V36.8251ZM302.392 25.9161C302.016 25.8698 301.63 25.8374 301.233 25.8235C300.841 25.8097 300.476 25.805 300.138 25.805C299.43 25.805 298.839 25.856 298.367 25.9625C297.889 26.0642 297.514 26.2168 297.224 26.4112C296.94 26.6057 296.736 26.8372 296.618 27.1009C296.494 27.36 296.435 27.6517 296.435 27.971C296.435 28.295 296.505 28.5913 296.644 28.8504C296.789 29.1097 296.998 29.3272 297.288 29.503C297.573 29.6789 297.943 29.8178 298.389 29.9104C298.839 30.0075 299.462 30.0538 300.267 30.0538H302.392V25.9161ZM161.685 60.4123C161.685 60.4863 161.663 60.5465 161.621 60.5973C161.577 60.6436 161.513 60.6899 161.417 60.727C161.325 60.7593 161.191 60.7872 161.025 60.8056C160.858 60.8242 160.649 60.8333 160.397 60.8333C160.134 60.8333 159.919 60.8242 159.753 60.8056C159.587 60.7872 159.452 60.7593 159.35 60.727C159.254 60.6899 159.184 60.6436 159.141 60.5973C159.098 60.5465 159.077 60.4863 159.077 60.4123V49.7533H155.181C155.014 51.188 154.81 52.4654 154.574 53.5855C154.338 54.7055 154.075 55.682 153.78 56.5151C153.485 57.3438 153.152 58.0471 152.787 58.6165C152.422 59.1857 152.02 59.644 151.585 59.991C151.145 60.3382 150.673 60.5881 150.163 60.7409C149.658 60.8935 149.111 60.9723 148.537 60.9723C148.44 60.9723 148.36 60.9584 148.29 60.9306C148.225 60.9029 148.167 60.8566 148.123 60.7825C148.086 60.713 148.054 60.6112 148.032 60.4769C148.011 60.3474 148 60.1808 148 59.9725C148 59.755 148.005 59.5792 148.022 59.4449C148.038 59.3107 148.065 59.1995 148.102 59.121C148.14 59.0376 148.188 58.9868 148.242 58.959C148.301 58.9313 148.37 58.9172 148.456 58.9172C148.805 58.9172 149.133 58.8478 149.449 58.7091C149.76 58.5655 150.056 58.3342 150.329 58.0147C150.603 57.6955 150.86 57.2742 151.102 56.7558C151.338 56.2328 151.558 55.5941 151.762 54.8352C151.961 54.0761 152.148 53.1875 152.326 52.1692C152.503 51.1555 152.674 49.9846 152.83 48.6656C152.852 48.3926 152.927 48.1935 153.061 48.0593C153.19 47.9297 153.377 47.8649 153.619 47.8649H160.885C161.132 47.8649 161.331 47.9297 161.47 48.064C161.615 48.1935 161.685 48.3926 161.685 48.6656V60.4123ZM177.151 60.4262C177.151 60.5326 177.109 60.6159 177.028 60.6714C176.942 60.727 176.829 60.764 176.679 60.7917C176.534 60.8195 176.32 60.8333 176.035 60.8333C175.767 60.8333 175.547 60.8195 175.386 60.7917C175.225 60.764 175.107 60.727 175.032 60.6714C174.957 60.6159 174.919 60.5371 174.919 60.4262V59.2042C174.302 59.7736 173.615 60.2179 172.853 60.5326C172.091 60.8427 171.286 61 170.438 61C169.692 61 169.016 60.9168 168.415 60.7501C167.814 60.5834 167.298 60.3382 166.874 60.0235C166.45 59.7087 166.118 59.3154 165.882 58.8572C165.645 58.3944 165.527 57.8713 165.527 57.2836C165.527 56.5939 165.688 55.9968 166.016 55.4923C166.338 54.9833 166.805 54.5621 167.416 54.2287C168.023 53.8956 168.769 53.641 169.649 53.4744C170.529 53.3077 171.522 53.2245 172.622 53.2245H174.575V52.271C174.575 51.8036 174.516 51.3871 174.404 51.0213C174.286 50.6604 174.103 50.3595 173.845 50.1188C173.588 49.8781 173.255 49.6978 172.847 49.5774C172.44 49.4524 171.935 49.3922 171.339 49.3922C170.701 49.3922 170.127 49.4571 169.622 49.5913C169.112 49.7255 168.667 49.8689 168.286 50.0309C167.905 50.1929 167.583 50.3365 167.325 50.4707C167.073 50.6049 166.88 50.6696 166.756 50.6696C166.67 50.6696 166.595 50.651 166.536 50.6141C166.472 50.5817 166.418 50.5262 166.37 50.4521C166.322 50.3828 166.29 50.2902 166.268 50.179C166.247 50.0633 166.236 49.943 166.236 49.8041C166.236 49.5819 166.252 49.4016 166.29 49.2718C166.327 49.1423 166.418 49.0173 166.558 48.9016C166.697 48.7859 166.944 48.647 167.288 48.485C167.631 48.3277 168.034 48.1796 168.484 48.0454C168.93 47.9159 169.423 47.8047 169.96 47.7168C170.491 47.6288 171.034 47.5872 171.575 47.5872C172.59 47.5872 173.454 47.6843 174.168 47.8834C174.881 48.0823 175.456 48.3787 175.896 48.7629C176.336 49.147 176.652 49.6237 176.851 50.1929C177.049 50.7622 177.151 51.4287 177.151 52.1878V60.4262ZM174.575 54.8352H172.359C171.651 54.8352 171.034 54.886 170.507 54.9925C169.987 55.0943 169.552 55.2516 169.203 55.4554C168.86 55.659 168.608 55.8997 168.441 56.1865C168.28 56.4735 168.2 56.8022 168.2 57.1724C168.2 57.8064 168.431 58.3109 168.898 58.6859C169.365 59.0608 170.014 59.2505 170.856 59.2505C171.533 59.2505 172.166 59.1024 172.745 58.8015C173.325 58.5053 173.937 58.0472 174.575 57.4317V54.8352Z" fill="#FFB7A7"/>
<path d="M194.003 57.0255C194.003 57.6491 193.862 58.2052 193.575 58.6898C193.288 59.1788 192.866 59.5825 192.302 59.9145C191.745 60.2419 191.046 60.4931 190.213 60.6637C189.373 60.8341 188.398 60.9193 187.288 60.9193C186.942 60.9193 186.601 60.9193 186.276 60.9148C185.946 60.9102 185.626 60.9013 185.323 60.8879C185.014 60.8744 184.711 60.8565 184.408 60.8385C184.11 60.825 183.807 60.8027 183.514 60.7758C183.087 60.7309 182.778 60.6142 182.578 60.4258C182.377 60.2374 182.274 59.9594 182.274 59.5915V49.4085C182.274 49.0497 182.372 48.7715 182.567 48.5787C182.762 48.3858 183.065 48.2736 183.466 48.2377C183.742 48.2108 184.034 48.1884 184.348 48.1704C184.657 48.157 184.976 48.139 185.307 48.1256C185.637 48.1121 185.973 48.1032 186.324 48.0941C186.671 48.0852 187.023 48.0807 187.386 48.0807C188.415 48.0807 189.303 48.1525 190.05 48.2916C190.803 48.4306 191.425 48.6371 191.923 48.9062C192.422 49.1798 192.79 49.5118 193.028 49.9064C193.266 50.3012 193.386 50.7499 193.386 51.2566C193.386 51.9206 193.169 52.4904 192.741 52.9659C192.313 53.4369 191.68 53.7734 190.846 53.9751C191.891 54.1591 192.681 54.5134 193.212 55.0384C193.738 55.5677 194.003 56.2271 194.003 57.0255ZM190.851 51.5394C190.851 51.2523 190.786 50.9966 190.662 50.7677C190.532 50.5435 190.326 50.3505 190.034 50.1935C189.741 50.0365 189.362 49.9199 188.902 49.8392C188.442 49.7629 187.884 49.7225 187.224 49.7225C186.725 49.7225 186.271 49.7314 185.859 49.754C185.442 49.7763 185.095 49.8032 184.809 49.8257V53.4907H187.478C188.572 53.4907 189.406 53.3248 189.985 52.9882C190.564 52.6517 190.851 52.1673 190.851 51.5394ZM191.306 57.0569C191.306 56.7071 191.23 56.3975 191.084 56.133C190.938 55.8637 190.7 55.6438 190.38 55.469C190.055 55.294 189.644 55.1639 189.14 55.0742C188.642 54.989 188.046 54.9441 187.359 54.9441H184.809V59.1339C185.009 59.1608 185.22 59.1788 185.437 59.1923C185.653 59.2057 185.875 59.2191 186.103 59.2326C186.33 59.246 186.552 59.2549 186.779 59.264C187.007 59.2729 187.218 59.2775 187.408 59.2775C188.095 59.2775 188.68 59.2281 189.167 59.125C189.655 59.0262 190.055 58.8783 190.38 58.6853C190.7 58.4923 190.938 58.2592 191.084 57.9856C191.23 57.7074 191.306 57.3979 191.306 57.0569ZM209.467 60.5245C209.467 60.5739 209.451 60.6232 209.413 60.6591C209.375 60.6995 209.305 60.7354 209.208 60.7578C209.105 60.7847 208.975 60.8072 208.807 60.8207C208.644 60.8341 208.433 60.8385 208.179 60.8385C207.886 60.8385 207.643 60.8296 207.459 60.8116C207.274 60.7938 207.123 60.7712 207.004 60.7398C206.89 60.7084 206.803 60.668 206.755 60.6231C206.7 60.5739 206.662 60.5201 206.641 60.4573L205.125 57.3934C204.935 56.9986 204.735 56.6622 204.518 56.3752C204.302 56.0924 204.053 55.8593 203.766 55.6843C203.484 55.5094 203.165 55.3838 202.802 55.3029C202.444 55.2266 202.038 55.1863 201.573 55.1863H200.468V60.511C200.468 60.5559 200.441 60.5963 200.387 60.6411C200.333 60.686 200.257 60.7218 200.149 60.7443C200.04 60.7712 199.905 60.7938 199.732 60.8116C199.564 60.8296 199.369 60.8385 199.147 60.8385C198.919 60.8385 198.725 60.8296 198.557 60.8116C198.383 60.7938 198.248 60.7712 198.14 60.7443C198.031 60.7218 197.956 60.686 197.907 60.6411C197.858 60.5963 197.837 60.5514 197.837 60.511V48.489C197.837 48.4486 197.858 48.4037 197.907 48.3678C197.956 48.3274 198.031 48.2916 198.14 48.2691C198.248 48.2422 198.383 48.2199 198.557 48.2064C198.725 48.1928 198.919 48.1884 199.147 48.1884C199.369 48.1884 199.564 48.1928 199.732 48.2064C199.905 48.2199 200.04 48.2422 200.149 48.2691C200.257 48.2916 200.333 48.3274 200.387 48.3678C200.441 48.4037 200.468 48.4486 200.468 48.4935V53.4638H201.573C201.968 53.4638 202.336 53.428 202.667 53.3517C202.997 53.2753 203.3 53.1543 203.571 52.9837C203.847 52.8089 204.091 52.589 204.302 52.3154C204.518 52.0418 204.719 51.7143 204.897 51.3284L206.219 48.5965C206.24 48.5247 206.278 48.4664 206.327 48.4126C206.381 48.3589 206.462 48.314 206.565 48.2825C206.673 48.2467 206.814 48.2199 206.988 48.2064C207.161 48.1928 207.393 48.1884 207.681 48.1884C207.93 48.1884 208.141 48.1928 208.303 48.2064C208.466 48.2199 208.596 48.2422 208.688 48.2691C208.774 48.2916 208.834 48.3274 208.866 48.3678C208.899 48.4037 208.915 48.4486 208.915 48.489C208.915 48.5696 208.904 48.6548 208.877 48.7401C208.85 48.8298 208.812 48.9285 208.758 49.0452L207.394 51.6515C207.182 52.091 206.955 52.4589 206.706 52.7595C206.457 53.0555 206.208 53.3068 205.953 53.5041C205.704 53.7016 205.444 53.854 205.179 53.9662C204.919 54.0739 204.664 54.1591 204.421 54.2218V54.2487C204.789 54.3519 205.13 54.4777 205.444 54.6256C205.758 54.7782 206.045 54.9621 206.316 55.1774C206.587 55.3972 206.836 55.6574 207.069 55.9623C207.302 56.2629 207.518 56.6083 207.724 57.0031L209.294 59.9997C209.337 60.0581 209.365 60.1164 209.386 60.1702C209.408 60.2194 209.424 60.2734 209.435 60.3183C209.446 60.3675 209.456 60.4078 209.462 60.4393C209.467 60.4707 209.467 60.4976 209.467 60.5245ZM223.183 60.4438C223.183 60.547 223.14 60.6277 223.059 60.6815C222.972 60.7354 222.858 60.7712 222.706 60.7981C222.56 60.825 222.344 60.8385 222.057 60.8385C221.786 60.8385 221.564 60.825 221.401 60.7981C221.239 60.7712 221.12 60.7354 221.044 60.6815C220.968 60.6277 220.93 60.5514 220.93 60.4438V59.2595C220.308 59.8113 219.615 60.2419 218.846 60.547C218.077 60.8476 217.265 61 216.409 61C215.656 61 214.974 60.9193 214.368 60.7578C213.761 60.5963 213.241 60.3586 212.814 60.0535C212.386 59.7484 212.05 59.3672 211.812 58.9232C211.574 58.4745 211.455 57.9676 211.455 57.398C211.455 56.7295 211.617 56.1507 211.947 55.6618C212.272 55.1685 212.743 54.7602 213.361 54.4371C213.972 54.1142 214.725 53.8675 215.613 53.706C216.501 53.5444 217.503 53.4638 218.613 53.4638H220.584V52.5396C220.584 52.0867 220.524 51.6829 220.411 51.3284C220.291 50.9786 220.107 50.687 219.847 50.4537C219.587 50.2204 219.252 50.0456 218.84 49.9289C218.429 49.8077 217.92 49.7494 217.319 49.7494C216.674 49.7494 216.095 49.8123 215.586 49.9424C215.071 50.0725 214.622 50.2115 214.238 50.3685C213.853 50.5255 213.528 50.6647 213.268 50.7947C213.014 50.9248 212.819 50.9875 212.694 50.9875C212.608 50.9875 212.532 50.9695 212.472 50.9337C212.408 50.9023 212.353 50.8485 212.305 50.7768C212.256 50.7095 212.224 50.6198 212.202 50.512C212.18 50.3999 212.169 50.2833 212.169 50.1486C212.169 49.9333 212.186 49.7585 212.224 49.6328C212.261 49.5072 212.353 49.386 212.494 49.2739C212.635 49.1618 212.884 49.0272 213.231 48.8702C213.577 48.7177 213.983 48.5742 214.438 48.4441C214.887 48.3185 215.386 48.2108 215.927 48.1256C216.463 48.0403 217.01 48 217.557 48C218.58 48 219.452 48.0941 220.172 48.2871C220.892 48.4799 221.472 48.7671 221.916 49.1394C222.36 49.5118 222.679 49.9738 222.88 50.5255C223.08 51.0773 223.183 51.7232 223.183 52.4589V60.4438ZM220.584 55.0249H218.348C217.633 55.0249 217.01 55.0742 216.479 55.1774C215.954 55.276 215.516 55.4285 215.164 55.626C214.817 55.8233 214.563 56.0566 214.395 56.3346C214.232 56.6128 214.151 56.9313 214.151 57.2902C214.151 57.9047 214.384 58.3937 214.855 58.7571C215.326 59.1205 215.981 59.3044 216.831 59.3044C217.514 59.3044 218.153 59.1608 218.737 58.8692C219.322 58.5821 219.939 58.138 220.584 57.5415V55.0249Z" fill="#FFB7A7"/>
</svg>
