<svg width="243" height="67" viewBox="0 0 243 67" fill="none" xmlns="http://www.w3.org/2000/svg">
<path d="M30.1968 21.3532C28.8237 19.8957 27.2018 18.6609 25.3172 18.1217C23.4022 17.5739 21.4141 17.8598 19.6619 18.8378C17.7889 19.883 16.2514 21.5348 14.6834 23.0232C14.3321 23.3567 13.9806 23.6901 13.6294 24.0238C13.4325 24.1703 13.2575 24.3765 13.0945 24.531C12.7696 24.8391 12.2897 25.143 12.4184 25.6838C12.4666 25.8869 12.5943 26.0309 12.7201 26.1844C12.9305 26.4414 13.1408 26.6985 13.3514 26.9556C13.7423 27.4332 14.1331 27.9106 14.5241 28.3879C16.0876 30.2978 17.6512 32.2075 19.2148 34.1174C20.7942 36.0465 22.3736 37.9756 23.953 39.9047C24.341 40.3789 24.7084 40.9103 25.133 41.3462C25.407 41.6274 25.7819 41.5911 26.0661 41.3462C26.2353 41.2001 26.3958 41.04 26.5575 40.8828C26.6099 40.8347 26.6608 40.7855 26.7108 40.7366C26.845 40.6143 27.0044 40.4924 27.1223 40.344C27.4528 40.0305 27.7832 39.717 28.1133 39.4035C28.5674 38.9725 29.0216 38.5414 29.4756 38.1103C29.6773 37.9189 29.8792 37.7272 30.081 37.5358C30.2147 37.409 30.3892 37.2809 30.5156 37.1261C31.193 36.5708 31.784 35.7658 32.2848 35.0413C32.8277 34.2559 33.2774 33.3967 33.5907 32.4765C34.2498 30.5404 34.1442 28.4531 33.4703 26.5385C32.7761 24.5664 31.5845 22.8261 30.1968 21.3532ZM25.868 37.887C25.0711 36.9136 24.2743 35.9404 23.4775 34.9672C21.914 33.0573 20.3504 31.1474 18.7868 29.2377C18.0049 28.2829 17.2231 27.3278 16.4413 26.373C16.2299 26.1147 16.0186 25.8564 15.8071 25.5982C16.376 25.0578 16.9437 24.516 17.5129 23.976C18.2713 23.2563 19.0327 22.5385 19.8838 21.9458C20.683 21.3892 21.5562 20.9422 22.5007 20.7703C23.5105 20.5867 24.553 20.7696 25.4842 21.2163C27.2955 22.0846 28.8275 23.8042 29.9334 25.5431C31.0575 27.3102 31.7123 29.4299 31.0642 31.535C30.451 33.5266 28.9771 34.946 27.5598 36.2907C26.9972 36.8245 26.4346 37.358 25.872 37.8918C25.8707 37.8902 25.8693 37.8885 25.868 37.887Z" fill="#5C7148"/>
<path d="M40.9354 31.2479C41.0587 31.2188 41.1832 31.1715 41.3026 31.1216C41.752 30.9337 42.1806 30.6934 42.5749 30.3944C43.4951 29.6968 44.221 28.7241 44.656 27.6198C44.7867 27.8817 44.9409 28.1268 45.1372 28.3379C45.8375 29.0898 46.8115 29.1056 47.7213 28.8677C47.9894 28.7976 48.4425 28.7047 48.7862 28.5194C48.7956 28.5164 48.8035 28.5158 48.8129 28.5121C48.9736 28.4512 49.0955 28.3317 49.1684 28.1828C49.2313 28.076 49.2598 27.9523 49.2399 27.8076C49.2394 27.8002 49.2402 27.7932 49.2396 27.7858C49.2147 27.5313 49.1151 27.2739 49.0505 27.0283C48.9825 26.7702 48.9436 26.4615 48.8195 26.2256C48.3337 25.305 47.1759 26.6884 46.8292 25.7538C46.6146 25.1744 46.5055 24.5272 46.3473 23.9275C46.1769 23.2831 46.0068 22.6386 45.8366 21.9941C45.5191 20.7918 45.2452 19.5658 44.8784 18.3797C44.5687 17.3789 44.1233 16.4136 43.3908 15.6929C42.0706 14.3931 40.2266 14.2219 38.5601 14.7219C36.8857 15.2241 35.3585 16.339 34.397 17.9099C34.1537 18.3075 33.9539 18.7328 33.7928 19.176C33.661 19.5389 33.4411 20.0412 33.6108 20.4253C33.7122 20.6548 33.9057 20.758 34.1031 20.8806C34.3742 21.049 34.6434 21.2218 34.9167 21.3862C35.2439 21.5829 35.6562 21.6345 35.9039 21.2599C36.0203 21.0837 36.0383 20.8518 36.0937 20.649C36.1668 20.3826 36.258 20.1226 36.3716 19.8734C36.5928 19.3887 36.8828 18.9456 37.2436 18.5696C37.9539 17.829 38.9818 17.3239 39.9741 17.2769C40.9997 17.2282 41.7395 17.7836 42.1628 18.7655C42.2551 18.9798 42.3355 19.2015 42.4092 19.4273C42.0354 19.7653 41.6732 20.1245 41.3042 20.4599C40.7695 20.946 40.2349 21.4321 39.7014 21.9196C38.7518 22.7875 37.7349 23.6192 36.9691 24.688C36.3288 25.5818 35.8692 26.6594 35.9192 27.8104C35.965 28.8622 36.3904 29.9369 37.1565 30.6117C37.8616 31.233 38.7754 31.4836 39.6753 31.4567C39.9905 31.4471 40.5378 31.421 40.9354 31.2479ZM43.5437 25.3501C43.2971 26.4035 42.6521 27.3618 41.8308 27.9864C41.1293 28.5199 39.9781 29.0328 39.1395 28.5583C38.4269 28.1552 38.4929 27.1026 38.8078 26.4368C39.0513 25.9222 39.4725 25.526 39.8676 25.1479C40.3973 24.6416 40.9328 24.1418 41.4653 23.6389C41.9932 23.1398 42.5211 22.6406 43.0492 22.1415C43.0654 22.1261 43.082 22.1105 43.0982 22.0951C43.2612 22.7389 43.425 23.3823 43.5901 24.0252C43.6346 24.4739 43.6516 24.8891 43.5437 25.3501Z" fill="#5C7148"/>
<path d="M49.5172 9.08573C49.5492 9.40573 49.5225 9.82788 49.6933 10.1071C49.8705 10.3969 50.1444 10.4423 50.4412 10.4137C50.857 10.3738 51.3219 10.3652 51.7273 10.259C51.7942 10.2415 51.855 10.2135 51.9117 10.1796C51.9291 10.1698 51.9429 10.1565 51.959 10.145C52.0168 10.103 52.0674 10.0527 52.1091 9.99242C52.1123 9.98762 52.1167 9.98368 52.1199 9.97854C52.1448 9.94049 52.164 9.89713 52.1817 9.85222C52.1828 9.84879 52.1844 9.84571 52.1857 9.84228C52.1935 9.82154 52.2048 9.80388 52.211 9.7816C52.2185 9.75469 52.2193 9.72881 52.2239 9.70225C52.2255 9.69453 52.2263 9.68665 52.2277 9.67876C52.233 9.64311 52.2387 9.60729 52.2392 9.57249C52.2443 9.5029 52.2455 9.43178 52.2387 9.3586C52.1592 8.49081 52.1158 8.20234 52.0292 7.33558C51.9986 7.02724 51.9919 6.7206 51.755 6.50721C51.4956 6.27377 51.1795 6.3545 50.8701 6.3905C50.3267 6.45323 49.3846 6.36599 49.3303 7.17464C49.3037 7.56783 49.4019 8.00643 49.4411 8.39842C49.4833 8.82006 49.475 8.66409 49.5172 9.08573Z" fill="#5C7148"/>
<path d="M52.393 12.3852C52.1346 12.0907 51.7882 12.1726 51.4518 12.2117C51.0814 12.2546 50.6044 12.2172 50.2687 12.4011C49.9544 12.5732 49.8994 12.8956 49.9251 13.2415C49.9981 14.2184 50.1203 15.1944 50.2179 16.1689C50.4179 18.1693 50.6178 20.1702 50.8178 22.1706C50.93 23.2931 51.0421 24.4151 51.1543 25.5374C51.2129 26.1229 51.2713 26.7084 51.3299 27.2941C51.3672 27.6675 51.4227 28.0467 51.7983 28.1877C51.9785 28.2554 52.1633 28.2175 52.3483 28.1963C52.6188 28.1647 52.8892 28.1336 53.1596 28.1022C53.3203 28.0837 53.4794 28.067 53.6184 28.0093C53.6216 28.0083 53.6243 28.0066 53.6271 28.0054C53.6655 27.9889 53.7018 27.9685 53.7362 27.9447C53.7489 27.9363 53.7615 27.9286 53.7737 27.9191C53.7776 27.9159 53.7811 27.9116 53.7849 27.9082C53.8196 27.8799 53.8537 27.8502 53.883 27.8136C54.0555 27.596 54.0297 27.3426 54.0033 27.0777C53.952 26.5651 53.9008 26.053 53.8497 25.5407C53.7472 24.5159 53.6446 23.4911 53.5421 22.4665C53.342 20.4661 53.142 18.4655 52.9419 16.4649C52.8418 15.4645 52.742 14.4644 52.6417 13.4639C52.6065 13.1117 52.6363 12.6621 52.393 12.3852Z" fill="#5C7148"/>
<path d="M57.3546 28.0569C57.6483 28.0818 57.9419 28.1091 58.2358 28.1308C58.4043 28.1433 58.5639 28.1512 58.7153 28.0569C58.8856 27.951 58.9816 27.757 59.0048 27.5524C59.0112 27.5239 59.0225 27.4984 59.0265 27.4687C59.1117 26.8309 59.1223 26.1709 59.1688 25.5281C59.2607 24.2593 59.3525 22.9902 59.4444 21.721C59.6318 19.1341 59.819 16.8741 60.0064 14.2872C60.1 12.9938 60.1937 11.7003 60.2873 10.4067C60.3333 9.76911 60.3795 9.13187 60.4257 8.49444C60.4489 8.1753 60.4777 7.85597 60.4951 7.53648C60.5069 7.31675 60.4999 7.12942 60.3634 6.95271C60.063 6.56398 59.4495 6.64573 59.0325 6.61093C58.61 6.57563 58.146 6.4704 57.9124 6.95117C57.8115 7.15908 57.8206 7.41428 57.8042 7.6419C57.7795 7.9835 57.7547 8.32526 57.7298 8.66686C57.684 9.30137 57.638 9.93607 57.5921 10.5704C57.4049 13.1575 57.2175 15.7444 57.0303 18.3311C56.8445 20.8958 56.6591 23.133 56.4734 25.6975C56.4502 26.0168 56.4271 26.3361 56.4039 26.6552C56.3849 26.9171 56.3138 27.2341 56.3712 27.4927C56.4817 27.9901 56.9677 28.0247 57.3546 28.0569Z" fill="#5C7148"/>
<path d="M61.0226 36.1251C62.6723 36.3736 64.1264 35.5739 65.2007 34.2613C65.8652 33.4494 67.7327 30.7067 68.3041 29.819C68.9622 28.7966 69.6216 27.7751 70.2809 26.7534C71.6095 24.6944 72.9383 22.6352 74.267 20.5762C74.9305 19.548 75.5941 18.5198 76.2576 17.4915C76.4935 17.126 76.8395 16.7564 76.6309 16.2883C76.4386 15.8564 75.9469 15.8365 75.5627 15.7392C75.1732 15.6404 74.6305 15.3715 74.2511 15.6329C74.0882 15.745 73.9891 15.9412 73.883 16.1085C73.7175 16.3699 73.5517 16.631 73.386 16.8922C72.7362 17.9168 72.0857 18.9411 71.4358 19.9655C70.1409 22.0072 68.8482 24.0501 67.5643 26.0998C67.361 24.39 67.1486 22.6815 66.9245 20.9749C66.765 19.7595 66.602 18.5448 66.4385 17.3301C66.282 16.1666 66.1624 14.9886 65.9688 13.8318C65.8899 13.3603 65.6385 13.2277 65.2279 13.124C64.9673 13.0582 64.7069 12.9922 64.4463 12.9262C64.2231 12.8698 63.9704 12.7644 63.7385 12.8204C63.4632 12.8868 63.2716 13.1439 63.2376 13.4397C63.2111 13.6694 63.273 13.9117 63.3045 14.138C63.3519 14.4778 63.3992 14.8176 63.4467 15.1573C63.7781 17.5354 64.1096 19.9137 64.4413 22.2919C64.6036 23.4569 64.7661 24.6215 64.9283 25.7865L65.1721 27.5348C65.2128 27.8268 65.2536 28.1187 65.2942 28.4106C65.3309 28.6749 65.3219 29.0078 65.4785 29.2282C65.5029 29.2626 65.5302 29.2918 65.5587 29.3189C65.5322 29.3621 65.5062 29.4068 65.4793 29.4493C65.0116 30.1843 63.1978 32.8934 62.4343 33.3172C61.6423 33.7567 60.7594 33.3865 60.2755 32.6337C60.0774 32.3257 59.9345 31.9803 59.8286 31.6245C59.7232 31.2709 59.5613 30.9353 59.1695 30.9069C58.9361 30.8897 58.7839 31.0267 58.6075 31.1713C58.3761 31.3612 58.1443 31.5508 57.9131 31.7411C57.5815 32.0136 57.4349 32.2746 57.5341 32.7288C57.7315 33.6324 58.2411 34.4721 58.8998 35.064C59.208 35.3409 59.5466 35.5763 59.9115 35.7566C60.1696 35.8839 60.5146 36.0749 60.8276 36.0908C60.892 36.1043 60.9576 36.1151 61.0226 36.1251Z" fill="#5C7148"/>
<path d="M56.6804 39.7567C54.5667 38.8076 52.1286 39.4267 50.6775 41.3433C50.6362 41.3978 50.5984 41.4555 50.5586 41.5116C50.5031 41.3107 50.4359 41.1124 50.3536 40.9177C49.9073 39.861 49.073 39.0433 48.0828 38.5978C46.1783 37.7412 44.0252 38.1676 42.5542 39.6564C42.5718 39.5054 42.5892 39.3549 42.6067 39.2039C42.644 38.8842 42.733 38.5241 42.5747 38.2242C42.3814 37.8576 41.9752 37.8812 41.6324 37.8351C41.0771 37.7609 40.1511 37.4678 40.0175 38.3226C39.8626 39.3115 39.7848 40.3222 39.669 41.3174C39.4314 43.3627 39.1934 45.408 38.9555 47.4533C38.8251 48.5734 38.6951 49.6933 38.5647 50.8134C38.4996 51.3735 38.4345 51.9336 38.3693 52.4934C38.3303 52.8287 38.2969 53.1937 38.5655 53.4378C38.7188 53.5773 38.909 53.5811 39.0994 53.6068C39.3693 53.643 39.6391 53.6792 39.9091 53.7153C40.0387 53.733 40.1638 53.7525 40.2848 53.7521C40.4483 53.7816 40.6185 53.7508 40.7583 53.6341C40.9845 53.4449 40.9851 53.1468 41.0182 52.8635C41.0776 52.3522 41.1372 51.8407 41.1967 51.3294C41.3155 50.3069 41.4345 49.2841 41.5535 48.2617C41.6899 47.0885 41.8263 45.9157 41.9628 44.7424C41.9897 44.6146 42.0021 44.4807 42.0252 44.3552C42.0872 44.0179 42.1694 43.6837 42.2772 43.36C42.4752 42.7657 42.7665 42.1958 43.172 41.7365C43.9892 40.8113 45.2155 40.5231 46.3424 40.8707C46.8953 41.0415 47.4029 41.3853 47.7066 41.9211C48.0589 42.5422 48.111 43.2917 48.0801 44.0018C48.0476 44.7481 47.9193 45.4872 47.833 46.2274C47.7286 47.1254 47.6241 48.0233 47.5197 48.9213C47.4181 49.7947 47.3164 50.6685 47.2148 51.5421C47.1641 51.9789 47.1133 52.4158 47.0625 52.8525C47.0181 53.2333 46.9248 53.6433 46.9329 54.0276C46.9506 54.8556 47.8176 54.7818 48.3741 54.8565C48.5225 54.8764 48.6752 54.8962 48.8216 54.8976C48.8894 54.9161 48.96 54.9276 49.0342 54.9228C49.6356 54.883 49.6055 54.1316 49.6608 53.6563C49.7628 52.7781 49.865 51.9002 49.9671 51.0223C50.1659 49.3123 50.3609 47.6017 50.5644 45.8924C50.5898 45.7683 50.6018 45.6389 50.6241 45.5172C50.6861 45.1809 50.768 44.8475 50.8748 44.5244C51.0716 43.9304 51.3604 43.3587 51.763 42.897C52.5787 41.9622 53.8039 41.6778 54.9348 42.027C55.4899 42.1982 56.0013 42.5419 56.3066 43.0802C56.6588 43.7014 56.711 44.4509 56.6801 45.161C56.6476 45.9073 56.5193 46.6463 56.4332 47.3866C56.3287 48.2844 56.2242 49.1822 56.1197 50.0799C56.0182 50.9534 55.9164 51.827 55.8149 52.7006C55.7641 53.1373 55.7133 53.5741 55.6625 54.011C55.6182 54.3918 55.5246 54.8016 55.5329 55.1859C55.5506 56.0136 56.4173 55.9404 56.9735 56.0153C57.122 56.0355 57.2745 56.0552 57.4208 56.0568C57.4888 56.0753 57.5592 56.0868 57.6334 56.082C58.2348 56.0422 58.2047 55.2908 58.2601 54.8153C58.362 53.9373 58.4642 53.0592 58.5664 52.1811C58.7755 50.3818 58.9797 48.5818 59.1951 46.7833C59.3815 45.2261 59.5773 43.5545 58.953 42.0764C58.5066 41.0188 57.6714 40.2018 56.6804 39.7567Z" fill="#5C7148"/>
<path d="M75.3205 48.0282C74.993 47.7437 74.606 47.2406 74.1472 47.2487C73.6776 47.2569 73.5735 47.6654 73.4735 48.0738C73.3527 48.5676 73.1817 49.0455 72.9415 49.4868C71.8852 51.4288 69.2277 52.2148 67.3366 51.3067C66.1181 50.7217 65.4068 49.4503 64.9935 48.1108C65.0177 48.1047 65.0419 48.0981 65.0661 48.092C65.6843 47.9384 66.3024 47.7847 66.9206 47.6309C69.4351 47.006 71.9721 46.4448 74.4713 45.7538C74.9601 45.6187 75.1136 45.2859 75.0701 44.7629C75.0281 44.2551 74.9424 43.7513 74.8138 43.2606C74.5439 42.2302 74.0974 41.2476 73.4955 40.395C72.2703 38.66 70.437 37.6992 68.4075 37.7765C66.657 37.8432 64.8612 38.5898 63.6558 39.9848C61.5428 42.43 61.4643 46.2657 62.5519 49.2398C63.1768 50.9483 64.2039 52.5224 65.7204 53.4279C66.5326 53.9128 67.438 54.185 68.3612 54.2714C68.8573 54.318 69.3576 54.3081 69.8522 54.2491C70.1318 54.2157 70.5271 54.2104 70.8219 54.0796C70.9634 54.0474 71.1048 53.9948 71.2368 53.9507C71.6547 53.8114 72.0636 53.6352 72.4546 53.4235C74.0476 52.5615 75.2253 51.0565 75.7916 49.2419C75.8567 49.0325 75.9086 48.8333 75.843 48.6153C75.7626 48.3494 75.5115 48.1941 75.3205 48.0282ZM70.8343 44.0429C69.5767 44.3555 68.3188 44.6681 67.0612 44.9809C66.4214 45.14 65.7814 45.2991 65.1417 45.4583C64.9364 45.5092 64.731 45.5603 64.5258 45.6113C64.4292 44.2016 64.6597 42.7764 65.6292 41.7202C66.8246 40.4174 68.9491 39.9914 70.4042 41.0244C71.0881 41.5098 71.5768 42.2562 71.9314 43.0392C72.0299 43.2562 72.1171 43.4785 72.1958 43.7044C71.7421 43.8172 71.2882 43.9301 70.8343 44.0429Z" fill="#5C7148"/>
<path d="M91.5697 42.4012C91.5682 42.3662 91.5646 42.3309 91.5584 42.2954C91.5568 42.2877 91.5558 42.28 91.5539 42.2723C91.5424 42.2157 91.5268 42.1592 91.5028 42.1031C91.3995 41.8613 91.2637 41.6301 91.1456 41.3961C91.0316 41.1709 90.934 40.8942 90.7538 40.7197C90.4078 40.3841 90.0592 40.5857 89.7149 40.7935C89.5455 40.8958 89.3301 41.0471 89.1265 41.0259C88.8464 40.9967 88.6767 40.6435 88.5562 40.4087C88.0008 39.3259 87.4775 38.2209 86.9279 37.1337C86.4075 36.1042 85.9217 35.0448 85.3603 34.04C84.8611 33.1464 84.2389 32.3204 83.3898 31.7908C81.7313 30.756 79.7723 31.1182 78.1864 32.1312C76.6938 33.085 75.4737 34.5786 74.9396 36.3731C74.8093 36.8105 74.7202 37.2649 74.6756 37.7218C74.6366 38.1222 74.5812 38.6124 74.9467 38.8661C75.1492 39.0064 75.4361 39.0553 75.6628 39.1312C75.9151 39.2159 76.1748 39.3333 76.4349 39.3823C76.7769 39.4466 77.1397 39.2552 77.2255 38.8729C77.2774 38.6419 77.2476 38.3783 77.2709 38.1417C77.2994 37.8485 77.3508 37.559 77.4274 37.276C77.5663 36.7641 77.7803 36.2804 78.0729 35.8495C78.6447 35.007 79.5635 34.3131 80.5155 34.0883C81.5362 33.847 82.3407 34.3626 82.9178 35.2437C83.0079 35.3816 83.0892 35.5276 83.1726 35.6717C83.1581 35.6933 83.1438 35.7163 83.129 35.7374C82.9114 36.0474 82.6933 36.3575 82.4754 36.6674C82.0665 37.2484 81.6577 37.8296 81.2498 38.4115C80.4863 39.5015 79.6397 40.5715 79.0583 41.7913C78.5671 42.8223 78.2692 43.9976 78.4991 45.1547C78.709 46.2101 79.3345 47.2243 80.2245 47.7472C81.0219 48.2158 81.9581 48.2786 82.8339 48.0637C83.1438 47.9874 83.6953 47.8405 84.0769 47.5791C84.3894 47.4572 84.7011 47.1571 84.9264 46.9605C85.293 46.6403 85.6228 46.2693 85.9094 45.8655C86.479 45.0623 86.8641 44.1105 87.0313 43.1185C87.2271 43.3588 87.4453 43.5727 87.7044 43.7304C88.5142 44.2238 89.4073 44.0596 90.2117 43.64C90.482 43.4992 90.9461 43.2893 91.256 43.005C91.2701 42.9954 91.2834 42.9901 91.2978 42.9795C91.4816 42.8423 91.5701 42.6433 91.5706 42.4312C91.5708 42.4214 91.5698 42.4111 91.5697 42.4012ZM82.4032 45.346C81.3898 45.4935 80.8103 44.4295 81.0297 43.4532C81.1653 42.8492 81.5326 42.3119 81.8648 41.8164C82.2676 41.2161 82.675 40.6191 83.0797 40.0203C83.4823 39.4247 83.8847 38.8287 84.287 38.2329C84.3189 38.186 84.3507 38.139 84.3824 38.092C84.6963 38.736 85.0099 39.3803 85.3274 40.0222C85.4525 40.4076 85.5023 40.8214 85.4864 41.2276C85.4167 43.0059 84.1463 45.0921 82.4032 45.346Z" fill="#5C7148"/>
<path d="M96.2961 37.3579C96.2843 37.2285 96.2318 37.1034 96.1207 36.9875C96.088 36.9446 96.0533 36.9028 96.0154 36.8629C95.592 36.419 95.1595 35.9848 94.7314 35.546C93.8754 34.6681 93.0195 33.7901 92.1635 32.9122C90.4353 31.1394 88.7067 29.3665 86.9783 27.5939C86.1223 26.7158 85.2663 25.8379 84.4103 24.96C83.9804 24.519 83.5504 24.0778 83.1204 23.6368C82.9052 23.416 82.6921 23.1925 82.4746 22.9743C82.3218 22.8211 82.17 22.686 81.9524 22.6701C81.4806 22.6356 81.1649 23.1853 80.8791 23.5077C80.6003 23.8226 80.2022 24.157 80.3418 24.6494C80.4006 24.8565 80.5614 24.9949 80.7014 25.1387C80.9318 25.3751 81.1623 25.6115 81.3928 25.8478C81.8208 26.2869 82.2489 26.7259 82.6768 27.1648C84.4052 28.9378 86.1336 30.7107 87.862 32.4835C89.575 34.2403 91.2878 35.9975 93.0007 37.7543C93.4166 38.1811 93.8179 38.6679 94.2692 39.0504C94.6196 39.3478 94.9767 39.239 95.2699 38.9227C95.486 38.6896 95.9059 38.3127 96.1376 37.917C96.1729 37.875 96.2054 37.8302 96.2308 37.7805C96.3068 37.6319 96.3206 37.491 96.2961 37.3579Z" fill="#5C7148"/>
<path d="M54.3893 66.42C47.3829 66.42 40.3194 65.2089 33.3951 62.8205C27.3679 60.7414 21.4442 57.7329 16.2644 54.12C11.5383 50.824 7.51693 47.1091 4.63466 43.3774C1.72469 39.6096 0.186523 36.0939 0.186523 33.2101C0.186523 30.3262 1.72469 26.8104 4.63466 23.0426C7.51693 19.3109 11.5383 15.596 16.2644 12.2999C21.4442 8.68714 27.3679 5.67877 33.3951 3.59954C40.3194 1.21111 47.3829 0 54.3893 0C61.3958 0 68.4592 1.21111 75.3833 3.59954C81.4107 5.67877 87.3344 8.68714 92.5143 12.2999C97.2402 15.596 101.262 19.3109 104.144 23.0426C107.054 26.8104 108.592 30.3262 108.592 33.2101C108.592 36.0939 107.054 39.6096 104.144 43.3774C101.262 47.1091 97.2402 50.824 92.5143 54.12C87.3344 57.7329 81.4107 60.7414 75.3833 62.8205C68.4592 65.2089 61.3958 66.42 54.3893 66.42ZM54.3893 2.66387C47.6395 2.66387 40.83 3.83229 34.15 6.13657C28.328 8.14467 22.6085 11.049 17.6096 14.5356C13.0906 17.6876 9.26174 21.2184 6.53723 24.7458C4.03735 27.9825 2.66077 30.9884 2.66077 33.2101C2.66077 35.4316 4.03735 38.4376 6.53723 41.6741C9.26174 45.2018 13.0906 48.7324 17.6096 51.8843C22.6085 55.3709 28.328 58.2753 34.15 60.2836C40.83 62.5877 47.6395 63.756 54.3893 63.756C61.1391 63.756 67.9486 62.5877 74.6286 60.2836C80.4504 58.2753 86.1701 55.3709 91.169 51.8843C95.688 48.7324 99.5167 45.2018 102.241 41.6741C104.741 38.4376 106.118 35.4316 106.118 33.2101C106.118 30.9884 104.741 27.9825 102.241 24.7458C99.5167 21.2184 95.688 17.6876 91.169 14.5356C86.1701 11.049 80.4504 8.14467 74.6286 6.13657C67.9486 3.83229 61.1391 2.66387 54.3893 2.66387Z" fill="#5C7148"/>
<path d="M141.271 32.8319C141.271 32.8766 141.26 32.9212 141.234 32.9537C141.207 32.9902 141.158 33.0228 141.09 33.043C141.019 33.0674 140.928 33.0877 140.811 33.0999C140.698 33.1121 140.551 33.116 140.374 33.116C140.17 33.116 140.001 33.108 139.872 33.0917C139.744 33.0756 139.639 33.0552 139.556 33.0267C139.476 32.9983 139.416 32.9618 139.382 32.9212C139.344 32.8766 139.318 32.8279 139.303 32.771L138.247 29.998C138.115 29.6406 137.975 29.3362 137.825 29.0763C137.674 28.8204 137.5 28.6095 137.3 28.4511C137.104 28.2927 136.882 28.1791 136.629 28.1059C136.38 28.0368 136.098 28.0003 135.773 28.0003H135.004V32.8197C135.004 32.8603 134.985 32.8968 134.947 32.9374C134.91 32.9781 134.857 33.0105 134.781 33.0309C134.706 33.0552 134.612 33.0756 134.491 33.0917C134.374 33.108 134.238 33.116 134.084 33.116C133.925 33.116 133.79 33.108 133.673 33.0917C133.552 33.0756 133.458 33.0552 133.382 33.0309C133.307 33.0105 133.254 32.9781 133.22 32.9374C133.186 32.8968 133.171 32.8562 133.171 32.8197V21.9386C133.171 21.9021 133.186 21.8615 133.22 21.8289C133.254 21.7924 133.307 21.76 133.382 21.7396C133.458 21.7153 133.552 21.6951 133.673 21.6829C133.79 21.6706 133.925 21.6666 134.084 21.6666C134.238 21.6666 134.374 21.6706 134.491 21.6829C134.612 21.6951 134.706 21.7153 134.781 21.7396C134.857 21.76 134.91 21.7924 134.947 21.8289C134.985 21.8615 135.004 21.9021 135.004 21.9428V26.4413H135.773C136.048 26.4413 136.305 26.4089 136.535 26.3398C136.765 26.2707 136.976 26.1612 137.165 26.0068C137.357 25.8486 137.527 25.6496 137.674 25.4019C137.825 25.1542 137.964 24.8579 138.089 24.5086L139.009 22.036C139.024 21.971 139.05 21.9182 139.084 21.8696C139.122 21.8209 139.178 21.7803 139.25 21.7518C139.326 21.7194 139.424 21.6951 139.544 21.6829C139.665 21.6706 139.827 21.6666 140.027 21.6666C140.2 21.6666 140.347 21.6706 140.461 21.6829C140.574 21.6951 140.664 21.7153 140.728 21.7396C140.789 21.76 140.83 21.7924 140.853 21.8289C140.875 21.8615 140.887 21.9021 140.887 21.9386C140.887 22.0117 140.879 22.0888 140.86 22.1659C140.841 22.2472 140.815 22.3365 140.777 22.442L139.827 24.801C139.68 25.1988 139.522 25.5318 139.348 25.8038C139.175 26.0717 139.001 26.2992 138.824 26.4778C138.651 26.6566 138.47 26.7945 138.285 26.896C138.104 26.9935 137.926 27.0706 137.757 27.1274V27.1517C138.013 27.2451 138.251 27.3589 138.47 27.4928C138.688 27.6309 138.888 27.7974 139.077 27.9922C139.265 28.1912 139.439 28.4267 139.601 28.7027C139.763 28.9747 139.914 29.2873 140.057 29.6447L141.151 32.3569C141.181 32.4097 141.2 32.4625 141.215 32.5112C141.23 32.5557 141.241 32.6046 141.249 32.6452C141.256 32.6898 141.264 32.7263 141.268 32.7547C141.271 32.7832 141.271 32.8075 141.271 32.8319ZM148.188 33.043L146.864 36.9853C146.819 37.1113 146.705 37.2087 146.524 37.2777C146.347 37.3466 146.072 37.3792 145.702 37.3792C145.51 37.3792 145.355 37.3712 145.239 37.3508C145.122 37.3305 145.031 37.294 144.967 37.2493C144.907 37.2006 144.873 37.1357 144.865 37.0585C144.858 36.9773 144.877 36.8839 144.918 36.7702L146.291 33.043C146.223 33.0105 146.159 32.9578 146.102 32.8888C146.042 32.8156 146 32.7426 145.981 32.6613L142.433 22.4299C142.373 22.2635 142.346 22.1294 142.346 22.036C142.346 21.9386 142.373 21.8655 142.433 21.8087C142.493 21.7518 142.587 21.7153 142.719 21.6951C142.851 21.6747 143.029 21.6666 143.251 21.6666C143.47 21.6666 143.643 21.6706 143.772 21.6829C143.896 21.6951 143.994 21.7194 144.069 21.7518C144.141 21.7803 144.194 21.829 144.228 21.8859C144.262 21.9467 144.296 22.0279 144.333 22.1294L147.173 30.7206H147.207L149.945 22.0849C149.99 21.9304 150.043 21.8331 150.107 21.7924C150.167 21.7479 150.262 21.7153 150.386 21.6951C150.514 21.6747 150.695 21.6666 150.929 21.6666C151.137 21.6666 151.306 21.6747 151.438 21.6951C151.57 21.7153 151.668 21.7518 151.729 21.8087C151.793 21.8655 151.823 21.9386 151.823 22.036C151.823 22.1294 151.8 22.2513 151.759 22.3934L148.188 33.043ZM161.349 32.7467C161.349 32.8116 161.333 32.8644 161.303 32.909C161.273 32.9496 161.228 32.9902 161.16 33.0228C161.096 33.0511 161.002 33.0756 160.885 33.0917C160.768 33.108 160.621 33.116 160.444 33.116C160.259 33.116 160.108 33.108 159.991 33.0917C159.874 33.0756 159.78 33.0511 159.708 33.0228C159.64 32.9902 159.591 32.9496 159.561 32.909C159.531 32.8644 159.516 32.8116 159.516 32.7467V23.3962H156.778C156.661 24.6548 156.518 25.7754 156.352 26.758C156.186 27.7405 156.001 28.5971 155.794 29.328C155.586 30.0549 155.353 30.6719 155.096 31.1713C154.84 31.6706 154.557 32.0727 154.251 32.3771C153.942 32.6817 153.61 32.9009 153.252 33.035C152.898 33.1688 152.513 33.2379 152.109 33.2379C152.042 33.2379 151.985 33.2257 151.936 33.2014C151.891 33.177 151.849 33.1364 151.819 33.0715C151.793 33.0105 151.77 32.9211 151.755 32.8034C151.74 32.6898 151.732 32.5436 151.732 32.3609C151.732 32.1701 151.736 32.0158 151.747 31.8981C151.759 31.7803 151.778 31.6828 151.804 31.6139C151.83 31.5407 151.864 31.4962 151.902 31.4718C151.944 31.4475 151.993 31.4351 152.053 31.4351C152.298 31.4351 152.528 31.3743 152.751 31.2526C152.969 31.1266 153.177 30.9237 153.369 30.6434C153.561 30.3634 153.742 29.9938 153.912 29.5391C154.078 29.0803 154.233 28.52 154.376 27.8543C154.515 27.1884 154.647 26.4089 154.772 25.5155C154.896 24.6263 155.017 23.5992 155.126 22.442C155.142 22.2026 155.194 22.0279 155.288 21.9102C155.379 21.7966 155.511 21.7396 155.681 21.7396H160.787C160.96 21.7396 161.1 21.7966 161.198 21.9143C161.3 22.0279 161.349 22.2026 161.349 22.442V32.7467ZM173.575 32.7588C173.575 32.8156 173.559 32.8684 173.529 32.9131C173.499 32.9618 173.454 32.9983 173.386 33.0267C173.322 33.0552 173.228 33.0756 173.111 33.0917C172.994 33.108 172.847 33.116 172.669 33.116C172.492 33.116 172.345 33.108 172.228 33.0917C172.111 33.0756 172.013 33.0552 171.942 33.0267C171.866 32.9983 171.817 32.9618 171.787 32.9131C171.757 32.8644 171.742 32.8156 171.742 32.7588V26.5955C171.742 26.2829 171.749 25.9703 171.764 25.6455C171.78 25.3248 171.798 25.0122 171.821 24.6995C171.651 25.0202 171.463 25.3287 171.263 25.6374C171.059 25.9418 170.856 26.2464 170.652 26.5468L166.44 32.7588C166.387 32.8238 166.342 32.8766 166.3 32.9253C166.259 32.9739 166.206 33.0105 166.145 33.0389C166.081 33.0674 166.002 33.0877 165.904 33.0999C165.81 33.1121 165.689 33.116 165.55 33.116C165.387 33.116 165.252 33.108 165.15 33.0917C165.044 33.0756 164.961 33.0552 164.901 33.0267C164.837 32.9983 164.792 32.9618 164.765 32.9131C164.739 32.8644 164.728 32.8156 164.728 32.7588V22.0238C164.728 21.9671 164.739 21.9182 164.765 21.8696C164.792 21.8209 164.841 21.7803 164.912 21.7518C164.98 21.7194 165.074 21.6951 165.195 21.6829C165.312 21.6706 165.455 21.6666 165.629 21.6666C165.983 21.6666 166.229 21.6951 166.36 21.7559C166.492 21.8168 166.56 21.9061 166.56 22.0238V28.2236C166.56 28.5322 166.553 28.8409 166.538 29.1453C166.523 29.4539 166.504 29.7544 166.481 30.0588C166.651 29.7544 166.824 29.462 166.998 29.1696C167.167 28.8815 167.356 28.5971 167.552 28.3212L171.821 22.0238C171.863 21.9589 171.908 21.9061 171.957 21.8615C172.006 21.8168 172.062 21.7803 172.134 21.7559C172.202 21.7275 172.285 21.7112 172.383 21.699C172.477 21.6869 172.602 21.6788 172.756 21.6788C172.911 21.6788 173.043 21.6869 173.148 21.699C173.258 21.7112 173.341 21.7316 173.405 21.764C173.465 21.7966 173.51 21.8331 173.537 21.8817C173.563 21.9304 173.575 21.9832 173.575 22.0482V32.7588ZM185.668 32.7467C185.668 32.8116 185.653 32.8644 185.623 32.909C185.593 32.9496 185.548 32.9902 185.48 33.0228C185.412 33.0511 185.322 33.0756 185.201 33.0917C185.084 33.108 184.937 33.116 184.76 33.116C184.571 33.116 184.42 33.108 184.303 33.0917C184.183 33.0756 184.092 33.0511 184.024 33.0228C183.956 32.9902 183.911 32.9496 183.881 32.909C183.851 32.8644 183.836 32.8116 183.836 32.7467V28.0492H178.79V32.7467C178.79 32.8116 178.775 32.8644 178.745 32.909C178.715 32.9496 178.669 32.9902 178.601 33.0228C178.534 33.0511 178.443 33.0756 178.322 33.0917C178.205 33.108 178.055 33.116 177.87 33.116C177.689 33.116 177.542 33.108 177.425 33.0917C177.304 33.0756 177.21 33.0511 177.142 33.0228C177.07 32.9902 177.021 32.9496 176.995 32.909C176.969 32.8644 176.957 32.8116 176.957 32.7467V22.036C176.957 21.971 176.969 21.9183 176.995 21.8737C177.021 21.8331 177.07 21.7924 177.142 21.7559C177.21 21.7194 177.304 21.6951 177.425 21.6829C177.542 21.6706 177.689 21.6666 177.87 21.6666C178.055 21.6666 178.205 21.6706 178.322 21.6829C178.443 21.6951 178.534 21.7194 178.601 21.7559C178.669 21.7924 178.715 21.8331 178.745 21.8737C178.775 21.9183 178.79 21.971 178.79 22.036V26.3926H183.836V22.036C183.836 21.971 183.851 21.9183 183.881 21.8737C183.911 21.8331 183.956 21.7924 184.024 21.7559C184.092 21.7194 184.183 21.6951 184.303 21.6829C184.42 21.6706 184.571 21.6666 184.76 21.6666C184.937 21.6666 185.084 21.6706 185.201 21.6829C185.322 21.6951 185.412 21.7194 185.48 21.7559C185.548 21.7924 185.593 21.8331 185.623 21.8737C185.653 21.9183 185.668 21.971 185.668 22.036V32.7467ZM196.544 32.7588C196.544 32.8523 196.514 32.9253 196.458 32.9739C196.397 33.0228 196.318 33.0552 196.213 33.0795C196.111 33.1039 195.96 33.116 195.76 33.116C195.571 33.116 195.417 33.1039 195.304 33.0795C195.191 33.0552 195.108 33.0228 195.055 32.9739C195.002 32.9253 194.976 32.8562 194.976 32.7588V31.6869C194.542 32.1864 194.059 32.5761 193.524 32.8523C192.988 33.1243 192.423 33.2622 191.827 33.2622C191.303 33.2622 190.827 33.1892 190.405 33.043C189.983 32.8968 189.621 32.6817 189.323 32.4056C189.025 32.1295 188.791 31.7844 188.625 31.3825C188.459 30.9765 188.376 30.5176 188.376 30.0021C188.376 29.397 188.489 28.8732 188.719 28.4307C188.946 27.9842 189.274 27.6147 189.704 27.3223C190.13 27.03 190.654 26.8067 191.272 26.6605C191.891 26.5143 192.588 26.4413 193.362 26.4413H194.734V25.6048C194.734 25.1949 194.693 24.8294 194.614 24.5086C194.531 24.192 194.402 23.9281 194.221 23.7169C194.04 23.5057 193.807 23.3475 193.52 23.242C193.233 23.1323 192.879 23.0795 192.46 23.0795C192.012 23.0795 191.608 23.1364 191.254 23.2541C190.895 23.3719 190.582 23.4977 190.315 23.6398C190.047 23.7819 189.82 23.9078 189.639 24.0256C189.462 24.1433 189.326 24.2001 189.24 24.2001C189.179 24.2001 189.127 24.1838 189.085 24.1514C189.04 24.1229 189.002 24.0743 188.968 24.0093C188.934 23.9485 188.912 23.8672 188.897 23.7697C188.882 23.6682 188.874 23.5626 188.874 23.4408C188.874 23.2459 188.885 23.0877 188.912 22.9739C188.938 22.8602 189.002 22.7506 189.1 22.6491C189.198 22.5476 189.372 22.4258 189.613 22.2837C189.855 22.1457 190.137 22.0158 190.454 21.898C190.767 21.7844 191.114 21.6869 191.491 21.6097C191.864 21.5326 192.245 21.4961 192.626 21.4961C193.339 21.4961 193.946 21.5813 194.448 21.7559C194.949 21.9304 195.353 22.1904 195.662 22.5274C195.971 22.8644 196.194 23.2826 196.333 23.7819C196.473 24.2813 196.544 24.866 196.544 25.5318V32.7588ZM194.734 27.8543H193.177C192.679 27.8543 192.245 27.8988 191.876 27.9922C191.51 28.0815 191.205 28.2195 190.959 28.3983C190.718 28.5769 190.541 28.7881 190.424 29.0397C190.311 29.2915 190.254 29.5797 190.254 29.9045C190.254 30.4607 190.416 30.9033 190.744 31.2322C191.073 31.5611 191.529 31.7275 192.121 31.7275C192.596 31.7275 193.041 31.5976 193.448 31.3337C193.856 31.0738 194.285 30.6719 194.734 30.132V27.8543ZM209.034 27.2167C209.034 28.1546 208.94 28.9951 208.751 29.7422C208.567 30.4851 208.291 31.1186 207.926 31.6382C207.564 32.1579 207.111 32.5599 206.576 32.8401C206.04 33.1202 205.425 33.2622 204.735 33.2622C204.441 33.2622 204.17 33.2298 203.921 33.1688C203.668 33.1039 203.427 33.0065 203.185 32.8684C202.948 32.7345 202.71 32.564 202.476 32.3569C202.239 32.1538 201.99 31.9102 201.726 31.6341V36.9975C201.726 37.0625 201.711 37.1153 201.681 37.164C201.65 37.2128 201.605 37.2534 201.537 37.2858C201.469 37.3143 201.379 37.3386 201.258 37.3549C201.141 37.3712 200.991 37.3792 200.806 37.3792C200.625 37.3792 200.478 37.3712 200.361 37.3549C200.24 37.3386 200.146 37.3143 200.078 37.2858C200.006 37.2534 199.957 37.2128 199.931 37.164C199.905 37.1153 199.893 37.0625 199.893 36.9975V22.036C199.893 21.963 199.905 21.9061 199.927 21.8615C199.95 21.8209 199.995 21.7803 200.059 21.7518C200.127 21.7194 200.21 21.6951 200.316 21.6829C200.417 21.6706 200.546 21.6666 200.693 21.6666C200.847 21.6666 200.975 21.6706 201.077 21.6829C201.175 21.6951 201.258 21.7194 201.326 21.7479C201.394 21.7803 201.439 21.8209 201.466 21.8615C201.492 21.9061 201.503 21.963 201.503 22.036V23.4692C201.805 23.1364 202.096 22.8481 202.374 22.6004C202.654 22.3568 202.936 22.1538 203.219 21.9914C203.502 21.829 203.792 21.7031 204.09 21.6219C204.388 21.5367 204.701 21.4961 205.033 21.4961C205.753 21.4961 206.364 21.6462 206.873 21.9467C207.379 22.2513 207.794 22.6613 208.114 23.1851C208.435 23.7088 208.668 24.3178 208.816 25.0122C208.963 25.7063 209.034 26.4413 209.034 27.2167ZM207.134 27.4441C207.134 26.896 207.096 26.3641 207.017 25.8525C206.941 25.3411 206.806 24.8862 206.621 24.4884C206.432 24.0905 206.18 23.7738 205.863 23.5342C205.546 23.2947 205.15 23.177 204.679 23.177C204.441 23.177 204.211 23.2135 203.981 23.2906C203.755 23.3678 203.521 23.4855 203.283 23.648C203.05 23.8103 202.801 24.0256 202.544 24.2935C202.288 24.5614 202.012 24.8903 201.726 25.2801V29.5391C202.228 30.2009 202.703 30.7045 203.151 31.0575C203.604 31.4069 204.075 31.5813 204.569 31.5813C205.026 31.5813 205.418 31.4636 205.746 31.2241C206.074 30.9845 206.338 30.6678 206.542 30.27C206.745 29.8722 206.892 29.4296 206.99 28.9343C207.085 28.4429 207.134 27.9436 207.134 27.4441ZM220.491 32.7467C220.491 32.8116 220.476 32.8644 220.446 32.909C220.416 32.9496 220.37 32.9902 220.302 33.0228C220.235 33.0511 220.144 33.0756 220.023 33.0917C219.906 33.108 219.759 33.116 219.582 33.116C219.393 33.116 219.243 33.108 219.126 33.0917C219.005 33.0756 218.915 33.0511 218.847 33.0228C218.779 32.9902 218.734 32.9496 218.703 32.909C218.673 32.8644 218.658 32.8116 218.658 32.7467V28.0492H213.612V32.7467C213.612 32.8116 213.597 32.8644 213.567 32.909C213.537 32.9496 213.492 32.9902 213.424 33.0228C213.356 33.0511 213.265 33.0756 213.145 33.0917C213.028 33.108 212.877 33.116 212.692 33.116C212.511 33.116 212.364 33.108 212.247 33.0917C212.127 33.0756 212.032 33.0511 211.964 33.0228C211.893 32.9902 211.844 32.9496 211.817 32.909C211.791 32.8644 211.78 32.8116 211.78 32.7467V22.036C211.78 21.971 211.791 21.9183 211.817 21.8737C211.844 21.8331 211.893 21.7924 211.964 21.7559C212.032 21.7194 212.127 21.6951 212.247 21.6829C212.364 21.6706 212.511 21.6666 212.692 21.6666C212.877 21.6666 213.028 21.6706 213.145 21.6829C213.265 21.6951 213.356 21.7194 213.424 21.7559C213.492 21.7924 213.537 21.8331 213.567 21.8737C213.597 21.9183 213.612 21.971 213.612 22.036V26.3926H218.658V22.036C218.658 21.971 218.673 21.9183 218.703 21.8737C218.734 21.8331 218.779 21.7924 218.847 21.7559C218.915 21.7194 219.005 21.6951 219.126 21.6829C219.243 21.6706 219.393 21.6666 219.582 21.6666C219.759 21.6666 219.906 21.6706 220.023 21.6829C220.144 21.6951 220.235 21.7194 220.302 21.7559C220.37 21.7924 220.416 21.8331 220.446 21.8737C220.476 21.9183 220.491 21.971 220.491 22.036V32.7467ZM231.367 32.7588C231.367 32.8523 231.337 32.9253 231.28 32.9739C231.22 33.0228 231.141 33.0552 231.035 33.0795C230.933 33.1039 230.782 33.116 230.582 33.116C230.394 33.116 230.239 33.1039 230.126 33.0795C230.013 33.0552 229.93 33.0228 229.877 32.9739C229.824 32.9253 229.798 32.8562 229.798 32.7588V31.6869C229.364 32.1864 228.882 32.5761 228.346 32.8523C227.811 33.1243 227.245 33.2622 226.649 33.2622C226.125 33.2622 225.65 33.1892 225.227 33.043C224.805 32.8968 224.443 32.6817 224.145 32.4056C223.847 32.1295 223.613 31.7844 223.447 31.3825C223.282 30.9765 223.199 30.5176 223.199 30.0021C223.199 29.397 223.312 28.8732 223.542 28.4307C223.768 27.9842 224.096 27.6147 224.526 27.3223C224.952 27.03 225.476 26.8067 226.095 26.6605C226.713 26.5143 227.411 26.4413 228.184 26.4413H229.557V25.6048C229.557 25.1949 229.515 24.8294 229.436 24.5086C229.353 24.192 229.225 23.9281 229.044 23.7169C228.863 23.5057 228.629 23.3475 228.342 23.242C228.056 23.1323 227.701 23.0795 227.283 23.0795C226.834 23.0795 226.43 23.1364 226.076 23.2541C225.718 23.3719 225.405 23.4977 225.137 23.6398C224.869 23.7819 224.643 23.9078 224.462 24.0256C224.285 24.1433 224.149 24.2001 224.062 24.2001C224.002 24.2001 223.949 24.1838 223.908 24.1514C223.862 24.1229 223.825 24.0743 223.791 24.0093C223.757 23.9485 223.734 23.8672 223.719 23.7697C223.704 23.6682 223.696 23.5626 223.696 23.4408C223.696 23.2459 223.708 23.0877 223.734 22.9739C223.76 22.8602 223.825 22.7506 223.923 22.6491C224.021 22.5476 224.194 22.4258 224.436 22.2837C224.677 22.1457 224.96 22.0158 225.276 21.898C225.589 21.7844 225.936 21.6869 226.313 21.6097C226.687 21.5326 227.068 21.4961 227.449 21.4961C228.161 21.4961 228.768 21.5813 229.27 21.7559C229.772 21.9304 230.175 22.1904 230.484 22.5274C230.794 22.8644 231.016 23.2826 231.156 23.7819C231.295 24.2813 231.367 24.866 231.367 25.5318V32.7588ZM229.557 27.8543H227.999C227.501 27.8543 227.068 27.8988 226.698 27.9922C226.332 28.0815 226.027 28.2195 225.782 28.3983C225.54 28.5769 225.363 28.7881 225.246 29.0397C225.133 29.2915 225.077 29.5797 225.077 29.9045C225.077 30.4607 225.239 30.9033 225.567 31.2322C225.895 31.5611 226.351 31.7275 226.943 31.7275C227.418 31.7275 227.863 31.5976 228.271 31.3337C228.678 31.0738 229.108 30.6719 229.557 30.132V27.8543ZM242.046 32.7467C242.046 32.8116 242.035 32.8644 242.009 32.9131C241.982 32.9618 241.937 32.9983 241.869 33.0267C241.801 33.0552 241.711 33.0756 241.59 33.0917C241.473 33.108 241.319 33.116 241.126 33.116C240.945 33.116 240.798 33.108 240.681 33.0917C240.561 33.0756 240.466 33.0552 240.399 33.0267C240.327 32.9983 240.278 32.9618 240.252 32.9131C240.225 32.8684 240.214 32.8116 240.214 32.7467V28.244H239.166C238.709 28.244 238.355 28.2845 238.098 28.3618C237.846 28.4429 237.616 28.5728 237.416 28.7596C237.212 28.9464 237.031 29.1859 236.869 29.4742C236.707 29.7624 236.552 30.1157 236.405 30.5379L235.598 32.6289C235.56 32.7304 235.523 32.8156 235.477 32.8766C235.432 32.9416 235.368 32.9902 235.285 33.0267C235.202 33.0632 235.093 33.0877 234.964 33.0999C234.836 33.1121 234.678 33.116 234.486 33.116C234.35 33.116 234.225 33.1121 234.12 33.1039C234.014 33.0958 233.924 33.0836 233.848 33.0632C233.777 33.043 233.72 33.0105 233.686 32.9659C233.648 32.9253 233.629 32.8684 233.629 32.8075C233.629 32.7506 233.648 32.6613 233.69 32.5396C233.731 32.4178 233.814 32.2027 233.939 31.894L234.734 29.8843C234.942 29.3768 235.194 28.9382 235.496 28.5728C235.798 28.2034 236.145 27.9314 236.537 27.7568C235.82 27.6147 235.255 27.3061 234.829 26.8351C234.406 26.36 234.195 25.7348 234.195 24.9553C234.195 24.4397 234.293 23.9728 234.493 23.5546C234.693 23.1364 234.983 22.7831 235.372 22.4948C235.756 22.2026 236.231 21.9793 236.797 21.825C237.359 21.6706 238.004 21.5934 238.736 21.5934C238.909 21.5934 239.116 21.5976 239.346 21.6056C239.58 21.6139 239.818 21.626 240.063 21.6423C240.312 21.6584 240.549 21.6747 240.783 21.6951C241.013 21.7153 241.213 21.7316 241.383 21.7479C241.605 21.7722 241.771 21.8574 241.881 22.0117C241.99 22.162 242.046 22.3486 242.046 22.568V32.7467ZM240.214 23.177C239.95 23.1364 239.678 23.1079 239.399 23.0958C239.124 23.0836 238.867 23.0795 238.63 23.0795C238.132 23.0795 237.717 23.1242 237.386 23.2176C237.05 23.3069 236.786 23.4408 236.582 23.6113C236.382 23.7819 236.239 23.985 236.156 24.2164C236.069 24.4436 236.028 24.6995 236.028 24.9796C236.028 25.2638 236.077 25.5238 236.175 25.7511C236.277 25.9785 236.424 26.1693 236.628 26.3235C236.827 26.4778 237.088 26.5996 237.401 26.6809C237.717 26.7661 238.155 26.8067 238.721 26.8067H240.214V23.177ZM141.339 53.4382C141.339 53.5032 141.324 53.5559 141.294 53.6005C141.264 53.6411 141.219 53.6818 141.151 53.7143C141.087 53.7426 140.992 53.7671 140.876 53.7832C140.758 53.7995 140.611 53.8075 140.434 53.8075C140.249 53.8075 140.099 53.7995 139.982 53.7832C139.865 53.7671 139.771 53.7426 139.699 53.7143C139.631 53.6818 139.582 53.6411 139.552 53.6005C139.522 53.5559 139.507 53.5032 139.507 53.4382V44.0877H136.769C136.652 45.3463 136.509 46.4669 136.343 47.4496C136.177 48.432 135.992 49.2886 135.785 50.0195C135.577 50.7464 135.343 51.3634 135.087 51.8629C134.83 52.3622 134.548 52.7643 134.242 53.0687C133.933 53.3732 133.601 53.5924 133.243 53.7265C132.888 53.8603 132.504 53.9294 132.1 53.9294C132.032 53.9294 131.976 53.9173 131.927 53.8929C131.881 53.8686 131.84 53.828 131.81 53.763C131.783 53.702 131.761 53.6127 131.746 53.4949C131.731 53.3813 131.723 53.2351 131.723 53.0524C131.723 52.8616 131.727 52.7073 131.738 52.5896C131.749 52.4718 131.768 52.3743 131.795 52.3054C131.821 52.2322 131.855 52.1877 131.893 52.1633C131.934 52.139 131.983 52.1266 132.044 52.1266C132.289 52.1266 132.519 52.0658 132.741 51.9441C132.96 51.8181 133.167 51.6152 133.36 51.335C133.552 51.0549 133.733 50.6854 133.903 50.2307C134.069 49.7718 134.223 49.2115 134.367 48.5458C134.506 47.8799 134.638 47.1004 134.762 46.2071C134.887 45.3179 135.008 44.2907 135.117 43.1336C135.132 42.8941 135.185 42.7195 135.279 42.6017C135.37 42.4881 135.502 42.4312 135.671 42.4312H140.777C140.951 42.4312 141.09 42.4881 141.188 42.6058C141.29 42.7195 141.339 42.8941 141.339 43.1336V53.4382ZM152.207 53.4504C152.207 53.5438 152.177 53.6168 152.121 53.6655C152.061 53.7143 151.981 53.7467 151.876 53.7711C151.774 53.7954 151.623 53.8075 151.423 53.8075C151.235 53.8075 151.08 53.7954 150.967 53.7711C150.854 53.7467 150.771 53.7143 150.718 53.6655C150.665 53.6168 150.639 53.5477 150.639 53.4504V52.3785C150.205 52.8779 149.722 53.2676 149.187 53.5438C148.651 53.8158 148.086 53.9537 147.49 53.9537C146.966 53.9537 146.491 53.8807 146.068 53.7345C145.646 53.5883 145.284 53.3732 144.986 53.0971C144.688 52.821 144.454 52.4759 144.288 52.074C144.122 51.668 144.039 51.2092 144.039 50.6936C144.039 50.0886 144.152 49.5648 144.382 49.1222C144.609 48.6757 144.937 48.3062 145.367 48.0138C145.793 47.7216 146.317 47.4982 146.936 47.352C147.554 47.2058 148.252 47.1328 149.025 47.1328H150.397V46.2964C150.397 45.8864 150.356 45.521 150.277 45.2001C150.194 44.8835 150.065 44.6196 149.884 44.4084C149.703 44.1973 149.47 44.0391 149.183 43.9335C148.897 43.8238 148.542 43.771 148.123 43.771C147.675 43.771 147.271 43.8279 146.917 43.9457C146.558 44.0634 146.245 44.1892 145.978 44.3313C145.71 44.4734 145.484 44.5994 145.303 44.7171C145.125 44.8349 144.99 44.8916 144.903 44.8916C144.843 44.8916 144.79 44.8753 144.748 44.8429C144.703 44.8145 144.665 44.7658 144.631 44.7008C144.598 44.64 144.575 44.5588 144.56 44.4612C144.545 44.3598 144.537 44.2542 144.537 44.1323C144.537 43.9374 144.549 43.7792 144.575 43.6654C144.601 43.5518 144.665 43.4421 144.763 43.3406C144.861 43.2391 145.035 43.1173 145.276 42.9752C145.518 42.8372 145.8 42.7073 146.117 42.5895C146.43 42.4759 146.777 42.3784 147.154 42.3012C147.528 42.2241 147.909 42.1876 148.289 42.1876C149.002 42.1876 149.609 42.2728 150.111 42.4475C150.612 42.622 151.016 42.882 151.325 43.2189C151.634 43.5559 151.857 43.9741 151.996 44.4734C152.136 44.9728 152.207 45.5575 152.207 46.2234V53.4504ZM150.397 48.5458H148.84C148.342 48.5458 147.909 48.5904 147.539 48.6838C147.173 48.7731 146.868 48.911 146.623 49.0898C146.381 49.2684 146.204 49.4796 146.087 49.7312C145.974 49.983 145.917 50.2713 145.917 50.5961C145.917 51.1523 146.08 51.5948 146.408 51.9237C146.736 52.2526 147.192 52.4191 147.784 52.4191C148.259 52.4191 148.704 52.2891 149.111 52.0252C149.519 51.7653 149.949 51.3634 150.397 50.8235V48.5458Z" fill="#5C7148"/>
<path d="M163.725 50.3564C163.725 50.9208 163.626 51.4243 163.427 51.8629C163.227 52.3054 162.933 52.6708 162.54 52.9713C162.152 53.2676 161.666 53.4949 161.085 53.6493C160.5 53.8036 159.821 53.8807 159.048 53.8807C158.807 53.8807 158.57 53.8807 158.343 53.8766C158.113 53.8725 157.891 53.8644 157.679 53.8522C157.465 53.8401 157.253 53.8238 157.042 53.8075C156.835 53.7954 156.624 53.7751 156.42 53.7508C156.122 53.7102 155.907 53.6046 155.767 53.4341C155.628 53.2635 155.556 53.0119 155.556 52.6789V43.4624C155.556 43.1376 155.624 42.8859 155.76 42.7114C155.896 42.5367 156.107 42.4353 156.386 42.4027C156.578 42.3784 156.782 42.3581 157.001 42.3419C157.216 42.3297 157.438 42.3134 157.668 42.3012C157.898 42.2891 158.132 42.281 158.377 42.2728C158.618 42.2647 158.864 42.2606 159.116 42.2606C159.833 42.2606 160.451 42.3256 160.972 42.4516C161.496 42.5774 161.93 42.7642 162.276 43.0077C162.623 43.2554 162.88 43.5559 163.046 43.9131C163.212 44.2704 163.295 44.6765 163.295 45.1351C163.295 45.736 163.144 46.2518 162.846 46.6822C162.548 47.1084 162.107 47.413 161.526 47.5955C162.254 47.7621 162.804 48.0828 163.174 48.558C163.54 49.037 163.725 49.6338 163.725 50.3564ZM161.53 45.391C161.53 45.1312 161.484 44.8998 161.398 44.6926C161.307 44.4897 161.164 44.315 160.96 44.1729C160.757 44.0308 160.493 43.9252 160.172 43.8522C159.852 43.7831 159.463 43.7466 159.003 43.7466C158.656 43.7466 158.339 43.7547 158.053 43.7751C157.762 43.7953 157.521 43.8197 157.321 43.8401V47.1571H159.18C159.942 47.1571 160.523 47.007 160.926 46.7024C161.33 46.3978 161.53 45.9594 161.53 45.391ZM161.847 50.3849C161.847 50.0683 161.794 49.7881 161.692 49.5486C161.59 49.3049 161.424 49.1059 161.202 48.9477C160.975 48.7893 160.689 48.6716 160.338 48.5903C159.991 48.5132 159.576 48.4726 159.097 48.4726H157.321V52.2648C157.461 52.2891 157.608 52.3054 157.759 52.3176C157.909 52.3297 158.064 52.3419 158.222 52.3541C158.381 52.3663 158.535 52.3743 158.694 52.3825C158.852 52.3906 158.999 52.3947 159.131 52.3947C159.61 52.3947 160.018 52.3499 160.357 52.2567C160.696 52.1672 160.975 52.0334 161.202 51.8587C161.424 51.6841 161.59 51.4731 161.692 51.2254C161.794 50.9736 161.847 50.6936 161.847 50.3849ZM174.495 53.5233C174.495 53.5681 174.484 53.6126 174.457 53.6452C174.431 53.6817 174.382 53.7143 174.314 53.7345C174.242 53.7589 174.152 53.7793 174.035 53.7914C173.922 53.8036 173.774 53.8075 173.597 53.8075C173.394 53.8075 173.224 53.7995 173.096 53.7832C172.968 53.7671 172.862 53.7467 172.779 53.7182C172.7 53.6898 172.639 53.6533 172.605 53.6127C172.568 53.5681 172.541 53.5194 172.526 53.4625L171.47 50.6895C171.338 50.3321 171.199 50.0277 171.048 49.7679C170.897 49.512 170.724 49.301 170.524 49.1426C170.328 48.9842 170.105 48.8706 169.853 48.7974C169.604 48.7283 169.321 48.6918 168.997 48.6918H168.227V53.5112C168.227 53.5518 168.208 53.5883 168.171 53.6289C168.133 53.6695 168.08 53.7019 168.005 53.7223C167.929 53.7467 167.835 53.7671 167.714 53.7832C167.597 53.7995 167.462 53.8075 167.307 53.8075C167.149 53.8075 167.013 53.7995 166.896 53.7832C166.775 53.7671 166.681 53.7467 166.606 53.7223C166.53 53.7019 166.478 53.6695 166.444 53.6289C166.41 53.5883 166.395 53.5477 166.395 53.5112V42.6302C166.395 42.5937 166.41 42.553 166.444 42.5205C166.478 42.484 166.53 42.4515 166.606 42.4311C166.681 42.4068 166.775 42.3866 166.896 42.3744C167.013 42.3621 167.149 42.3581 167.307 42.3581C167.462 42.3581 167.597 42.3621 167.714 42.3744C167.835 42.3866 167.929 42.4068 168.005 42.4311C168.08 42.4515 168.133 42.484 168.171 42.5205C168.208 42.553 168.227 42.5936 168.227 42.6342V47.1328H168.997C169.272 47.1328 169.528 47.1004 169.758 47.0313C169.988 46.9622 170.2 46.8527 170.388 46.6983C170.58 46.5401 170.75 46.3411 170.897 46.0934C171.048 45.8457 171.188 45.5494 171.312 45.2001L172.232 42.7275C172.247 42.6626 172.274 42.6097 172.308 42.5611C172.345 42.5124 172.402 42.4718 172.474 42.4433C172.549 42.4109 172.647 42.3866 172.768 42.3744C172.888 42.3621 173.05 42.3581 173.25 42.3581C173.424 42.3581 173.571 42.3621 173.684 42.3744C173.797 42.3866 173.888 42.4068 173.952 42.4311C174.012 42.4515 174.054 42.484 174.076 42.5205C174.099 42.553 174.11 42.5937 174.11 42.6302C174.11 42.7032 174.103 42.7803 174.084 42.8574C174.065 42.9387 174.039 43.028 174.001 43.1335L173.05 45.4925C172.903 45.8903 172.745 46.2233 172.572 46.4954C172.398 46.7633 172.225 46.9907 172.047 47.1693C171.874 47.3481 171.693 47.486 171.508 47.5875C171.327 47.685 171.15 47.7621 170.98 47.8189V47.8432C171.237 47.9366 171.474 48.0504 171.693 48.1843C171.912 48.3224 172.112 48.4889 172.3 48.6838C172.489 48.8828 172.662 49.1182 172.824 49.3942C172.986 49.6662 173.137 49.9788 173.28 50.3362L174.374 53.0484C174.404 53.1012 174.423 53.154 174.438 53.2027C174.453 53.2472 174.465 53.2961 174.472 53.3367C174.48 53.3812 174.487 53.4178 174.491 53.4462C174.495 53.4747 174.495 53.499 174.495 53.5233ZM184.047 53.4503C184.047 53.5437 184.017 53.6168 183.96 53.6655C183.9 53.7143 183.821 53.7467 183.715 53.771C183.613 53.7954 183.462 53.8075 183.262 53.8075C183.074 53.8075 182.919 53.7954 182.806 53.771C182.693 53.7467 182.61 53.7143 182.557 53.6655C182.505 53.6168 182.478 53.5477 182.478 53.4503V52.3784C182.044 52.8779 181.562 53.2676 181.026 53.5437C180.491 53.8157 179.925 53.9537 179.329 53.9537C178.805 53.9537 178.33 53.8807 177.908 53.7345C177.485 53.5883 177.123 53.3732 176.825 53.0971C176.527 52.821 176.294 52.4759 176.128 52.074C175.962 51.668 175.879 51.2091 175.879 50.6936C175.879 50.0885 175.992 49.5647 176.222 49.1222C176.448 48.6757 176.776 48.3062 177.206 48.0138C177.632 47.7215 178.156 47.4982 178.775 47.352C179.393 47.2058 180.091 47.1328 180.864 47.1328H182.237V46.2963C182.237 45.8864 182.195 45.521 182.116 45.2001C182.033 44.8835 181.905 44.6196 181.724 44.4084C181.543 44.1973 181.309 44.039 181.022 43.9335C180.736 43.8238 180.381 43.771 179.963 43.771C179.514 43.771 179.111 43.8279 178.756 43.9456C178.398 44.0634 178.085 44.1892 177.817 44.3313C177.549 44.4734 177.323 44.5993 177.142 44.7171C176.965 44.8349 176.829 44.8916 176.742 44.8916C176.682 44.8916 176.629 44.8753 176.588 44.8429C176.542 44.8145 176.505 44.7658 176.471 44.7008C176.437 44.64 176.414 44.5587 176.399 44.4612C176.384 44.3597 176.377 44.2541 176.377 44.1323C176.377 43.9374 176.388 43.7792 176.414 43.6654C176.441 43.5517 176.505 43.4421 176.603 43.3406C176.701 43.2391 176.874 43.1173 177.116 42.9752C177.357 42.8372 177.64 42.7073 177.957 42.5895C178.27 42.4759 178.616 42.3784 178.994 42.3012C179.367 42.2241 179.748 42.1876 180.129 42.1876C180.841 42.1876 181.449 42.2728 181.95 42.4474C182.452 42.6219 182.855 42.8819 183.164 43.2189C183.474 43.5559 183.696 43.9741 183.836 44.4734C183.975 44.9728 184.047 45.5574 184.047 46.2233V53.4503ZM182.237 48.5458H180.679C180.182 48.5458 179.748 48.5903 179.378 48.6838C179.013 48.7731 178.707 48.911 178.462 49.0898C178.221 49.2684 178.043 49.4796 177.926 49.7312C177.813 49.9829 177.757 50.2713 177.757 50.5961C177.757 51.1522 177.919 51.5948 178.247 51.9237C178.575 52.2526 179.031 52.419 179.623 52.419C180.099 52.419 180.544 52.2891 180.951 52.0252C181.358 51.7653 181.788 51.3634 182.237 50.8235V48.5458Z" fill="#5C7148"/>
</svg>
